G04*
G04 #@! TF.GenerationSoftware,Altium Limited,Altium Designer,24.7.2 (38)*
G04*
G04 Layer_Physical_Order=3*
G04 Layer_Color=128*
%FSLAX44Y44*%
%MOMM*%
G71*
G04*
G04 #@! TF.SameCoordinates,4798D7E4-1403-4A70-8607-6B62460FE5A0*
G04*
G04*
G04 #@! TF.FilePolarity,Negative*
G04*
G01*
G75*
%ADD45C,1.0160*%
%ADD47C,1.5532*%
%ADD49C,1.2032*%
G04:AMPARAMS|DCode=51|XSize=1.9032mm|YSize=1.9032mm|CornerRadius=0mm|HoleSize=0mm|Usage=FLASHONLY|Rotation=0.000|XOffset=0mm|YOffset=0mm|HoleType=Round|Shape=Relief|Width=0.1016mm|Gap=0.1016mm|Entries=4|*
%AMTHD51*
7,0,0,1.9032,1.7000,0.1016,45*
%
%ADD51THD51*%
%ADD52C,1.3032*%
%ADD53C,0.6096*%
%ADD54O,2.0032X2.4032*%
%ADD55C,2.7432*%
D45*
X0Y-914400D02*
G03*
X50800Y-965200I50800J-0D01*
G01*
X914400Y-965200D02*
G03*
X965200Y-914400I-0J50800D01*
G01*
X965200Y-50800D02*
G03*
X914400Y-0I-50800J-0D01*
G01*
X50800Y0D02*
G03*
X-0Y-50800I-0J-50800D01*
G01*
X50800Y-965200D02*
X914400Y-965200D01*
X965200Y-914400D02*
X965200Y-50800D01*
X50800Y0D02*
X914400Y-0D01*
X-0Y-50800D02*
X0Y-914400D01*
D47*
X388327Y-788750D02*
D03*
X351327D02*
D03*
Y-53750D02*
D03*
X826900Y-788750D02*
D03*
X789900D02*
D03*
Y-53750D02*
D03*
X570613D02*
D03*
Y-788750D02*
D03*
X607613D02*
D03*
X132040Y-53750D02*
D03*
Y-788750D02*
D03*
X169040D02*
D03*
D49*
X385170Y-935470D02*
D03*
Y-870470D02*
D03*
X430170Y-935470D02*
D03*
Y-870470D02*
D03*
X528680Y-935470D02*
D03*
Y-870470D02*
D03*
X573680Y-935470D02*
D03*
Y-870470D02*
D03*
X824230Y-936740D02*
D03*
Y-871740D02*
D03*
X869230Y-936740D02*
D03*
Y-871740D02*
D03*
X748030Y-935990D02*
D03*
Y-870990D02*
D03*
X793030Y-935990D02*
D03*
Y-870990D02*
D03*
X604880Y-935470D02*
D03*
Y-870470D02*
D03*
X649880Y-935470D02*
D03*
Y-870470D02*
D03*
X166730Y-935470D02*
D03*
Y-870470D02*
D03*
X211730Y-935470D02*
D03*
Y-870470D02*
D03*
X308970Y-935470D02*
D03*
Y-870470D02*
D03*
X353970Y-935470D02*
D03*
Y-870470D02*
D03*
X90530Y-935470D02*
D03*
Y-870470D02*
D03*
X135530Y-935470D02*
D03*
Y-870470D02*
D03*
D51*
X934720Y-703580D02*
D03*
D52*
Y-754380D02*
D03*
Y-728980D02*
D03*
Y-632460D02*
D03*
Y-607060D02*
D03*
Y-556260D02*
D03*
Y-581660D02*
D03*
Y-403860D02*
D03*
Y-429260D02*
D03*
Y-454660D02*
D03*
Y-480060D02*
D03*
Y-530860D02*
D03*
Y-505460D02*
D03*
D53*
X576580Y-565150D02*
D03*
X826770Y-855980D02*
D03*
X853440Y-469900D02*
D03*
X869950Y-463550D02*
D03*
X455930Y-792480D02*
D03*
X541020Y-577850D02*
D03*
X19050Y-782320D02*
D03*
X546100Y-692150D02*
D03*
X904240Y-805180D02*
D03*
X922020Y-806450D02*
D03*
X904240Y-857250D02*
D03*
X681140Y-78232D02*
D03*
Y-138199D02*
D03*
Y-198166D02*
D03*
X680746Y-258736D02*
D03*
X681140Y-318100D02*
D03*
Y-378068D02*
D03*
Y-438035D02*
D03*
Y-498002D02*
D03*
Y-557969D02*
D03*
Y-617936D02*
D03*
Y-677903D02*
D03*
Y-737870D02*
D03*
X460160D02*
D03*
Y-677903D02*
D03*
Y-617936D02*
D03*
Y-557969D02*
D03*
Y-498002D02*
D03*
Y-438035D02*
D03*
Y-378068D02*
D03*
Y-318100D02*
D03*
Y-258133D02*
D03*
Y-198166D02*
D03*
Y-138199D02*
D03*
Y-78232D02*
D03*
X241720D02*
D03*
Y-138199D02*
D03*
Y-198166D02*
D03*
Y-258133D02*
D03*
Y-318100D02*
D03*
Y-378068D02*
D03*
Y-438035D02*
D03*
Y-498002D02*
D03*
Y-557969D02*
D03*
Y-617936D02*
D03*
X241300Y-677672D02*
D03*
X241720Y-737870D02*
D03*
X24130Y-318100D02*
D03*
X675720Y-124460D02*
D03*
Y-182880D02*
D03*
Y-241300D02*
D03*
Y-303530D02*
D03*
Y-363220D02*
D03*
Y-422910D02*
D03*
Y-482600D02*
D03*
Y-542290D02*
D03*
Y-601980D02*
D03*
Y-662940D02*
D03*
Y-723900D02*
D03*
Y-782320D02*
D03*
X454660Y-124460D02*
D03*
Y-182880D02*
D03*
Y-242570D02*
D03*
Y-303530D02*
D03*
Y-363220D02*
D03*
X454740Y-422910D02*
D03*
Y-485140D02*
D03*
Y-543560D02*
D03*
X454660Y-601980D02*
D03*
Y-662940D02*
D03*
Y-723900D02*
D03*
X236300Y-124460D02*
D03*
Y-182880D02*
D03*
Y-241300D02*
D03*
Y-302260D02*
D03*
Y-363220D02*
D03*
Y-421640D02*
D03*
Y-482600D02*
D03*
Y-543560D02*
D03*
Y-601980D02*
D03*
Y-662940D02*
D03*
Y-723900D02*
D03*
Y-782320D02*
D03*
X19050Y-124460D02*
D03*
Y-182880D02*
D03*
Y-241300D02*
D03*
Y-302260D02*
D03*
Y-363220D02*
D03*
Y-421640D02*
D03*
Y-482600D02*
D03*
Y-541020D02*
D03*
Y-601980D02*
D03*
X17780Y-662940D02*
D03*
Y-723900D02*
D03*
X24130Y-78232D02*
D03*
Y-138199D02*
D03*
Y-198166D02*
D03*
Y-258133D02*
D03*
Y-378068D02*
D03*
Y-438035D02*
D03*
Y-498002D02*
D03*
Y-557969D02*
D03*
Y-617936D02*
D03*
Y-677903D02*
D03*
Y-737870D02*
D03*
X102870Y-855980D02*
D03*
X152400Y-861060D02*
D03*
X171450Y-854710D02*
D03*
X231140Y-859790D02*
D03*
X320040Y-855980D02*
D03*
X370840Y-861060D02*
D03*
X391160Y-853440D02*
D03*
X452120Y-861060D02*
D03*
X541020Y-857250D02*
D03*
X609600Y-849630D02*
D03*
X621030Y-855980D02*
D03*
X683260Y-861060D02*
D03*
X760730Y-855980D02*
D03*
X836930D02*
D03*
X547370Y-645160D02*
D03*
X642640Y-608249D02*
D03*
X785795Y-452541D02*
D03*
X827705Y-526200D02*
D03*
X807385Y-552870D02*
D03*
X776905Y-470321D02*
D03*
X547370Y-595630D02*
D03*
X635000Y-665480D02*
D03*
X636690Y-634065D02*
D03*
X638810Y-619760D02*
D03*
X635000Y-646430D02*
D03*
X546100Y-633730D02*
D03*
X543560Y-619760D02*
D03*
X546521Y-607395D02*
D03*
X615950Y-707390D02*
D03*
X600397Y-713307D02*
D03*
X588010Y-712470D02*
D03*
X572770Y-709930D02*
D03*
X559460Y-693127D02*
D03*
X534670Y-676910D02*
D03*
X523240Y-671830D02*
D03*
D54*
X412327Y-747250D02*
D03*
Y-95250D02*
D03*
X327327Y-735250D02*
D03*
Y-107250D02*
D03*
X850900Y-747250D02*
D03*
Y-95250D02*
D03*
X765900Y-735250D02*
D03*
Y-107250D02*
D03*
X546613D02*
D03*
Y-735250D02*
D03*
X631613Y-95250D02*
D03*
Y-747250D02*
D03*
X108040Y-107250D02*
D03*
Y-735250D02*
D03*
X193040Y-95250D02*
D03*
Y-747250D02*
D03*
D55*
X920750Y-44450D02*
D03*
X44450D02*
D03*
M02*
