G04*
G04 #@! TF.GenerationSoftware,Altium Limited,Altium Designer,24.7.2 (38)*
G04*
G04 Layer_Physical_Order=2*
G04 Layer_Color=32768*
%FSLAX44Y44*%
%MOMM*%
G71*
G04*
G04 #@! TF.SameCoordinates,4798D7E4-1403-4A70-8607-6B62460FE5A0*
G04*
G04*
G04 #@! TF.FilePolarity,Negative*
G04*
G01*
G75*
%ADD45C,1.0160*%
%AMTHOVALD46*
21,1,0.4000,2.6032,0,0,90.0*
1,1,2.6032,0.0000,-0.2000*
1,1,2.6032,0.0000,0.2000*
21,0,0.4000,2.4000,0,0,90.0*
1,0,2.4000,0.0000,-0.2000*
1,0,2.4000,0.0000,0.2000*
4,0,4,0.0359,-0.1641,0.9563,-1.0844,0.8845,-1.1563,-0.0359,-0.2359,0.0359,-0.1641,0.0*
4,0,4,0.0359,0.2359,-0.8845,1.1563,-0.9563,1.0844,-0.0359,0.1641,0.0359,0.2359,0.0*
4,0,4,0.0359,-0.2359,-0.8845,-1.1563,-0.9563,-1.0844,-0.0359,-0.1641,0.0359,-0.2359,0.0*
4,0,4,0.0359,0.1641,0.9563,1.0844,0.8845,1.1563,-0.0359,0.2359,0.0359,0.1641,0.0*
%
%ADD46THOVALD46*%

%ADD47C,1.5532*%
G04:AMPARAMS|DCode=48|XSize=2.1532mm|YSize=2.1532mm|CornerRadius=0mm|HoleSize=0mm|Usage=FLASHONLY|Rotation=0.000|XOffset=0mm|YOffset=0mm|HoleType=Round|Shape=Relief|Width=0.1016mm|Gap=0.1016mm|Entries=4|*
%AMTHD48*
7,0,0,2.1532,1.9500,0.1016,45*
%
%ADD48THD48*%
%ADD49C,1.2032*%
G04:AMPARAMS|DCode=50|XSize=1.8032mm|YSize=1.8032mm|CornerRadius=0mm|HoleSize=0mm|Usage=FLASHONLY|Rotation=0.000|XOffset=0mm|YOffset=0mm|HoleType=Round|Shape=Relief|Width=0.1016mm|Gap=0.1016mm|Entries=4|*
%AMTHD50*
7,0,0,1.8032,1.6000,0.1016,45*
%
%ADD50THD50*%
G04:AMPARAMS|DCode=51|XSize=1.9032mm|YSize=1.9032mm|CornerRadius=0mm|HoleSize=0mm|Usage=FLASHONLY|Rotation=0.000|XOffset=0mm|YOffset=0mm|HoleType=Round|Shape=Relief|Width=0.1016mm|Gap=0.1016mm|Entries=4|*
%AMTHD51*
7,0,0,1.9032,1.7000,0.1016,45*
%
%ADD51THD51*%
%ADD52C,1.3032*%
%ADD53C,0.6096*%
D45*
X0Y-914400D02*
G03*
X50800Y-965200I50800J-0D01*
G01*
X914400Y-965200D02*
G03*
X965200Y-914400I-0J50800D01*
G01*
X965200Y-50800D02*
G03*
X914400Y-0I-50800J-0D01*
G01*
X50800Y0D02*
G03*
X-0Y-50800I-0J-50800D01*
G01*
X50800Y-965200D02*
X914400Y-965200D01*
X965200Y-914400D02*
X965200Y-50800D01*
X50800Y0D02*
X914400Y-0D01*
X-0Y-50800D02*
X0Y-914400D01*
D46*
X412327Y-747250D02*
D03*
Y-95250D02*
D03*
X327327Y-735250D02*
D03*
Y-107250D02*
D03*
X850900Y-747250D02*
D03*
Y-95250D02*
D03*
X765900Y-735250D02*
D03*
Y-107250D02*
D03*
X546613D02*
D03*
Y-735250D02*
D03*
X631613Y-95250D02*
D03*
Y-747250D02*
D03*
X108040Y-107250D02*
D03*
Y-735250D02*
D03*
X193040Y-95250D02*
D03*
Y-747250D02*
D03*
D47*
X388327Y-788750D02*
D03*
X351327D02*
D03*
X826900D02*
D03*
X789900D02*
D03*
X570613D02*
D03*
X607613D02*
D03*
X132040D02*
D03*
X169040D02*
D03*
D48*
X351327Y-53750D02*
D03*
X789900D02*
D03*
X570613D02*
D03*
X132040D02*
D03*
D49*
X385170Y-935470D02*
D03*
Y-870470D02*
D03*
X528680Y-935470D02*
D03*
Y-870470D02*
D03*
X824230Y-936740D02*
D03*
Y-871740D02*
D03*
X748030Y-935990D02*
D03*
Y-870990D02*
D03*
X604880Y-935470D02*
D03*
Y-870470D02*
D03*
X166730Y-935470D02*
D03*
Y-870470D02*
D03*
X308970Y-935470D02*
D03*
Y-870470D02*
D03*
X90530Y-935470D02*
D03*
Y-870470D02*
D03*
D50*
X430170Y-935470D02*
D03*
Y-870470D02*
D03*
X573680Y-935470D02*
D03*
Y-870470D02*
D03*
X869230Y-936740D02*
D03*
Y-871740D02*
D03*
X793030Y-935990D02*
D03*
Y-870990D02*
D03*
X649880Y-935470D02*
D03*
Y-870470D02*
D03*
X211730Y-935470D02*
D03*
Y-870470D02*
D03*
X353970Y-935470D02*
D03*
Y-870470D02*
D03*
X135530Y-935470D02*
D03*
Y-870470D02*
D03*
D51*
X934720Y-754380D02*
D03*
Y-632460D02*
D03*
D52*
Y-728980D02*
D03*
Y-703580D02*
D03*
Y-607060D02*
D03*
Y-556260D02*
D03*
Y-581660D02*
D03*
Y-403860D02*
D03*
Y-429260D02*
D03*
Y-454660D02*
D03*
Y-480060D02*
D03*
Y-530860D02*
D03*
Y-505460D02*
D03*
D53*
X361950Y-820420D02*
D03*
X561340D02*
D03*
X607060D02*
D03*
X640080D02*
D03*
X826770Y-819150D02*
D03*
X855980Y-820420D02*
D03*
X853440Y-469900D02*
D03*
X869950Y-463550D02*
D03*
X342900Y-821690D02*
D03*
X143510Y-819150D02*
D03*
X119380Y-820420D02*
D03*
X195580D02*
D03*
X228600Y-816610D02*
D03*
X450850D02*
D03*
X424180Y-822960D02*
D03*
X668020Y-821690D02*
D03*
X779780Y-820420D02*
D03*
X716280Y-107950D02*
D03*
X720090Y-124460D02*
D03*
X716280Y-162560D02*
D03*
X720090Y-182880D02*
D03*
X716280Y-223520D02*
D03*
X720090Y-242570D02*
D03*
X716280Y-283210D02*
D03*
X720090Y-303530D02*
D03*
X716280Y-342900D02*
D03*
X720090Y-363220D02*
D03*
X716280Y-402590D02*
D03*
X720090Y-422910D02*
D03*
X716280Y-463550D02*
D03*
X720090Y-482600D02*
D03*
X716280Y-523240D02*
D03*
X720090Y-542290D02*
D03*
X717550Y-579120D02*
D03*
X720090Y-600710D02*
D03*
X716280Y-643890D02*
D03*
X720090Y-662940D02*
D03*
X716280Y-702310D02*
D03*
X720090Y-723900D02*
D03*
X716280Y-762000D02*
D03*
X720090Y-782320D02*
D03*
X495300Y-107950D02*
D03*
X499110Y-125730D02*
D03*
X495300Y-162560D02*
D03*
X499110Y-182880D02*
D03*
X495300Y-223520D02*
D03*
X499110Y-242570D02*
D03*
X495300Y-283210D02*
D03*
X499110Y-303530D02*
D03*
X495300Y-342900D02*
D03*
X499110Y-363220D02*
D03*
X495300Y-403860D02*
D03*
X499110Y-424180D02*
D03*
X495300Y-463550D02*
D03*
X499110Y-485140D02*
D03*
X495300Y-523240D02*
D03*
X499110Y-543560D02*
D03*
X495300Y-582930D02*
D03*
X499110Y-601980D02*
D03*
X495300Y-642620D02*
D03*
X499110Y-662940D02*
D03*
X495300Y-702310D02*
D03*
X499110Y-721360D02*
D03*
X495300Y-764540D02*
D03*
X499110Y-782320D02*
D03*
X276860Y-106680D02*
D03*
X280670Y-124460D02*
D03*
X276860Y-163830D02*
D03*
X280670Y-182880D02*
D03*
X276860Y-223520D02*
D03*
X280670Y-241300D02*
D03*
X276860Y-284480D02*
D03*
X280670Y-302260D02*
D03*
X276860Y-344170D02*
D03*
X280670Y-363220D02*
D03*
X276860Y-402590D02*
D03*
X280670Y-421640D02*
D03*
X276860Y-463550D02*
D03*
X280670Y-483870D02*
D03*
X276860Y-523240D02*
D03*
X280670Y-543560D02*
D03*
X276860Y-582930D02*
D03*
X280670Y-601980D02*
D03*
X276860Y-642620D02*
D03*
X280670Y-662940D02*
D03*
X276860Y-702310D02*
D03*
X280670Y-723900D02*
D03*
X276860Y-763270D02*
D03*
X280670Y-782320D02*
D03*
X59690Y-107950D02*
D03*
X62230Y-124460D02*
D03*
X59690Y-163830D02*
D03*
X62230Y-184150D02*
D03*
X59690Y-223520D02*
D03*
X62230Y-242570D02*
D03*
X59690Y-283210D02*
D03*
X62230Y-302260D02*
D03*
X59690Y-344170D02*
D03*
X62230Y-363220D02*
D03*
X59690Y-402590D02*
D03*
X62230Y-421640D02*
D03*
X59690Y-463550D02*
D03*
X62230Y-482600D02*
D03*
X59690Y-523240D02*
D03*
X62230Y-541020D02*
D03*
X59690Y-582930D02*
D03*
X62230Y-601980D02*
D03*
X59690Y-642620D02*
D03*
X62230Y-662940D02*
D03*
X541020Y-577850D02*
D03*
X59969Y-702659D02*
D03*
X62509Y-722979D02*
D03*
X62230Y-782320D02*
D03*
X60960Y-763270D02*
D03*
X546100Y-692150D02*
D03*
X904240Y-805180D02*
D03*
X922020Y-806450D02*
D03*
X891540Y-816610D02*
D03*
X547370Y-645160D02*
D03*
X642640Y-608249D02*
D03*
X785795Y-452541D02*
D03*
X827705Y-526200D02*
D03*
X807385Y-552870D02*
D03*
X776905Y-470321D02*
D03*
X636690Y-634065D02*
D03*
X638810Y-619760D02*
D03*
X635000Y-646430D02*
D03*
X546100Y-633730D02*
D03*
X543560Y-619760D02*
D03*
X546521Y-607395D02*
D03*
X615950Y-707390D02*
D03*
X600397Y-713307D02*
D03*
X588010Y-712470D02*
D03*
X572770Y-709930D02*
D03*
X559460Y-693127D02*
D03*
X534670Y-676910D02*
D03*
X523240Y-671830D02*
D03*
M02*
