G04*
G04 #@! TF.GenerationSoftware,Altium Limited,Altium Designer,24.7.2 (38)*
G04*
G04 Layer_Physical_Order=1*
G04 Layer_Color=255*
%FSLAX44Y44*%
%MOMM*%
G71*
G04*
G04 #@! TF.SameCoordinates,4798D7E4-1403-4A70-8607-6B62460FE5A0*
G04*
G04*
G04 #@! TF.FilePolarity,Positive*
G04*
G01*
G75*
%ADD11C,0.2540*%
%ADD14R,1.4700X1.1600*%
%ADD15R,1.1600X1.4700*%
%ADD16R,0.9800X0.9300*%
%ADD17R,0.9300X0.9800*%
%ADD18R,0.7000X0.7000*%
%ADD19R,0.7000X0.7000*%
%ADD34C,0.1524*%
%ADD35C,0.3810*%
%ADD36C,0.5080*%
%ADD37O,3.0000X4.0000*%
%ADD38C,2.7000*%
%ADD39C,1.9000*%
%ADD40R,1.9000X1.9000*%
%ADD41O,2.0000X1.6000*%
%ADD42R,2.0000X1.6000*%
%ADD43C,0.7620*%
%ADD44C,3.8100*%
D11*
X55880Y-913140D02*
X58420D01*
X25400D02*
X55880D01*
D14*
X25400Y-895340D02*
D03*
Y-913140D02*
D03*
X713740D02*
D03*
Y-895340D02*
D03*
X683260Y-913140D02*
D03*
Y-895340D02*
D03*
X274320Y-913140D02*
D03*
Y-895340D02*
D03*
X55880Y-913140D02*
D03*
Y-895340D02*
D03*
X464820Y-913140D02*
D03*
Y-895340D02*
D03*
X243840Y-913140D02*
D03*
Y-895340D02*
D03*
X495300Y-913140D02*
D03*
Y-895340D02*
D03*
D15*
X483880Y-807720D02*
D03*
X466080D02*
D03*
X266700D02*
D03*
X248900D02*
D03*
X704860D02*
D03*
X687060D02*
D03*
X47000D02*
D03*
X29200D02*
D03*
D16*
X154940Y-845900D02*
D03*
Y-830500D02*
D03*
X228600Y-845900D02*
D03*
Y-830500D02*
D03*
X375920Y-845900D02*
D03*
Y-830500D02*
D03*
X454660Y-845900D02*
D03*
Y-830500D02*
D03*
X594360Y-845900D02*
D03*
Y-830500D02*
D03*
X680720Y-845900D02*
D03*
Y-830500D02*
D03*
X815340Y-845900D02*
D03*
Y-830500D02*
D03*
X891540Y-845900D02*
D03*
Y-830500D02*
D03*
D17*
X251380Y-782320D02*
D03*
X266780D02*
D03*
X251380Y-723900D02*
D03*
X266780D02*
D03*
X251380Y-601980D02*
D03*
X266780D02*
D03*
X251380Y-662940D02*
D03*
X266780D02*
D03*
X251380Y-543560D02*
D03*
X266780D02*
D03*
X251380Y-482600D02*
D03*
X266780D02*
D03*
X251380Y-302260D02*
D03*
X266780D02*
D03*
X251380Y-363220D02*
D03*
X266780D02*
D03*
X251380Y-241300D02*
D03*
X266780D02*
D03*
X251380Y-182880D02*
D03*
X266780D02*
D03*
X251380Y-124460D02*
D03*
X266780D02*
D03*
X251380Y-421640D02*
D03*
X266780D02*
D03*
X706200Y-482600D02*
D03*
X690800D02*
D03*
X706200Y-542290D02*
D03*
X690800D02*
D03*
X469740Y-782320D02*
D03*
X485140D02*
D03*
X469740Y-723900D02*
D03*
X485140D02*
D03*
X469740Y-662940D02*
D03*
X485140D02*
D03*
X469740Y-601980D02*
D03*
X485140D02*
D03*
X469820Y-485140D02*
D03*
X485220D02*
D03*
X469820Y-543560D02*
D03*
X485220D02*
D03*
X690800Y-782320D02*
D03*
X706200D02*
D03*
X690800Y-723900D02*
D03*
X706200D02*
D03*
Y-363220D02*
D03*
X690800D02*
D03*
X706200Y-303530D02*
D03*
X690800D02*
D03*
X706200Y-241300D02*
D03*
X690800D02*
D03*
X706200Y-182880D02*
D03*
X690800D02*
D03*
X706200Y-124460D02*
D03*
X690800D02*
D03*
X706200Y-422910D02*
D03*
X690800D02*
D03*
X469740Y-303530D02*
D03*
X485140D02*
D03*
X469820Y-422910D02*
D03*
X485220D02*
D03*
X469740Y-363220D02*
D03*
X485140D02*
D03*
X469740Y-242570D02*
D03*
X485140D02*
D03*
X469740Y-182880D02*
D03*
X485140D02*
D03*
X469740Y-124460D02*
D03*
X485140D02*
D03*
X690800Y-601980D02*
D03*
X706200D02*
D03*
X690800Y-662940D02*
D03*
X706200D02*
D03*
X48260Y-723900D02*
D03*
X32860D02*
D03*
Y-662940D02*
D03*
X48260D02*
D03*
X32860Y-601980D02*
D03*
X48260D02*
D03*
X32860Y-782320D02*
D03*
X48260D02*
D03*
X32860Y-541020D02*
D03*
X48260D02*
D03*
X32860Y-482600D02*
D03*
X48260D02*
D03*
X32860Y-363220D02*
D03*
X48260D02*
D03*
X32860Y-302260D02*
D03*
X48260D02*
D03*
X32860Y-421640D02*
D03*
X48260D02*
D03*
X32860Y-241300D02*
D03*
X48260D02*
D03*
X32860Y-182880D02*
D03*
X48260D02*
D03*
X32860Y-124460D02*
D03*
X48260D02*
D03*
D18*
X254000Y-744468D02*
D03*
X265000D02*
D03*
Y-762768D02*
D03*
X254000D02*
D03*
X472440Y-744468D02*
D03*
X483440D02*
D03*
Y-762768D02*
D03*
X472440D02*
D03*
X253580Y-702570D02*
D03*
X264580D02*
D03*
Y-684270D02*
D03*
X253580D02*
D03*
X254000Y-624534D02*
D03*
X265000D02*
D03*
Y-642834D02*
D03*
X254000D02*
D03*
X472440Y-702801D02*
D03*
X483440D02*
D03*
Y-684501D02*
D03*
X472440D02*
D03*
Y-624534D02*
D03*
X483440D02*
D03*
Y-642834D02*
D03*
X472440D02*
D03*
Y-582867D02*
D03*
X483440D02*
D03*
Y-564567D02*
D03*
X472440D02*
D03*
X254000Y-582867D02*
D03*
X265000D02*
D03*
Y-564567D02*
D03*
X254000D02*
D03*
Y-504600D02*
D03*
X265000D02*
D03*
Y-522900D02*
D03*
X254000D02*
D03*
X472440Y-504600D02*
D03*
X483440D02*
D03*
Y-522900D02*
D03*
X472440D02*
D03*
Y-384665D02*
D03*
X483440D02*
D03*
Y-402966D02*
D03*
X472440D02*
D03*
Y-342998D02*
D03*
X483440D02*
D03*
Y-324698D02*
D03*
X472440D02*
D03*
Y-264731D02*
D03*
X483440D02*
D03*
Y-283031D02*
D03*
X472440D02*
D03*
X254000Y-264731D02*
D03*
X265000D02*
D03*
Y-283031D02*
D03*
X254000D02*
D03*
Y-384665D02*
D03*
X265000D02*
D03*
Y-402966D02*
D03*
X254000D02*
D03*
Y-342998D02*
D03*
X265000D02*
D03*
Y-324698D02*
D03*
X254000D02*
D03*
Y-223064D02*
D03*
X265000D02*
D03*
Y-204764D02*
D03*
X254000D02*
D03*
X472440Y-223064D02*
D03*
X483440D02*
D03*
Y-204764D02*
D03*
X472440D02*
D03*
X254000Y-462933D02*
D03*
X265000D02*
D03*
Y-444633D02*
D03*
X254000D02*
D03*
X693420Y-582867D02*
D03*
X704420D02*
D03*
Y-564567D02*
D03*
X693420D02*
D03*
Y-504600D02*
D03*
X704420D02*
D03*
Y-522900D02*
D03*
X693420D02*
D03*
Y-744468D02*
D03*
X704420D02*
D03*
Y-762768D02*
D03*
X693420D02*
D03*
Y-702801D02*
D03*
X704420D02*
D03*
Y-684501D02*
D03*
X693420D02*
D03*
Y-624534D02*
D03*
X704420D02*
D03*
Y-642834D02*
D03*
X693420D02*
D03*
Y-384665D02*
D03*
X704420D02*
D03*
Y-402966D02*
D03*
X693420D02*
D03*
Y-264731D02*
D03*
X704420D02*
D03*
Y-283031D02*
D03*
X693420D02*
D03*
Y-342998D02*
D03*
X704420D02*
D03*
Y-324698D02*
D03*
X693420D02*
D03*
Y-163097D02*
D03*
X704420D02*
D03*
Y-144797D02*
D03*
X693420D02*
D03*
Y-223064D02*
D03*
X704420D02*
D03*
Y-204764D02*
D03*
X693420D02*
D03*
Y-103130D02*
D03*
X704420D02*
D03*
Y-84830D02*
D03*
X693420D02*
D03*
Y-462933D02*
D03*
X704420D02*
D03*
Y-444633D02*
D03*
X693420D02*
D03*
X472440Y-462933D02*
D03*
X483440D02*
D03*
Y-444633D02*
D03*
X472440D02*
D03*
Y-163097D02*
D03*
X483440D02*
D03*
Y-144797D02*
D03*
X472440D02*
D03*
Y-103130D02*
D03*
X483440D02*
D03*
Y-84830D02*
D03*
X472440D02*
D03*
X36410Y-702801D02*
D03*
X47410D02*
D03*
Y-684501D02*
D03*
X36410D02*
D03*
Y-624534D02*
D03*
X47410D02*
D03*
Y-642834D02*
D03*
X36410D02*
D03*
Y-744468D02*
D03*
X47410D02*
D03*
Y-762768D02*
D03*
X36410D02*
D03*
Y-582867D02*
D03*
X47410D02*
D03*
Y-564567D02*
D03*
X36410D02*
D03*
Y-504600D02*
D03*
X47410D02*
D03*
Y-522900D02*
D03*
X36410D02*
D03*
Y-384665D02*
D03*
X47410D02*
D03*
Y-402966D02*
D03*
X36410D02*
D03*
Y-342998D02*
D03*
X47410D02*
D03*
Y-324698D02*
D03*
X36410D02*
D03*
Y-264731D02*
D03*
X47410D02*
D03*
Y-283031D02*
D03*
X36410D02*
D03*
Y-223064D02*
D03*
X47410D02*
D03*
Y-204764D02*
D03*
X36410D02*
D03*
Y-163097D02*
D03*
X47410D02*
D03*
Y-144797D02*
D03*
X36410D02*
D03*
Y-103130D02*
D03*
X47410D02*
D03*
Y-84830D02*
D03*
X36410D02*
D03*
X254000Y-163097D02*
D03*
X265000D02*
D03*
Y-144797D02*
D03*
X254000D02*
D03*
Y-103130D02*
D03*
X265000D02*
D03*
Y-84830D02*
D03*
X254000D02*
D03*
X36410Y-462933D02*
D03*
X47410D02*
D03*
Y-444633D02*
D03*
X36410D02*
D03*
D19*
X639070Y-843275D02*
D03*
Y-832275D02*
D03*
X620770D02*
D03*
Y-843275D02*
D03*
X415550D02*
D03*
Y-832275D02*
D03*
X397250D02*
D03*
Y-843275D02*
D03*
X194570D02*
D03*
Y-832275D02*
D03*
X176270D02*
D03*
Y-843275D02*
D03*
X101080D02*
D03*
Y-832275D02*
D03*
X119380D02*
D03*
Y-843275D02*
D03*
X319520D02*
D03*
Y-832275D02*
D03*
X337820D02*
D03*
Y-843275D02*
D03*
X540500D02*
D03*
Y-832275D02*
D03*
X558800D02*
D03*
Y-843275D02*
D03*
X760470D02*
D03*
Y-832275D02*
D03*
X778770D02*
D03*
Y-843275D02*
D03*
X854970D02*
D03*
Y-832275D02*
D03*
X836670D02*
D03*
Y-843275D02*
D03*
D34*
X47000Y-807678D02*
X52038Y-802640D01*
X118150D02*
X132040Y-788750D01*
X52038Y-802640D02*
X118150D01*
X47000Y-807720D02*
Y-807678D01*
X371862Y-826692D02*
X375920D01*
X361950Y-820420D02*
X363116Y-821586D01*
X366756D02*
X371862Y-826692D01*
X363116Y-821586D02*
X366756D01*
X560070Y-831772D02*
X561340Y-830502D01*
Y-820420D01*
X603524Y-821586D02*
X605894D01*
X598170Y-826940D02*
X603524Y-821586D01*
X605894D02*
X607060Y-820420D01*
X640080Y-831772D02*
Y-820420D01*
X815510Y-845820D02*
X825670Y-855980D01*
X826770D01*
Y-819320D02*
Y-819150D01*
X815340Y-826692D02*
X819398D01*
X826770Y-819320D01*
X854710Y-823340D02*
X855980Y-822070D01*
X854710Y-831772D02*
Y-823340D01*
X855980Y-822070D02*
Y-820420D01*
X899160Y-505460D02*
X934720D01*
X810260Y-416560D02*
X899160Y-505460D01*
X810260Y-416560D02*
Y-330200D01*
X337820Y-831772D02*
Y-826770D01*
X342900Y-821690D01*
X332357Y-807720D02*
X351327Y-788750D01*
X266700Y-807720D02*
X332357D01*
X143510Y-819320D02*
X150882Y-826692D01*
X143510Y-819320D02*
Y-819150D01*
X150882Y-826692D02*
X154940D01*
X119380Y-830502D02*
Y-820420D01*
X195580Y-830502D02*
Y-820420D01*
X228600Y-826692D02*
Y-816610D01*
X450850Y-826692D02*
Y-816610D01*
X416560Y-831265D02*
X424180Y-823645D01*
X416560Y-833042D02*
Y-831265D01*
X424180Y-823645D02*
Y-822960D01*
X676740Y-826770D02*
X683338D01*
X669186Y-822856D02*
X672826D01*
X668020Y-821690D02*
X669186Y-822856D01*
X672826D02*
X676740Y-826770D01*
X779780Y-830502D02*
Y-820420D01*
X714630Y-107950D02*
X716280D01*
X706198Y-105410D02*
X706656Y-105868D01*
X712549D01*
X714630Y-107950D01*
X710008Y-124460D02*
X720090D01*
X706198Y-162560D02*
X716280D01*
X710008Y-182880D02*
X720090D01*
X706198Y-223520D02*
X716280D01*
X710008Y-242570D02*
X720090D01*
X706198Y-283210D02*
X716280D01*
X710008Y-303530D02*
X720090D01*
X706198Y-342900D02*
X716280D01*
X710008Y-363220D02*
X720090D01*
X706198Y-402590D02*
X716280D01*
X710008Y-422910D02*
X720090D01*
X706198Y-463550D02*
X716280D01*
X710008Y-482600D02*
X720090D01*
X706198Y-523240D02*
X716280D01*
X710008Y-542290D02*
X720090D01*
X704928Y-582930D02*
X712739D01*
X716549Y-579120D01*
X717550D01*
X708738Y-601980D02*
X713232D01*
X719582Y-601218D02*
X720090Y-600710D01*
X713994Y-601218D02*
X719582D01*
X713232Y-601980D02*
X713994Y-601218D01*
X706198Y-643890D02*
X716280D01*
X710038Y-662940D02*
X720090D01*
X706198Y-702310D02*
X716280D01*
X710008Y-723900D02*
X720090D01*
X706198Y-762000D02*
X716280D01*
X710008Y-782320D02*
X720090D01*
X493650Y-107950D02*
X495300D01*
X483948Y-105410D02*
X484406Y-105868D01*
X491568D01*
X493650Y-107950D01*
X489028Y-125730D02*
X499110D01*
X485218Y-162560D02*
X495300D01*
X489028Y-182880D02*
X499110D01*
X485218Y-224790D02*
Y-224480D01*
X486178Y-223520D01*
X495300D01*
X489028Y-242570D02*
X499110D01*
X486488Y-283210D02*
X495300D01*
X489028Y-303530D02*
X499110D01*
X485218Y-342900D02*
X495300D01*
X489028Y-363220D02*
X499110D01*
X485218Y-403860D02*
X495300D01*
X489028Y-424180D02*
X499110D01*
X485218Y-463550D02*
X495300D01*
X489028Y-485140D02*
X499110D01*
X485218Y-523240D02*
X495300D01*
X489028Y-543560D02*
X499110D01*
X483948Y-582930D02*
X495300D01*
X487758Y-601980D02*
X499110D01*
X485218Y-642620D02*
X495300D01*
X487758Y-662940D02*
X499110D01*
X485218Y-702310D02*
X495300D01*
X497460Y-721360D02*
X499110D01*
X494920Y-723900D02*
X497460Y-721360D01*
X489028Y-723900D02*
X494920D01*
X483948Y-764540D02*
X495300D01*
X482678Y-763270D02*
X483948Y-764540D01*
X457096Y-791314D02*
Y-788774D01*
X463550Y-782320D01*
X455930Y-792480D02*
X457096Y-791314D01*
X489028Y-782320D02*
X499110D01*
X266778Y-104908D02*
X267738Y-105868D01*
X276048D02*
X276860Y-106680D01*
X266778Y-104908D02*
Y-104140D01*
X267738Y-105868D02*
X276048D01*
X265000Y-84830D02*
X367450Y-187280D01*
Y-233680D02*
Y-187280D01*
X270588Y-124460D02*
X280670D01*
X266778Y-163830D02*
X276860D01*
X270588Y-182880D02*
X280670D01*
X266778Y-223520D02*
X276860D01*
X270588Y-241300D02*
X280670D01*
X266778Y-284480D02*
X276860D01*
X270588Y-302260D02*
X280670D01*
X266778Y-344170D02*
X276860D01*
X270588Y-363220D02*
X280670D01*
X266778Y-402590D02*
X276860D01*
X270588Y-421640D02*
X280670D01*
X266778Y-463550D02*
X276860D01*
X270588Y-483870D02*
X280670D01*
X266778Y-523240D02*
X276860D01*
X270588Y-543560D02*
X280670D01*
X266778Y-582930D02*
X276860D01*
X270588Y-601980D02*
X280670D01*
X266778Y-642620D02*
X276860D01*
X270588Y-662940D02*
X280670D01*
X266778Y-702310D02*
X276860D01*
X270588Y-723900D02*
X280670D01*
X266778Y-763270D02*
X276860D01*
X270588Y-782320D02*
X280670D01*
X49608Y-105410D02*
X50066Y-105868D01*
X55958D01*
X58040Y-107950D01*
X59690D01*
X149860Y-233680D02*
Y-187280D01*
X47410Y-84830D02*
X149860Y-187280D01*
X52148Y-124460D02*
X62230D01*
X49608Y-163830D02*
X59690D01*
X52148Y-184150D02*
X62230D01*
X49608Y-223520D02*
X59690D01*
X52148Y-242570D02*
X62230D01*
X49608Y-283210D02*
X59690D01*
X52148Y-302260D02*
X62230D01*
X49608Y-344170D02*
X59690D01*
X52148Y-363220D02*
X62230D01*
X49608Y-402590D02*
X59690D01*
X52148Y-421640D02*
X62230D01*
X49608Y-463550D02*
X59690D01*
X52148Y-482600D02*
X62230D01*
X49608Y-523240D02*
X59690D01*
X52148Y-541020D02*
X62230D01*
X49608Y-582930D02*
X59690D01*
X52148Y-601980D02*
X62230D01*
X49608Y-642620D02*
X59690D01*
X52148Y-662940D02*
X62230D01*
X49887Y-702659D02*
X59969D01*
X52427Y-722979D02*
X62509D01*
X51038Y-781210D02*
Y-779452D01*
Y-781210D02*
X52148Y-782320D01*
X62230D01*
X28972D02*
X30146Y-781146D01*
Y-781045D01*
X19050Y-782320D02*
X28972D01*
X12700Y-820420D02*
X24555Y-832275D01*
X12700Y-820420D02*
Y-777240D01*
X26437Y-763503D01*
X35675D01*
X51038Y-764212D02*
X60018D01*
X60960Y-763270D01*
X488918Y-801132D02*
X558231D01*
X570613Y-788750D01*
X483880Y-806170D02*
X488918Y-801132D01*
X483880Y-807720D02*
Y-806170D01*
X546100Y-692150D02*
Y-675640D01*
X24555Y-832275D02*
X101080D01*
X689610Y-881130D02*
X699750Y-870990D01*
X748030D01*
X684810Y-895340D02*
X689610Y-890540D01*
Y-881130D01*
X50864Y-916606D02*
X56417D01*
X704860Y-807720D02*
X770930D01*
X789900Y-788750D01*
X693420Y-103130D02*
X698500Y-108210D01*
Y-138877D02*
Y-108210D01*
Y-138877D02*
X704420Y-144797D01*
X698500Y-198844D02*
Y-168177D01*
X693420Y-163097D02*
X698500Y-168177D01*
Y-198844D02*
X704420Y-204764D01*
X698500Y-258811D02*
Y-228144D01*
Y-258811D02*
X704420Y-264731D01*
X693420Y-223064D02*
X698500Y-228144D01*
X693420Y-283031D02*
X698500Y-288111D01*
Y-318778D02*
X704420Y-324698D01*
X698500Y-318778D02*
Y-288111D01*
X693420Y-402966D02*
X693609Y-403154D01*
Y-407859D02*
X698500Y-412750D01*
X693609Y-407859D02*
Y-403154D01*
X698500Y-438713D02*
Y-412750D01*
Y-378745D02*
Y-348078D01*
X693420Y-342998D02*
X698500Y-348078D01*
Y-378745D02*
X704420Y-384665D01*
X698500Y-438713D02*
X704420Y-444633D01*
X698500Y-498680D02*
X704420Y-504600D01*
X693420Y-462933D02*
X698500Y-468013D01*
Y-498680D02*
Y-468013D01*
X693420Y-522900D02*
X698500Y-527980D01*
Y-558647D02*
X704420Y-564567D01*
X698500Y-558647D02*
Y-527980D01*
Y-618614D02*
Y-587947D01*
Y-618614D02*
X704420Y-624534D01*
X693420Y-582867D02*
X698500Y-587947D01*
Y-678581D02*
X704420Y-684501D01*
X693420Y-642834D02*
X698500Y-647914D01*
Y-678581D02*
Y-647914D01*
Y-738548D02*
Y-707881D01*
X693420Y-702801D02*
X698500Y-707881D01*
Y-738548D02*
X704420Y-744468D01*
X477520Y-138877D02*
Y-108210D01*
X472440Y-103130D02*
X477520Y-108210D01*
Y-138877D02*
X483440Y-144797D01*
X472440Y-163097D02*
X477520Y-168177D01*
Y-198844D02*
X483440Y-204764D01*
X477520Y-198844D02*
Y-168177D01*
X472440Y-223064D02*
X477520Y-228144D01*
Y-258811D02*
X483440Y-264731D01*
X477520Y-258811D02*
Y-228144D01*
Y-318778D02*
Y-288111D01*
X472440Y-283031D02*
X477520Y-288111D01*
Y-318778D02*
X483440Y-324698D01*
X477520Y-378745D02*
Y-348078D01*
X472440Y-342998D02*
X477520Y-348078D01*
Y-378745D02*
X483440Y-384665D01*
X472440Y-402966D02*
X477520Y-408046D01*
Y-438713D02*
X483440Y-444633D01*
X477520Y-438713D02*
Y-408046D01*
X472440Y-464820D02*
X477520Y-469900D01*
Y-498680D02*
Y-469900D01*
Y-498680D02*
X483440Y-504600D01*
X477520Y-558647D02*
X483440Y-564567D01*
X472440Y-522900D02*
X477520Y-527980D01*
Y-558647D02*
Y-527980D01*
Y-618614D02*
X483440Y-624534D01*
X472440Y-582867D02*
X477520Y-587947D01*
Y-618614D02*
Y-587947D01*
X472440Y-642834D02*
X477520Y-647914D01*
Y-678581D02*
X483440Y-684501D01*
X477520Y-678581D02*
Y-647914D01*
Y-738548D02*
X483440Y-744468D01*
X472440Y-702801D02*
X477520Y-707881D01*
Y-738548D02*
Y-707881D01*
X254000Y-103130D02*
X259080Y-108210D01*
Y-138877D02*
X265000Y-144797D01*
X259080Y-138877D02*
Y-108210D01*
X254000Y-163097D02*
X259080Y-168177D01*
Y-198844D02*
X265000Y-204764D01*
X259080Y-198844D02*
Y-168177D01*
Y-258811D02*
X265000Y-264731D01*
X254000Y-223064D02*
X259080Y-228144D01*
Y-258811D02*
Y-228144D01*
Y-318778D02*
X265000Y-324698D01*
X254000Y-283031D02*
X259080Y-288111D01*
Y-318778D02*
Y-288111D01*
Y-378745D02*
X265000Y-384665D01*
X254000Y-342998D02*
X259080Y-348078D01*
Y-378745D02*
Y-348078D01*
X254000Y-402966D02*
X259080Y-408046D01*
Y-438713D02*
X265000Y-444633D01*
X259080Y-438713D02*
Y-408046D01*
Y-498680D02*
Y-468013D01*
X254000Y-462933D02*
X259080Y-468013D01*
Y-498680D02*
X265000Y-504600D01*
X254000Y-522900D02*
X259080Y-527980D01*
Y-558647D02*
Y-527980D01*
Y-558647D02*
X265000Y-564567D01*
X259080Y-618614D02*
X265000Y-624534D01*
X254000Y-582867D02*
X259080Y-587947D01*
Y-618614D02*
Y-587947D01*
Y-678770D02*
Y-647914D01*
X254000Y-642834D02*
X259080Y-647914D01*
Y-678770D02*
X264580Y-684270D01*
X253580Y-702570D02*
X259080Y-708070D01*
Y-738548D02*
Y-708070D01*
Y-738548D02*
X265000Y-744468D01*
X566425Y-843275D02*
X571500Y-838200D01*
X614845D02*
X620770Y-832275D01*
X571500Y-838200D02*
X614845D01*
X431800D02*
X534575D01*
X426725Y-843275D02*
X431800Y-838200D01*
X534575D02*
X540500Y-832275D01*
X342905Y-843275D02*
X347980Y-838200D01*
X391325D02*
X397250Y-832275D01*
X347980Y-838200D02*
X391325D01*
X313595D02*
X319520Y-832275D01*
X201527Y-843275D02*
X206602Y-838200D01*
X313595D01*
X119380Y-843275D02*
X124455Y-838200D01*
X170345D02*
X176270Y-832275D01*
X124455Y-838200D02*
X170345D01*
X40640Y-737698D02*
X47410Y-744468D01*
X36410Y-702801D02*
X40640Y-707031D01*
Y-737698D02*
Y-707031D01*
Y-138027D02*
Y-107360D01*
X36410Y-103130D02*
X40640Y-107360D01*
Y-138027D02*
X47410Y-144797D01*
X36410Y-163097D02*
X40640Y-167327D01*
Y-197994D02*
X47410Y-204764D01*
X40640Y-197994D02*
Y-167327D01*
Y-257961D02*
X47410Y-264731D01*
X36410Y-223064D02*
X40640Y-227294D01*
Y-257961D02*
Y-227294D01*
X36410Y-283031D02*
X40640Y-287261D01*
Y-317928D02*
Y-287261D01*
Y-317928D02*
X47410Y-324698D01*
X40640Y-377896D02*
Y-347228D01*
X36410Y-342998D02*
X40640Y-347228D01*
Y-377896D02*
X47410Y-384665D01*
X36410Y-402966D02*
X40640Y-407196D01*
Y-437863D02*
X47410Y-444633D01*
X40640Y-437863D02*
Y-407196D01*
Y-497830D02*
Y-467163D01*
X36410Y-462933D02*
X40640Y-467163D01*
Y-497830D02*
X47410Y-504600D01*
X36410Y-522900D02*
X40640Y-527130D01*
Y-557797D02*
X47410Y-564567D01*
X40640Y-557797D02*
Y-527130D01*
X36410Y-582867D02*
X40640Y-587097D01*
Y-617764D02*
X47410Y-624534D01*
X40640Y-617764D02*
Y-587097D01*
X36410Y-642834D02*
X40640Y-647064D01*
Y-677731D02*
X47410Y-684501D01*
X40640Y-677731D02*
Y-647064D01*
X647700Y-838200D02*
X754545D01*
X645363Y-840537D02*
X647700Y-838200D01*
X754545D02*
X760470Y-832275D01*
X641808Y-840537D02*
X645363D01*
X831777Y-834463D02*
X834482D01*
X789940Y-838200D02*
X828040D01*
X834482Y-834463D02*
X836670Y-832275D01*
X828040Y-838200D02*
X831777Y-834463D01*
X784865Y-843275D02*
X789940Y-838200D01*
X891540Y-830500D02*
Y-816610D01*
X903140Y-857250D02*
X904240D01*
X892476Y-846586D02*
X903140Y-857250D01*
X914400Y-862330D02*
Y-747300D01*
X910590Y-866140D02*
X914400Y-862330D01*
Y-747300D02*
X932720Y-728980D01*
X891540Y-866140D02*
X910590D01*
X854970Y-843275D02*
X868675D01*
X891540Y-866140D01*
X892476Y-846586D02*
Y-841473D01*
X932720Y-728980D02*
X934720D01*
X685901Y-82092D02*
X690682D01*
X682041Y-78232D02*
X685901Y-82092D01*
Y-142059D02*
X690682D01*
X682041Y-138199D02*
X685901Y-142059D01*
Y-202026D02*
X690682D01*
X682041Y-198166D02*
X685901Y-202026D01*
X685507Y-262596D02*
X690288D01*
X681647Y-258736D02*
X685507Y-262596D01*
X685901Y-321960D02*
X690682D01*
X682041Y-318100D02*
X685901Y-321960D01*
Y-381927D02*
X690682D01*
X682041Y-378068D02*
X685901Y-381927D01*
Y-441894D02*
X690682D01*
X682041Y-438035D02*
X685901Y-441894D01*
Y-501862D02*
X690682D01*
X682041Y-498002D02*
X685901Y-501862D01*
Y-561829D02*
X690682D01*
X682041Y-557969D02*
X685901Y-561829D01*
Y-621796D02*
X690682D01*
X682041Y-617936D02*
X685901Y-621796D01*
Y-681763D02*
X690682D01*
X682041Y-677903D02*
X685901Y-681763D01*
Y-741730D02*
X690682D01*
X682041Y-737870D02*
X685901Y-741730D01*
X464921D02*
X469702D01*
X461061Y-737870D02*
X464921Y-741730D01*
Y-681763D02*
X469702D01*
X461061Y-677903D02*
X464921Y-681763D01*
Y-621796D02*
X469702D01*
X461061Y-617936D02*
X464921Y-621796D01*
Y-561829D02*
X469702D01*
X461061Y-557969D02*
X464921Y-561829D01*
Y-501862D02*
X469702D01*
X461061Y-498002D02*
X464921Y-501862D01*
Y-441894D02*
X469702D01*
X461061Y-438035D02*
X464921Y-441894D01*
Y-381927D02*
X469702D01*
X461061Y-378068D02*
X464921Y-381927D01*
Y-321960D02*
X469702D01*
X461061Y-318100D02*
X464921Y-321960D01*
Y-261993D02*
X469702D01*
X461061Y-258133D02*
X464921Y-261993D01*
Y-202026D02*
X469702D01*
X461061Y-198166D02*
X464921Y-202026D01*
Y-142059D02*
X469702D01*
X461061Y-138199D02*
X464921Y-142059D01*
Y-82092D02*
X469702D01*
X461061Y-78232D02*
X464921Y-82092D01*
X246481D02*
X251262D01*
X242621Y-78232D02*
X246481Y-82092D01*
Y-142059D02*
X251262D01*
X242621Y-138199D02*
X246481Y-142059D01*
Y-202026D02*
X251262D01*
X242621Y-198166D02*
X246481Y-202026D01*
Y-261993D02*
X251262D01*
X242621Y-258133D02*
X246481Y-261993D01*
Y-321960D02*
X251262D01*
X242621Y-318100D02*
X246481Y-321960D01*
Y-381927D02*
X251262D01*
X242621Y-378068D02*
X246481Y-381927D01*
Y-441894D02*
X251262D01*
X242621Y-438035D02*
X246481Y-441894D01*
Y-501862D02*
X251262D01*
X242621Y-498002D02*
X246481Y-501862D01*
Y-561829D02*
X251262D01*
X242621Y-557969D02*
X246481Y-561829D01*
Y-621796D02*
X251262D01*
X242621Y-617936D02*
X246481Y-621796D01*
X246061Y-681532D02*
X250842D01*
X242201Y-677672D02*
X246061Y-681532D01*
X246481Y-741730D02*
X251262D01*
X242621Y-737870D02*
X246481Y-741730D01*
X25031Y-318100D02*
X28891Y-321960D01*
X33672D01*
X675720Y-124460D02*
X692433D01*
X675720Y-182880D02*
X692433D01*
X675720Y-241300D02*
X692433D01*
X675720Y-303530D02*
X692433D01*
X675720Y-363220D02*
X692433D01*
X675720Y-422910D02*
X692433D01*
X675720Y-482600D02*
X692433D01*
X675720Y-542290D02*
X692433D01*
X675720Y-601980D02*
X692433D01*
X675720Y-662940D02*
X692433D01*
X675720Y-723900D02*
X692433D01*
X675720Y-782320D02*
X692433D01*
X454660Y-124460D02*
X471373D01*
X454660Y-182880D02*
X471373D01*
X454660Y-242570D02*
X471373D01*
X454660Y-303530D02*
X471373D01*
X454660Y-363220D02*
X471373D01*
X454740Y-422910D02*
X471454D01*
X454740Y-485140D02*
X471454D01*
X454740Y-543560D02*
X471454D01*
X454660Y-601980D02*
X471373D01*
X454660Y-662940D02*
X471373D01*
X454660Y-723900D02*
X471373D01*
X463550Y-782320D02*
X471373D01*
X466454Y-814070D02*
X467724Y-812800D01*
X236300Y-124460D02*
X253013D01*
X236300Y-182880D02*
X253013D01*
X236300Y-241300D02*
X253013D01*
X236300Y-302260D02*
X253013D01*
X236300Y-363220D02*
X253013D01*
X236300Y-421640D02*
X253013D01*
X236300Y-482600D02*
X253013D01*
X236300Y-543560D02*
X253013D01*
X236300Y-601980D02*
X253013D01*
X236300Y-662940D02*
X253013D01*
X236300Y-723900D02*
X253013D01*
X236300Y-782320D02*
X253013D01*
X19050Y-124460D02*
X35763D01*
X19050Y-182880D02*
X35763D01*
X19050Y-241300D02*
X35763D01*
X19050Y-302260D02*
X35763D01*
X19050Y-363220D02*
X35763D01*
X19050Y-421640D02*
X35763D01*
X19050Y-482600D02*
X35763D01*
X19050Y-541020D02*
X35763D01*
X19050Y-601980D02*
X35763D01*
X17780Y-662940D02*
X34494D01*
X17780Y-723900D02*
X34494D01*
X25031Y-78232D02*
X28891Y-82092D01*
X33672D01*
X25031Y-138199D02*
X28891Y-142059D01*
X33672D01*
X25031Y-198166D02*
X28891Y-202026D01*
X33672D01*
X25031Y-258133D02*
X28891Y-261993D01*
X33672D01*
X25031Y-378068D02*
X28891Y-381927D01*
X33672D01*
X25031Y-438035D02*
X28891Y-441894D01*
X33672D01*
X25031Y-498002D02*
X28891Y-501862D01*
X33672D01*
X25031Y-557969D02*
X28891Y-561829D01*
X33672D01*
X25031Y-617936D02*
X28891Y-621796D01*
X33672D01*
X25031Y-677903D02*
X28891Y-681763D01*
X33672D01*
X28891Y-741730D02*
X33672D01*
X25031Y-737870D02*
X28891Y-741730D01*
X34295Y-742616D02*
Y-742353D01*
X33672Y-741730D02*
X34295Y-742353D01*
X24130Y-737870D02*
X25031D01*
X102536Y-855646D02*
Y-843275D01*
X152066Y-860726D02*
Y-848355D01*
X173532Y-842129D02*
X173656Y-842005D01*
X171450Y-854710D02*
Y-853060D01*
X173532Y-850978D02*
Y-842129D01*
X171450Y-853060D02*
X173532Y-850978D01*
X230806Y-859456D02*
Y-847085D01*
X320040Y-855980D02*
Y-842339D01*
X370840Y-861060D02*
X371782Y-860118D01*
Y-848349D02*
X373046Y-847085D01*
X371782Y-860118D02*
Y-848349D01*
X395906Y-844619D02*
Y-842005D01*
X392326Y-852274D02*
Y-848199D01*
X391160Y-853440D02*
X392326Y-852274D01*
Y-848199D02*
X395906Y-844619D01*
X451786Y-860726D02*
Y-848355D01*
X540686Y-856916D02*
Y-844545D01*
X591486Y-847085D02*
X594031Y-849630D01*
X609600D01*
X620696Y-855646D02*
Y-843275D01*
X682926Y-860726D02*
Y-848355D01*
X760396Y-855646D02*
Y-843275D01*
X836596Y-855646D02*
Y-843275D01*
Y-855646D02*
X836930Y-855980D01*
X239493Y-915937D02*
Y-914734D01*
X237252Y-918178D02*
X239493Y-915937D01*
X771990Y-291930D02*
Y-152400D01*
Y-291930D02*
X810260Y-330200D01*
X704420Y-84830D02*
X771990Y-152400D01*
X546100Y-675640D02*
X561340Y-660400D01*
Y-637540D01*
X543560Y-619760D02*
X561340Y-637540D01*
X534670Y-676910D02*
X554736Y-656844D01*
Y-642154D01*
X546312Y-633730D02*
X554736Y-642154D01*
X546521Y-607395D02*
X565404Y-626278D01*
Y-687183D02*
Y-626278D01*
X559460Y-693127D02*
X565404Y-687183D01*
X523240Y-670560D02*
X547370Y-646430D01*
Y-645160D01*
X546100Y-633730D02*
X546312D01*
X523240Y-671830D02*
Y-670560D01*
X641477Y-608249D02*
X642640D01*
X637748Y-604520D02*
X641477Y-608249D01*
X615950Y-604520D02*
X637748D01*
X572770Y-647700D02*
X615950Y-604520D01*
X572770Y-709930D02*
Y-647700D01*
X588010Y-712470D02*
Y-643890D01*
X612140Y-619760D01*
X638810D01*
X600397Y-713307D02*
Y-642933D01*
X612140Y-631190D01*
X622153D01*
X625028Y-634065D02*
X636690D01*
X622153Y-631190D02*
X625028Y-634065D01*
X627380Y-707390D02*
X645160Y-689610D01*
X615950Y-707390D02*
X627380D01*
X645160Y-689610D02*
Y-656590D01*
X635000Y-646430D02*
X645160Y-656590D01*
X650240Y-727290D02*
X682980Y-760030D01*
X650240Y-727290D02*
Y-298030D01*
X585890Y-233680D02*
X650240Y-298030D01*
X776905Y-522391D02*
Y-470321D01*
Y-522391D02*
X807385Y-552870D01*
X785795Y-484291D02*
X827705Y-526200D01*
X785795Y-484291D02*
Y-452541D01*
X822084Y-883526D02*
Y-873886D01*
X812800Y-892810D02*
X822084Y-883526D01*
Y-873886D02*
X824230Y-871740D01*
X713740Y-895340D02*
X716270Y-892810D01*
X812800D01*
X683260Y-895340D02*
X684810D01*
X580010D02*
X604880Y-870470D01*
X495300Y-895340D02*
X580010D01*
X466370D02*
X491240Y-870470D01*
X464820Y-895340D02*
X466370D01*
X491240Y-870470D02*
X528680D01*
X274320Y-895340D02*
X360300D01*
X385170Y-870470D01*
X250428Y-884952D02*
X264910Y-870470D01*
X308970D01*
X243840Y-895340D02*
X245390D01*
X250428Y-890302D01*
Y-884952D01*
X141860Y-895340D02*
X166730Y-870470D01*
X55880Y-895340D02*
X141860D01*
X25400D02*
X26950D01*
X51820Y-870470D01*
X90530D01*
X483440Y-84830D02*
X585890Y-187280D01*
Y-233680D02*
Y-187280D01*
X682980Y-760030D02*
X687292D01*
X690030Y-762768D01*
X420790Y-716280D02*
X464540Y-760030D01*
X420790Y-716280D02*
Y-287020D01*
X468852Y-760030D02*
X471590Y-762768D01*
X464540Y-760030D02*
X468852D01*
X367450Y-233680D02*
X420790Y-287020D01*
X149860Y-233680D02*
X203200Y-287020D01*
X246950Y-760030D02*
X251262D01*
X254000Y-762768D01*
X203200Y-716280D02*
Y-287020D01*
Y-716280D02*
X246950Y-760030D01*
X778770Y-843275D02*
X784865D01*
X639070D02*
X641808Y-840537D01*
X558800Y-843275D02*
X566425D01*
X415550D02*
X426725D01*
X337820D02*
X342905D01*
X194570D02*
X201527D01*
X35675Y-763503D02*
X36410Y-762768D01*
D35*
X853440Y-652780D02*
Y-469900D01*
X588010Y-807720D02*
X687060D01*
X902960Y-913140D02*
X941070Y-875030D01*
X713740Y-913140D02*
X902960D01*
X941070Y-875030D02*
Y-809952D01*
X683260Y-913140D02*
X713740D01*
X313690Y-812800D02*
X344170D01*
X349250Y-807720D02*
X466080D01*
X344170Y-812800D02*
X349250Y-807720D01*
X248900D02*
X250190Y-809010D01*
Y-821998D02*
X252422Y-824230D01*
X302260D01*
X250190Y-821998D02*
Y-809010D01*
X302260Y-824230D02*
X313690Y-812800D01*
X58420Y-913140D02*
X243840D01*
X514350Y-604520D02*
X541020Y-577850D01*
X514350Y-684530D02*
Y-604520D01*
X590550Y-805180D02*
X593090Y-807720D01*
X588010D02*
X590550Y-805180D01*
X542290Y-807720D02*
X588010D01*
X590550Y-805180D02*
Y-744220D01*
X514350Y-684530D02*
X537210Y-707390D01*
X553720D01*
X590550Y-744220D01*
X853440Y-652780D02*
X882650Y-681990D01*
Y-783590D02*
Y-681990D01*
Y-783590D02*
X904240Y-805180D01*
X938838Y-807720D02*
X941070Y-809952D01*
X922020Y-806450D02*
X923290Y-807720D01*
X938838D01*
X29200D02*
X29883Y-808403D01*
Y-818553D02*
X36830Y-825500D01*
X82550D01*
X29883Y-818553D02*
Y-808403D01*
X523240Y-826770D02*
X542290Y-807720D01*
X474980Y-826770D02*
X523240D01*
X469975Y-821765D02*
Y-811615D01*
X466080Y-807720D02*
X469975Y-811615D01*
Y-821765D02*
X474980Y-826770D01*
X100330Y-807720D02*
X248900D01*
X82550Y-825500D02*
X100330Y-807720D01*
X243840Y-913140D02*
X274320D01*
X464820D02*
X495300D01*
X274320D02*
X464820D01*
X495513D02*
X683260D01*
X736474Y-795020D02*
X783821Y-747673D01*
X687060Y-806170D02*
X698210Y-795020D01*
X736474D01*
X687060Y-807720D02*
Y-806170D01*
X783821Y-747673D02*
Y-722399D01*
X853440Y-652780D01*
X873759Y-462821D02*
X932720Y-403860D01*
X934720D01*
X47835Y-781895D02*
X48260Y-782320D01*
X47835Y-723475D02*
X48260Y-723900D01*
X47410Y-762768D02*
X47835Y-763193D01*
X47410Y-702801D02*
X47835Y-703226D01*
D36*
X813565Y-832275D02*
X815340Y-830500D01*
X890652Y-831387D02*
X891540Y-830500D01*
X854970Y-832275D02*
X855857Y-831387D01*
D37*
X412327Y-747250D02*
D03*
Y-95250D02*
D03*
X327327Y-735250D02*
D03*
Y-107250D02*
D03*
X850900Y-747250D02*
D03*
Y-95250D02*
D03*
X765900Y-735250D02*
D03*
Y-107250D02*
D03*
X546613D02*
D03*
Y-735250D02*
D03*
X631613Y-95250D02*
D03*
Y-747250D02*
D03*
X108040Y-107250D02*
D03*
Y-735250D02*
D03*
X193040Y-95250D02*
D03*
Y-747250D02*
D03*
D38*
X388327Y-788750D02*
D03*
X351327D02*
D03*
Y-53750D02*
D03*
X826900Y-788750D02*
D03*
X789900D02*
D03*
Y-53750D02*
D03*
X570613D02*
D03*
Y-788750D02*
D03*
X607613D02*
D03*
X132040Y-53750D02*
D03*
Y-788750D02*
D03*
X169040D02*
D03*
D39*
X385170Y-935470D02*
D03*
Y-870470D02*
D03*
X430170Y-935470D02*
D03*
X528680D02*
D03*
Y-870470D02*
D03*
X573680Y-935470D02*
D03*
X824230Y-936740D02*
D03*
Y-871740D02*
D03*
X869230Y-936740D02*
D03*
X748030Y-935990D02*
D03*
Y-870990D02*
D03*
X793030Y-935990D02*
D03*
X604880Y-935470D02*
D03*
Y-870470D02*
D03*
X649880Y-935470D02*
D03*
X166730D02*
D03*
Y-870470D02*
D03*
X211730Y-935470D02*
D03*
X308970D02*
D03*
Y-870470D02*
D03*
X353970Y-935470D02*
D03*
X90530D02*
D03*
Y-870470D02*
D03*
X135530Y-935470D02*
D03*
D40*
X430170Y-870470D02*
D03*
X573680D02*
D03*
X869230Y-871740D02*
D03*
X793030Y-870990D02*
D03*
X649880Y-870470D02*
D03*
X211730D02*
D03*
X353970D02*
D03*
X135530D02*
D03*
D41*
X934720Y-754380D02*
D03*
Y-728980D02*
D03*
Y-632460D02*
D03*
Y-607060D02*
D03*
Y-556260D02*
D03*
Y-581660D02*
D03*
Y-429260D02*
D03*
Y-454660D02*
D03*
Y-480060D02*
D03*
Y-530860D02*
D03*
Y-505460D02*
D03*
D42*
Y-703580D02*
D03*
Y-403860D02*
D03*
D43*
X576580Y-565150D02*
D03*
X361950Y-820420D02*
D03*
X561340D02*
D03*
X607060D02*
D03*
X640080D02*
D03*
X826770Y-855980D02*
D03*
Y-819150D02*
D03*
X855980Y-820420D02*
D03*
X853440Y-469900D02*
D03*
X869950Y-463550D02*
D03*
X342900Y-821690D02*
D03*
X143510Y-819150D02*
D03*
X119380Y-820420D02*
D03*
X195580D02*
D03*
X228600Y-816610D02*
D03*
X450850D02*
D03*
X424180Y-822960D02*
D03*
X668020Y-821690D02*
D03*
X779780Y-820420D02*
D03*
X716280Y-107950D02*
D03*
X720090Y-124460D02*
D03*
X716280Y-162560D02*
D03*
X720090Y-182880D02*
D03*
X716280Y-223520D02*
D03*
X720090Y-242570D02*
D03*
X716280Y-283210D02*
D03*
X720090Y-303530D02*
D03*
X716280Y-342900D02*
D03*
X720090Y-363220D02*
D03*
X716280Y-402590D02*
D03*
X720090Y-422910D02*
D03*
X716280Y-463550D02*
D03*
X720090Y-482600D02*
D03*
X716280Y-523240D02*
D03*
X720090Y-542290D02*
D03*
X717550Y-579120D02*
D03*
X720090Y-600710D02*
D03*
X716280Y-643890D02*
D03*
X720090Y-662940D02*
D03*
X716280Y-702310D02*
D03*
X720090Y-723900D02*
D03*
X716280Y-762000D02*
D03*
X720090Y-782320D02*
D03*
X495300Y-107950D02*
D03*
X499110Y-125730D02*
D03*
X495300Y-162560D02*
D03*
X499110Y-182880D02*
D03*
X495300Y-223520D02*
D03*
X499110Y-242570D02*
D03*
X495300Y-283210D02*
D03*
X499110Y-303530D02*
D03*
X495300Y-342900D02*
D03*
X499110Y-363220D02*
D03*
X495300Y-403860D02*
D03*
X499110Y-424180D02*
D03*
X495300Y-463550D02*
D03*
X499110Y-485140D02*
D03*
X495300Y-523240D02*
D03*
X499110Y-543560D02*
D03*
X495300Y-582930D02*
D03*
X499110Y-601980D02*
D03*
X495300Y-642620D02*
D03*
X499110Y-662940D02*
D03*
X495300Y-702310D02*
D03*
X499110Y-721360D02*
D03*
X495300Y-764540D02*
D03*
X455930Y-792480D02*
D03*
X499110Y-782320D02*
D03*
X276860Y-106680D02*
D03*
X280670Y-124460D02*
D03*
X276860Y-163830D02*
D03*
X280670Y-182880D02*
D03*
X276860Y-223520D02*
D03*
X280670Y-241300D02*
D03*
X276860Y-284480D02*
D03*
X280670Y-302260D02*
D03*
X276860Y-344170D02*
D03*
X280670Y-363220D02*
D03*
X276860Y-402590D02*
D03*
X280670Y-421640D02*
D03*
X276860Y-463550D02*
D03*
X280670Y-483870D02*
D03*
X276860Y-523240D02*
D03*
X280670Y-543560D02*
D03*
X276860Y-582930D02*
D03*
X280670Y-601980D02*
D03*
X276860Y-642620D02*
D03*
X280670Y-662940D02*
D03*
X276860Y-702310D02*
D03*
X280670Y-723900D02*
D03*
X276860Y-763270D02*
D03*
X280670Y-782320D02*
D03*
X59690Y-107950D02*
D03*
X62230Y-124460D02*
D03*
X59690Y-163830D02*
D03*
X62230Y-184150D02*
D03*
X59690Y-223520D02*
D03*
X62230Y-242570D02*
D03*
X59690Y-283210D02*
D03*
X62230Y-302260D02*
D03*
X59690Y-344170D02*
D03*
X62230Y-363220D02*
D03*
X59690Y-402590D02*
D03*
X62230Y-421640D02*
D03*
X59690Y-463550D02*
D03*
X62230Y-482600D02*
D03*
X59690Y-523240D02*
D03*
X62230Y-541020D02*
D03*
X59690Y-582930D02*
D03*
X62230Y-601980D02*
D03*
X59690Y-642620D02*
D03*
X62230Y-662940D02*
D03*
X541020Y-577850D02*
D03*
X59969Y-702659D02*
D03*
X62509Y-722979D02*
D03*
X62230Y-782320D02*
D03*
X19050D02*
D03*
X60960Y-763270D02*
D03*
X546100Y-692150D02*
D03*
X904240Y-805180D02*
D03*
X922020Y-806450D02*
D03*
X891540Y-816610D02*
D03*
X904240Y-857250D02*
D03*
X681140Y-78232D02*
D03*
Y-138199D02*
D03*
Y-198166D02*
D03*
X680746Y-258736D02*
D03*
X681140Y-318100D02*
D03*
Y-378068D02*
D03*
Y-438035D02*
D03*
Y-498002D02*
D03*
Y-557969D02*
D03*
Y-617936D02*
D03*
Y-677903D02*
D03*
Y-737870D02*
D03*
X460160D02*
D03*
Y-677903D02*
D03*
Y-617936D02*
D03*
Y-557969D02*
D03*
Y-498002D02*
D03*
Y-438035D02*
D03*
Y-378068D02*
D03*
Y-318100D02*
D03*
Y-258133D02*
D03*
Y-198166D02*
D03*
Y-138199D02*
D03*
Y-78232D02*
D03*
X241720D02*
D03*
Y-138199D02*
D03*
Y-198166D02*
D03*
Y-258133D02*
D03*
Y-318100D02*
D03*
Y-378068D02*
D03*
Y-438035D02*
D03*
Y-498002D02*
D03*
Y-557969D02*
D03*
Y-617936D02*
D03*
X241300Y-677672D02*
D03*
X241720Y-737870D02*
D03*
X24130Y-318100D02*
D03*
X675720Y-124460D02*
D03*
Y-182880D02*
D03*
Y-241300D02*
D03*
Y-303530D02*
D03*
Y-363220D02*
D03*
Y-422910D02*
D03*
Y-482600D02*
D03*
Y-542290D02*
D03*
Y-601980D02*
D03*
Y-662940D02*
D03*
Y-723900D02*
D03*
Y-782320D02*
D03*
X454660Y-124460D02*
D03*
Y-182880D02*
D03*
Y-242570D02*
D03*
Y-303530D02*
D03*
Y-363220D02*
D03*
X454740Y-422910D02*
D03*
Y-485140D02*
D03*
Y-543560D02*
D03*
X454660Y-601980D02*
D03*
Y-662940D02*
D03*
Y-723900D02*
D03*
X236300Y-124460D02*
D03*
Y-182880D02*
D03*
Y-241300D02*
D03*
Y-302260D02*
D03*
Y-363220D02*
D03*
Y-421640D02*
D03*
Y-482600D02*
D03*
Y-543560D02*
D03*
Y-601980D02*
D03*
Y-662940D02*
D03*
Y-723900D02*
D03*
Y-782320D02*
D03*
X19050Y-124460D02*
D03*
Y-182880D02*
D03*
Y-241300D02*
D03*
Y-302260D02*
D03*
Y-363220D02*
D03*
Y-421640D02*
D03*
Y-482600D02*
D03*
Y-541020D02*
D03*
Y-601980D02*
D03*
X17780Y-662940D02*
D03*
Y-723900D02*
D03*
X24130Y-78232D02*
D03*
Y-138199D02*
D03*
Y-198166D02*
D03*
Y-258133D02*
D03*
Y-378068D02*
D03*
Y-438035D02*
D03*
Y-498002D02*
D03*
Y-557969D02*
D03*
Y-617936D02*
D03*
Y-677903D02*
D03*
Y-737870D02*
D03*
X102870Y-855980D02*
D03*
X152400Y-861060D02*
D03*
X171450Y-854710D02*
D03*
X231140Y-859790D02*
D03*
X320040Y-855980D02*
D03*
X370840Y-861060D02*
D03*
X391160Y-853440D02*
D03*
X452120Y-861060D02*
D03*
X541020Y-857250D02*
D03*
X609600Y-849630D02*
D03*
X621030Y-855980D02*
D03*
X683260Y-861060D02*
D03*
X760730Y-855980D02*
D03*
X836930D02*
D03*
X547370Y-645160D02*
D03*
X642640Y-608249D02*
D03*
X785795Y-452541D02*
D03*
X827705Y-526200D02*
D03*
X807385Y-552870D02*
D03*
X776905Y-470321D02*
D03*
X547370Y-595630D02*
D03*
X635000Y-665480D02*
D03*
X636690Y-634065D02*
D03*
X638810Y-619760D02*
D03*
X635000Y-646430D02*
D03*
X546100Y-633730D02*
D03*
X543560Y-619760D02*
D03*
X546521Y-607395D02*
D03*
X615950Y-707390D02*
D03*
X600397Y-713307D02*
D03*
X588010Y-712470D02*
D03*
X572770Y-709930D02*
D03*
X559460Y-693127D02*
D03*
X534670Y-676910D02*
D03*
X523240Y-671830D02*
D03*
D44*
X920750Y-44450D02*
D03*
X44450D02*
D03*
M02*
