G04*
G04 #@! TF.GenerationSoftware,Altium Limited,Altium Designer,24.7.2 (38)*
G04*
G04 Layer_Physical_Order=4*
G04 Layer_Color=16711680*
%FSLAX44Y44*%
%MOMM*%
G71*
G04*
G04 #@! TF.SameCoordinates,4798D7E4-1403-4A70-8607-6B62460FE5A0*
G04*
G04*
G04 #@! TF.FilePolarity,Positive*
G04*
G01*
G75*
%ADD11C,0.2540*%
%ADD17R,0.9300X0.9800*%
%ADD34C,0.1524*%
%ADD35C,0.3810*%
%ADD37O,3.0000X4.0000*%
%ADD38C,2.7000*%
%ADD39C,1.9000*%
%ADD40R,1.9000X1.9000*%
%ADD41O,2.0000X1.6000*%
%ADD42R,2.0000X1.6000*%
%ADD43C,0.7620*%
%ADD44C,3.8100*%
%ADD56O,1.8000X0.6000*%
D11*
X541020Y-577850D02*
Y-577746D01*
X544750Y-574016D02*
Y-566420D01*
X541020Y-577746D02*
X544750Y-574016D01*
X546205Y-581660D02*
X560840D01*
X541020Y-577850D02*
X542395D01*
X546205Y-581660D01*
D17*
X544750Y-561340D02*
D03*
X560150D02*
D03*
D34*
X557615Y-566420D02*
X567086D01*
X568356Y-565150D02*
X576580D01*
X567086Y-566420D02*
X568356Y-565150D01*
X388327Y-700063D02*
X617220Y-471170D01*
X777240D01*
X388327Y-788750D02*
Y-700063D01*
X759460Y-812800D02*
X815056Y-868396D01*
X547370Y-802640D02*
X557530Y-812800D01*
X759460D01*
X385170Y-870470D02*
X447412Y-808228D01*
X461772D01*
X392804Y-844804D02*
X545458Y-692150D01*
X388620Y-842010D02*
X534670Y-695960D01*
X357762Y-844804D02*
X392804D01*
X534670Y-695960D02*
Y-676910D01*
X195190Y-842010D02*
X388620D01*
X545458Y-692150D02*
X546100D01*
X853440Y-454660D02*
X934720D01*
X617820Y-594360D02*
X713740D01*
X853440Y-454660D01*
X723900Y-608330D02*
X852170Y-480060D01*
X706120Y-608330D02*
X723900D01*
X852170Y-480060D02*
X934720D01*
X523240Y-687070D02*
Y-671830D01*
X377190Y-833120D02*
X523240Y-687070D01*
X113030Y-833120D02*
X377190D01*
X461772Y-808228D02*
X506730Y-763270D01*
Y-742950D01*
X538628Y-711052D01*
X543895Y-564985D02*
X544750Y-564130D01*
X578960Y-844550D02*
X604880Y-870470D01*
X548640Y-844550D02*
X578960D01*
X820886Y-868396D02*
X824230Y-871740D01*
X815056Y-868396D02*
X820886D01*
X617049Y-669704D02*
X625888D01*
X548219Y-595295D02*
X566670D01*
X548219Y-644825D02*
X566670D01*
X542438Y-711052D02*
X560070Y-693420D01*
X617820Y-619760D02*
X638810D01*
X615366D02*
X617820D01*
X615700Y-646765D02*
X634151D01*
X642086Y-607695D02*
X642640Y-608249D01*
X618455Y-607695D02*
X642086D01*
X617820Y-607060D02*
X618455Y-607695D01*
X393700Y-453390D02*
X786130D01*
X90530Y-935470D02*
Y-870470D01*
X166730Y-935470D02*
Y-870470D01*
X308970Y-935470D02*
Y-870470D01*
X385170Y-935470D02*
Y-870470D01*
X528680Y-935470D02*
Y-870470D01*
X604880Y-935470D02*
Y-870470D01*
X748030Y-935990D02*
Y-870990D01*
X824230Y-936740D02*
Y-871740D01*
X169040Y-678050D02*
X393700Y-453390D01*
X169040Y-788750D02*
Y-678050D01*
X831850Y-530860D02*
X934720D01*
X828040Y-527050D02*
X831850Y-530860D01*
X807720Y-553720D02*
X808990D01*
X811530Y-556260D01*
X934720D01*
X616970Y-669625D02*
X617049Y-669704D01*
X625888D02*
X625966Y-669625D01*
X630524D02*
X634669Y-665480D01*
X625966Y-669625D02*
X630524D01*
X634669Y-665480D02*
X635000D01*
X578520Y-683260D02*
X631190D01*
X706120Y-608330D01*
X618241Y-634065D02*
X636690D01*
X546950Y-633395D02*
X565400D01*
X544409Y-619425D02*
X562859D01*
X547370Y-607060D02*
X565820D01*
X615950Y-717550D02*
Y-709930D01*
X547370Y-786130D02*
X615950Y-717550D01*
X607613Y-788750D02*
Y-742163D01*
X768116Y-581660D01*
X547370Y-802640D02*
Y-786130D01*
X600710Y-725170D02*
Y-713740D01*
X588010Y-731520D02*
Y-712470D01*
X572770Y-740410D02*
Y-709930D01*
X565820Y-670560D02*
X578520Y-683260D01*
X521970Y-797560D02*
X588010Y-731520D01*
X504190Y-808990D02*
X572770Y-740410D01*
X617820Y-581660D02*
X694690D01*
X847090Y-429260D02*
X934720D01*
X694690Y-581660D02*
X847090Y-429260D01*
X768116Y-581660D02*
X934720D01*
X538628Y-711052D02*
X542438D01*
X565820Y-632460D02*
X573031D01*
X565820Y-607060D02*
X571820D01*
X521970Y-817880D02*
Y-797560D01*
X542290Y-816610D02*
Y-783590D01*
X600710Y-725170D01*
X504190Y-821690D02*
Y-808990D01*
X332096Y-870470D02*
X357762Y-844804D01*
X308970Y-870470D02*
X332096D01*
X166730D02*
X195190Y-842010D01*
X90530Y-855620D02*
X113030Y-833120D01*
X90530Y-870470D02*
Y-855620D01*
X616964Y-633316D02*
X617820Y-632460D01*
X608744Y-633316D02*
X616964D01*
X528680Y-870470D02*
Y-846180D01*
X504190Y-821690D02*
X528680Y-846180D01*
X521970Y-817880D02*
X548640Y-844550D01*
X563880Y-838200D02*
X715240D01*
X542290Y-816610D02*
X563880Y-838200D01*
X715240D02*
X748030Y-870990D01*
X617820Y-645160D02*
X624411D01*
X544750Y-564130D02*
Y-563880D01*
X932720Y-607060D02*
X934720D01*
X826900Y-788750D02*
Y-712880D01*
X932720Y-607060D01*
D35*
X853440Y-469900D02*
X853836Y-469504D01*
X868919Y-463550D02*
X869950D01*
X853836Y-469504D02*
X862965D01*
X868919Y-463550D01*
X904240Y-805180D02*
X905271D01*
X906541Y-806450D02*
X922020D01*
X905271Y-805180D02*
X906541Y-806450D01*
D37*
X412327Y-747250D02*
D03*
Y-95250D02*
D03*
X327327Y-735250D02*
D03*
Y-107250D02*
D03*
X850900Y-747250D02*
D03*
Y-95250D02*
D03*
X765900Y-735250D02*
D03*
Y-107250D02*
D03*
X546613D02*
D03*
Y-735250D02*
D03*
X631613Y-95250D02*
D03*
Y-747250D02*
D03*
X108040Y-107250D02*
D03*
Y-735250D02*
D03*
X193040Y-95250D02*
D03*
Y-747250D02*
D03*
D38*
X388327Y-788750D02*
D03*
X351327D02*
D03*
Y-53750D02*
D03*
X826900Y-788750D02*
D03*
X789900D02*
D03*
Y-53750D02*
D03*
X570613D02*
D03*
Y-788750D02*
D03*
X607613D02*
D03*
X132040Y-53750D02*
D03*
Y-788750D02*
D03*
X169040D02*
D03*
D39*
X385170Y-935470D02*
D03*
Y-870470D02*
D03*
X430170Y-935470D02*
D03*
X528680D02*
D03*
Y-870470D02*
D03*
X573680Y-935470D02*
D03*
X824230Y-936740D02*
D03*
Y-871740D02*
D03*
X869230Y-936740D02*
D03*
X748030Y-935990D02*
D03*
Y-870990D02*
D03*
X793030Y-935990D02*
D03*
X604880Y-935470D02*
D03*
Y-870470D02*
D03*
X649880Y-935470D02*
D03*
X166730D02*
D03*
Y-870470D02*
D03*
X211730Y-935470D02*
D03*
X308970D02*
D03*
Y-870470D02*
D03*
X353970Y-935470D02*
D03*
X90530D02*
D03*
Y-870470D02*
D03*
X135530Y-935470D02*
D03*
D40*
X430170Y-870470D02*
D03*
X573680D02*
D03*
X869230Y-871740D02*
D03*
X793030Y-870990D02*
D03*
X649880Y-870470D02*
D03*
X211730D02*
D03*
X353970D02*
D03*
X135530D02*
D03*
D41*
X934720Y-754380D02*
D03*
Y-728980D02*
D03*
Y-632460D02*
D03*
Y-607060D02*
D03*
Y-556260D02*
D03*
Y-581660D02*
D03*
Y-429260D02*
D03*
Y-454660D02*
D03*
Y-480060D02*
D03*
Y-530860D02*
D03*
Y-505460D02*
D03*
D42*
Y-703580D02*
D03*
Y-403860D02*
D03*
D43*
X576580Y-565150D02*
D03*
X361950Y-820420D02*
D03*
X561340D02*
D03*
X607060D02*
D03*
X640080D02*
D03*
X826770Y-855980D02*
D03*
Y-819150D02*
D03*
X855980Y-820420D02*
D03*
X853440Y-469900D02*
D03*
X869950Y-463550D02*
D03*
X342900Y-821690D02*
D03*
X143510Y-819150D02*
D03*
X119380Y-820420D02*
D03*
X195580D02*
D03*
X228600Y-816610D02*
D03*
X450850D02*
D03*
X424180Y-822960D02*
D03*
X668020Y-821690D02*
D03*
X779780Y-820420D02*
D03*
X716280Y-107950D02*
D03*
X720090Y-124460D02*
D03*
X716280Y-162560D02*
D03*
X720090Y-182880D02*
D03*
X716280Y-223520D02*
D03*
X720090Y-242570D02*
D03*
X716280Y-283210D02*
D03*
X720090Y-303530D02*
D03*
X716280Y-342900D02*
D03*
X720090Y-363220D02*
D03*
X716280Y-402590D02*
D03*
X720090Y-422910D02*
D03*
X716280Y-463550D02*
D03*
X720090Y-482600D02*
D03*
X716280Y-523240D02*
D03*
X720090Y-542290D02*
D03*
X717550Y-579120D02*
D03*
X720090Y-600710D02*
D03*
X716280Y-643890D02*
D03*
X720090Y-662940D02*
D03*
X716280Y-702310D02*
D03*
X720090Y-723900D02*
D03*
X716280Y-762000D02*
D03*
X720090Y-782320D02*
D03*
X495300Y-107950D02*
D03*
X499110Y-125730D02*
D03*
X495300Y-162560D02*
D03*
X499110Y-182880D02*
D03*
X495300Y-223520D02*
D03*
X499110Y-242570D02*
D03*
X495300Y-283210D02*
D03*
X499110Y-303530D02*
D03*
X495300Y-342900D02*
D03*
X499110Y-363220D02*
D03*
X495300Y-403860D02*
D03*
X499110Y-424180D02*
D03*
X495300Y-463550D02*
D03*
X499110Y-485140D02*
D03*
X495300Y-523240D02*
D03*
X499110Y-543560D02*
D03*
X495300Y-582930D02*
D03*
X499110Y-601980D02*
D03*
X495300Y-642620D02*
D03*
X499110Y-662940D02*
D03*
X495300Y-702310D02*
D03*
X499110Y-721360D02*
D03*
X495300Y-764540D02*
D03*
X455930Y-792480D02*
D03*
X499110Y-782320D02*
D03*
X276860Y-106680D02*
D03*
X280670Y-124460D02*
D03*
X276860Y-163830D02*
D03*
X280670Y-182880D02*
D03*
X276860Y-223520D02*
D03*
X280670Y-241300D02*
D03*
X276860Y-284480D02*
D03*
X280670Y-302260D02*
D03*
X276860Y-344170D02*
D03*
X280670Y-363220D02*
D03*
X276860Y-402590D02*
D03*
X280670Y-421640D02*
D03*
X276860Y-463550D02*
D03*
X280670Y-483870D02*
D03*
X276860Y-523240D02*
D03*
X280670Y-543560D02*
D03*
X276860Y-582930D02*
D03*
X280670Y-601980D02*
D03*
X276860Y-642620D02*
D03*
X280670Y-662940D02*
D03*
X276860Y-702310D02*
D03*
X280670Y-723900D02*
D03*
X276860Y-763270D02*
D03*
X280670Y-782320D02*
D03*
X59690Y-107950D02*
D03*
X62230Y-124460D02*
D03*
X59690Y-163830D02*
D03*
X62230Y-184150D02*
D03*
X59690Y-223520D02*
D03*
X62230Y-242570D02*
D03*
X59690Y-283210D02*
D03*
X62230Y-302260D02*
D03*
X59690Y-344170D02*
D03*
X62230Y-363220D02*
D03*
X59690Y-402590D02*
D03*
X62230Y-421640D02*
D03*
X59690Y-463550D02*
D03*
X62230Y-482600D02*
D03*
X59690Y-523240D02*
D03*
X62230Y-541020D02*
D03*
X59690Y-582930D02*
D03*
X62230Y-601980D02*
D03*
X59690Y-642620D02*
D03*
X62230Y-662940D02*
D03*
X541020Y-577850D02*
D03*
X59969Y-702659D02*
D03*
X62509Y-722979D02*
D03*
X62230Y-782320D02*
D03*
X19050D02*
D03*
X60960Y-763270D02*
D03*
X546100Y-692150D02*
D03*
X904240Y-805180D02*
D03*
X922020Y-806450D02*
D03*
X891540Y-816610D02*
D03*
X904240Y-857250D02*
D03*
X681140Y-78232D02*
D03*
Y-138199D02*
D03*
Y-198166D02*
D03*
X680746Y-258736D02*
D03*
X681140Y-318100D02*
D03*
Y-378068D02*
D03*
Y-438035D02*
D03*
Y-498002D02*
D03*
Y-557969D02*
D03*
Y-617936D02*
D03*
Y-677903D02*
D03*
Y-737870D02*
D03*
X460160D02*
D03*
Y-677903D02*
D03*
Y-617936D02*
D03*
Y-557969D02*
D03*
Y-498002D02*
D03*
Y-438035D02*
D03*
Y-378068D02*
D03*
Y-318100D02*
D03*
Y-258133D02*
D03*
Y-198166D02*
D03*
Y-138199D02*
D03*
Y-78232D02*
D03*
X241720D02*
D03*
Y-138199D02*
D03*
Y-198166D02*
D03*
Y-258133D02*
D03*
Y-318100D02*
D03*
Y-378068D02*
D03*
Y-438035D02*
D03*
Y-498002D02*
D03*
Y-557969D02*
D03*
Y-617936D02*
D03*
X241300Y-677672D02*
D03*
X241720Y-737870D02*
D03*
X24130Y-318100D02*
D03*
X675720Y-124460D02*
D03*
Y-182880D02*
D03*
Y-241300D02*
D03*
Y-303530D02*
D03*
Y-363220D02*
D03*
Y-422910D02*
D03*
Y-482600D02*
D03*
Y-542290D02*
D03*
Y-601980D02*
D03*
Y-662940D02*
D03*
Y-723900D02*
D03*
Y-782320D02*
D03*
X454660Y-124460D02*
D03*
Y-182880D02*
D03*
Y-242570D02*
D03*
Y-303530D02*
D03*
Y-363220D02*
D03*
X454740Y-422910D02*
D03*
Y-485140D02*
D03*
Y-543560D02*
D03*
X454660Y-601980D02*
D03*
Y-662940D02*
D03*
Y-723900D02*
D03*
X236300Y-124460D02*
D03*
Y-182880D02*
D03*
Y-241300D02*
D03*
Y-302260D02*
D03*
Y-363220D02*
D03*
Y-421640D02*
D03*
Y-482600D02*
D03*
Y-543560D02*
D03*
Y-601980D02*
D03*
Y-662940D02*
D03*
Y-723900D02*
D03*
Y-782320D02*
D03*
X19050Y-124460D02*
D03*
Y-182880D02*
D03*
Y-241300D02*
D03*
Y-302260D02*
D03*
Y-363220D02*
D03*
Y-421640D02*
D03*
Y-482600D02*
D03*
Y-541020D02*
D03*
Y-601980D02*
D03*
X17780Y-662940D02*
D03*
Y-723900D02*
D03*
X24130Y-78232D02*
D03*
Y-138199D02*
D03*
Y-198166D02*
D03*
Y-258133D02*
D03*
Y-378068D02*
D03*
Y-438035D02*
D03*
Y-498002D02*
D03*
Y-557969D02*
D03*
Y-617936D02*
D03*
Y-677903D02*
D03*
Y-737870D02*
D03*
X102870Y-855980D02*
D03*
X152400Y-861060D02*
D03*
X171450Y-854710D02*
D03*
X231140Y-859790D02*
D03*
X320040Y-855980D02*
D03*
X370840Y-861060D02*
D03*
X391160Y-853440D02*
D03*
X452120Y-861060D02*
D03*
X541020Y-857250D02*
D03*
X609600Y-849630D02*
D03*
X621030Y-855980D02*
D03*
X683260Y-861060D02*
D03*
X760730Y-855980D02*
D03*
X836930D02*
D03*
X547370Y-645160D02*
D03*
X642640Y-608249D02*
D03*
X785795Y-452541D02*
D03*
X827705Y-526200D02*
D03*
X807385Y-552870D02*
D03*
X776905Y-470321D02*
D03*
X547370Y-595630D02*
D03*
X635000Y-665480D02*
D03*
X636690Y-634065D02*
D03*
X638810Y-619760D02*
D03*
X635000Y-646430D02*
D03*
X546100Y-633730D02*
D03*
X543560Y-619760D02*
D03*
X546521Y-607395D02*
D03*
X615950Y-707390D02*
D03*
X600397Y-713307D02*
D03*
X588010Y-712470D02*
D03*
X572770Y-709930D02*
D03*
X559460Y-693127D02*
D03*
X534670Y-676910D02*
D03*
X523240Y-671830D02*
D03*
D44*
X920750Y-44450D02*
D03*
X44450D02*
D03*
D56*
X617820Y-581660D02*
D03*
Y-594360D02*
D03*
Y-607060D02*
D03*
Y-619760D02*
D03*
Y-632460D02*
D03*
Y-645160D02*
D03*
Y-657860D02*
D03*
Y-670560D02*
D03*
X565820Y-581660D02*
D03*
Y-594360D02*
D03*
Y-607060D02*
D03*
Y-619760D02*
D03*
Y-632460D02*
D03*
Y-645160D02*
D03*
Y-657860D02*
D03*
Y-670560D02*
D03*
M02*
