G04*
G04 #@! TF.GenerationSoftware,Altium Limited,Altium Designer,24.7.2 (38)*
G04*
G04 Layer_Color=65535*
%FSLAX44Y44*%
%MOMM*%
G71*
G04*
G04 #@! TF.SameCoordinates,4798D7E4-1403-4A70-8607-6B62460FE5A0*
G04*
G04*
G04 #@! TF.FilePolarity,Positive*
G04*
G01*
G75*
%ADD10C,0.2000*%
%ADD11C,0.2540*%
%ADD12C,0.1270*%
%ADD13C,0.1778*%
D10*
X151040Y-822850D02*
G03*
X147040Y-826850I0J-4000D01*
G01*
X162840Y-826850D02*
G03*
X158840Y-822850I-4000J-0D01*
G01*
X158840Y-853550D02*
G03*
X162840Y-849550I0J4000D01*
G01*
X147040D02*
G03*
X151040Y-853550I4000J0D01*
G01*
X224700Y-822850D02*
G03*
X220700Y-826850I0J-4000D01*
G01*
X236500Y-826850D02*
G03*
X232500Y-822850I-4000J-0D01*
G01*
X232500Y-853550D02*
G03*
X236500Y-849550I0J4000D01*
G01*
X220700D02*
G03*
X224700Y-853550I4000J0D01*
G01*
X372020Y-822850D02*
G03*
X368020Y-826850I0J-4000D01*
G01*
X383820Y-826850D02*
G03*
X379820Y-822850I-4000J-0D01*
G01*
X379820Y-853550D02*
G03*
X383820Y-849550I0J4000D01*
G01*
X368020D02*
G03*
X372020Y-853550I4000J0D01*
G01*
X450760Y-822850D02*
G03*
X446760Y-826850I0J-4000D01*
G01*
X462560Y-826850D02*
G03*
X458560Y-822850I-4000J-0D01*
G01*
X458560Y-853550D02*
G03*
X462560Y-849550I0J4000D01*
G01*
X446760D02*
G03*
X450760Y-853550I4000J0D01*
G01*
X590460Y-822850D02*
G03*
X586460Y-826850I0J-4000D01*
G01*
X602260Y-826850D02*
G03*
X598260Y-822850I-4000J-0D01*
G01*
X598260Y-853550D02*
G03*
X602260Y-849550I0J4000D01*
G01*
X586460D02*
G03*
X590460Y-853550I4000J0D01*
G01*
X676820Y-822850D02*
G03*
X672820Y-826850I0J-4000D01*
G01*
X688620Y-826850D02*
G03*
X684620Y-822850I-4000J-0D01*
G01*
X684620Y-853550D02*
G03*
X688620Y-849550I0J4000D01*
G01*
X672820D02*
G03*
X676820Y-853550I4000J0D01*
G01*
X811440Y-822850D02*
G03*
X807440Y-826850I0J-4000D01*
G01*
X823240Y-826850D02*
G03*
X819240Y-822850I-4000J-0D01*
G01*
X819240Y-853550D02*
G03*
X823240Y-849550I0J4000D01*
G01*
X807440D02*
G03*
X811440Y-853550I4000J0D01*
G01*
X887640Y-822850D02*
G03*
X883640Y-826850I0J-4000D01*
G01*
X899440Y-826850D02*
G03*
X895440Y-822850I-4000J-0D01*
G01*
X895440Y-853550D02*
G03*
X899440Y-849550I0J4000D01*
G01*
X883640D02*
G03*
X887640Y-853550I4000J0D01*
G01*
X274430Y-778420D02*
G03*
X270430Y-774420I-4000J0D01*
G01*
X270430Y-790220D02*
G03*
X274430Y-786220I-0J4000D01*
G01*
X243730Y-786220D02*
G03*
X247730Y-790220I4000J-0D01*
G01*
Y-774420D02*
G03*
X243730Y-778420I0J-4000D01*
G01*
X269560Y-736950D02*
G03*
X269560Y-736950I-750J0D01*
G01*
X274430Y-720000D02*
G03*
X270430Y-716000I-4000J0D01*
G01*
X270430Y-731800D02*
G03*
X274430Y-727800I-0J4000D01*
G01*
X243730Y-727800D02*
G03*
X247730Y-731800I4000J-0D01*
G01*
Y-716000D02*
G03*
X243730Y-720000I0J-4000D01*
G01*
X488000Y-736950D02*
G03*
X488000Y-736950I-750J0D01*
G01*
X269140Y-676752D02*
G03*
X269140Y-676752I-750J0D01*
G01*
X269560Y-617016D02*
G03*
X269560Y-617016I-750J0D01*
G01*
X488000Y-676983D02*
G03*
X488000Y-676983I-750J0D01*
G01*
X274430Y-598080D02*
G03*
X270430Y-594080I-4000J0D01*
G01*
X270430Y-609880D02*
G03*
X274430Y-605880I-0J4000D01*
G01*
X243730Y-605880D02*
G03*
X247730Y-609880I4000J-0D01*
G01*
Y-594080D02*
G03*
X243730Y-598080I0J-4000D01*
G01*
X274430Y-659040D02*
G03*
X270430Y-655040I-4000J0D01*
G01*
X270430Y-670840D02*
G03*
X274430Y-666840I-0J4000D01*
G01*
X243730Y-666840D02*
G03*
X247730Y-670840I4000J-0D01*
G01*
Y-655040D02*
G03*
X243730Y-659040I0J-4000D01*
G01*
X488000Y-617016D02*
G03*
X488000Y-617016I-750J0D01*
G01*
Y-557049D02*
G03*
X488000Y-557049I-750J0D01*
G01*
X269560D02*
G03*
X269560Y-557049I-750J0D01*
G01*
X274430Y-539660D02*
G03*
X270430Y-535660I-4000J0D01*
G01*
X270430Y-551460D02*
G03*
X274430Y-547460I-0J4000D01*
G01*
X243730Y-547460D02*
G03*
X247730Y-551460I4000J-0D01*
G01*
Y-535660D02*
G03*
X243730Y-539660I0J-4000D01*
G01*
X269560Y-497082D02*
G03*
X269560Y-497082I-750J0D01*
G01*
X488000D02*
G03*
X488000Y-497082I-750J0D01*
G01*
X274430Y-478700D02*
G03*
X270430Y-474700I-4000J0D01*
G01*
X270430Y-490500D02*
G03*
X274430Y-486500I-0J4000D01*
G01*
X243730Y-486500D02*
G03*
X247730Y-490500I4000J-0D01*
G01*
Y-474700D02*
G03*
X243730Y-478700I0J-4000D01*
G01*
X488000Y-377147D02*
G03*
X488000Y-377147I-750J0D01*
G01*
Y-317180D02*
G03*
X488000Y-317180I-750J0D01*
G01*
Y-257213D02*
G03*
X488000Y-257213I-750J0D01*
G01*
X269560D02*
G03*
X269560Y-257213I-750J0D01*
G01*
X274430Y-298360D02*
G03*
X270430Y-294360I-4000J0D01*
G01*
X270430Y-310160D02*
G03*
X274430Y-306160I-0J4000D01*
G01*
X243730Y-306160D02*
G03*
X247730Y-310160I4000J-0D01*
G01*
Y-294360D02*
G03*
X243730Y-298360I0J-4000D01*
G01*
X269560Y-377147D02*
G03*
X269560Y-377147I-750J0D01*
G01*
X274430Y-359320D02*
G03*
X270430Y-355320I-4000J0D01*
G01*
X270430Y-371120D02*
G03*
X274430Y-367120I-0J4000D01*
G01*
X243730Y-367120D02*
G03*
X247730Y-371120I4000J-0D01*
G01*
Y-355320D02*
G03*
X243730Y-359320I0J-4000D01*
G01*
X269560Y-317180D02*
G03*
X269560Y-317180I-750J0D01*
G01*
X274430Y-237400D02*
G03*
X270430Y-233400I-4000J0D01*
G01*
X270430Y-249200D02*
G03*
X274430Y-245200I-0J4000D01*
G01*
X243730Y-245200D02*
G03*
X247730Y-249200I4000J-0D01*
G01*
Y-233400D02*
G03*
X243730Y-237400I0J-4000D01*
G01*
X269560Y-197246D02*
G03*
X269560Y-197246I-750J0D01*
G01*
X274430Y-178980D02*
G03*
X270430Y-174980I-4000J0D01*
G01*
X270430Y-190780D02*
G03*
X274430Y-186780I-0J4000D01*
G01*
X243730Y-186780D02*
G03*
X247730Y-190780I4000J-0D01*
G01*
Y-174980D02*
G03*
X243730Y-178980I0J-4000D01*
G01*
X488000Y-197246D02*
G03*
X488000Y-197246I-750J0D01*
G01*
X274430Y-120560D02*
G03*
X270430Y-116560I-4000J0D01*
G01*
X270430Y-132360D02*
G03*
X274430Y-128360I-0J4000D01*
G01*
X243730Y-128360D02*
G03*
X247730Y-132360I4000J-0D01*
G01*
Y-116560D02*
G03*
X243730Y-120560I0J-4000D01*
G01*
X269560Y-437115D02*
G03*
X269560Y-437115I-750J0D01*
G01*
X274430Y-417740D02*
G03*
X270430Y-413740I-4000J0D01*
G01*
X270430Y-429540D02*
G03*
X274430Y-425540I-0J4000D01*
G01*
X243730Y-425540D02*
G03*
X247730Y-429540I4000J-0D01*
G01*
Y-413740D02*
G03*
X243730Y-417740I0J-4000D01*
G01*
X687150Y-474700D02*
G03*
X683150Y-478700I0J-4000D01*
G01*
Y-486500D02*
G03*
X687150Y-490500I4000J-0D01*
G01*
X709850Y-490500D02*
G03*
X713850Y-486500I-0J4000D01*
G01*
X713850Y-478700D02*
G03*
X709850Y-474700I-4000J0D01*
G01*
X708980Y-557049D02*
G03*
X708980Y-557049I-750J0D01*
G01*
X687150Y-534390D02*
G03*
X683150Y-538390I0J-4000D01*
G01*
Y-546190D02*
G03*
X687150Y-550190I4000J-0D01*
G01*
X709850Y-550190D02*
G03*
X713850Y-546190I-0J4000D01*
G01*
X713850Y-538390D02*
G03*
X709850Y-534390I-4000J0D01*
G01*
X708980Y-497082D02*
G03*
X708980Y-497082I-750J0D01*
G01*
X492790Y-778420D02*
G03*
X488790Y-774420I-4000J0D01*
G01*
X488790Y-790220D02*
G03*
X492790Y-786220I-0J4000D01*
G01*
X462090Y-786220D02*
G03*
X466090Y-790220I4000J-0D01*
G01*
Y-774420D02*
G03*
X462090Y-778420I0J-4000D01*
G01*
X492790Y-720000D02*
G03*
X488790Y-716000I-4000J0D01*
G01*
X488790Y-731800D02*
G03*
X492790Y-727800I-0J4000D01*
G01*
X462090Y-727800D02*
G03*
X466090Y-731800I4000J-0D01*
G01*
Y-716000D02*
G03*
X462090Y-720000I0J-4000D01*
G01*
X708980Y-736950D02*
G03*
X708980Y-736950I-750J0D01*
G01*
X492790Y-659040D02*
G03*
X488790Y-655040I-4000J0D01*
G01*
X488790Y-670840D02*
G03*
X492790Y-666840I-0J4000D01*
G01*
X462090Y-666840D02*
G03*
X466090Y-670840I4000J-0D01*
G01*
Y-655040D02*
G03*
X462090Y-659040I0J-4000D01*
G01*
X492790Y-598080D02*
G03*
X488790Y-594080I-4000J0D01*
G01*
X488790Y-609880D02*
G03*
X492790Y-605880I-0J4000D01*
G01*
X462090Y-605880D02*
G03*
X466090Y-609880I4000J-0D01*
G01*
Y-594080D02*
G03*
X462090Y-598080I0J-4000D01*
G01*
X492870Y-481240D02*
G03*
X488870Y-477240I-4000J0D01*
G01*
X488870Y-493040D02*
G03*
X492870Y-489040I-0J4000D01*
G01*
X462170Y-489040D02*
G03*
X466170Y-493040I4000J-0D01*
G01*
Y-477240D02*
G03*
X462170Y-481240I0J-4000D01*
G01*
X492870Y-539660D02*
G03*
X488870Y-535660I-4000J0D01*
G01*
X488870Y-551460D02*
G03*
X492870Y-547460I-0J4000D01*
G01*
X462170Y-547460D02*
G03*
X466170Y-551460I4000J-0D01*
G01*
Y-535660D02*
G03*
X462170Y-539660I0J-4000D01*
G01*
X708980Y-676983D02*
G03*
X708980Y-676983I-750J0D01*
G01*
Y-617016D02*
G03*
X708980Y-617016I-750J0D01*
G01*
X713850Y-778420D02*
G03*
X709850Y-774420I-4000J0D01*
G01*
X709850Y-790220D02*
G03*
X713850Y-786220I-0J4000D01*
G01*
X683150Y-786220D02*
G03*
X687150Y-790220I4000J-0D01*
G01*
Y-774420D02*
G03*
X683150Y-778420I0J-4000D01*
G01*
X713850Y-720000D02*
G03*
X709850Y-716000I-4000J0D01*
G01*
X709850Y-731800D02*
G03*
X713850Y-727800I-0J4000D01*
G01*
X683150Y-727800D02*
G03*
X687150Y-731800I4000J-0D01*
G01*
Y-716000D02*
G03*
X683150Y-720000I0J-4000D01*
G01*
X708980Y-377147D02*
G03*
X708980Y-377147I-750J0D01*
G01*
X687150Y-355320D02*
G03*
X683150Y-359320I0J-4000D01*
G01*
Y-367120D02*
G03*
X687150Y-371120I4000J-0D01*
G01*
X709850Y-371120D02*
G03*
X713850Y-367120I-0J4000D01*
G01*
X713850Y-359320D02*
G03*
X709850Y-355320I-4000J0D01*
G01*
X708980Y-257213D02*
G03*
X708980Y-257213I-750J0D01*
G01*
Y-317180D02*
G03*
X708980Y-317180I-750J0D01*
G01*
X687150Y-295630D02*
G03*
X683150Y-299630I0J-4000D01*
G01*
Y-307430D02*
G03*
X687150Y-311430I4000J-0D01*
G01*
X709850Y-311430D02*
G03*
X713850Y-307430I-0J4000D01*
G01*
X713850Y-299630D02*
G03*
X709850Y-295630I-4000J0D01*
G01*
X708980Y-137279D02*
G03*
X708980Y-137279I-750J0D01*
G01*
X687150Y-233400D02*
G03*
X683150Y-237400I0J-4000D01*
G01*
Y-245200D02*
G03*
X687150Y-249200I4000J-0D01*
G01*
X709850Y-249200D02*
G03*
X713850Y-245200I-0J4000D01*
G01*
X713850Y-237400D02*
G03*
X709850Y-233400I-4000J0D01*
G01*
X708980Y-197246D02*
G03*
X708980Y-197246I-750J0D01*
G01*
X687150Y-174980D02*
G03*
X683150Y-178980I0J-4000D01*
G01*
Y-186780D02*
G03*
X687150Y-190780I4000J-0D01*
G01*
X709850Y-190780D02*
G03*
X713850Y-186780I-0J4000D01*
G01*
X713850Y-178980D02*
G03*
X709850Y-174980I-4000J0D01*
G01*
X687150Y-116560D02*
G03*
X683150Y-120560I0J-4000D01*
G01*
Y-128360D02*
G03*
X687150Y-132360I4000J-0D01*
G01*
X709850Y-132360D02*
G03*
X713850Y-128360I-0J4000D01*
G01*
X713850Y-120560D02*
G03*
X709850Y-116560I-4000J0D01*
G01*
X708980Y-77312D02*
G03*
X708980Y-77312I-750J0D01*
G01*
X687150Y-415010D02*
G03*
X683150Y-419010I0J-4000D01*
G01*
Y-426810D02*
G03*
X687150Y-430810I4000J-0D01*
G01*
X709850Y-430810D02*
G03*
X713850Y-426810I-0J4000D01*
G01*
X713850Y-419010D02*
G03*
X709850Y-415010I-4000J0D01*
G01*
X708980Y-437115D02*
G03*
X708980Y-437115I-750J0D01*
G01*
X488000D02*
G03*
X488000Y-437115I-750J0D01*
G01*
X492790Y-299630D02*
G03*
X488790Y-295630I-4000J0D01*
G01*
X488790Y-311430D02*
G03*
X492790Y-307430I-0J4000D01*
G01*
X462090Y-307430D02*
G03*
X466090Y-311430I4000J-0D01*
G01*
Y-295630D02*
G03*
X462090Y-299630I0J-4000D01*
G01*
X492870Y-419010D02*
G03*
X488870Y-415010I-4000J0D01*
G01*
X488870Y-430810D02*
G03*
X492870Y-426810I-0J4000D01*
G01*
X462170Y-426810D02*
G03*
X466170Y-430810I4000J-0D01*
G01*
Y-415010D02*
G03*
X462170Y-419010I0J-4000D01*
G01*
X492790Y-359320D02*
G03*
X488790Y-355320I-4000J0D01*
G01*
X488790Y-371120D02*
G03*
X492790Y-367120I-0J4000D01*
G01*
X462090Y-367120D02*
G03*
X466090Y-371120I4000J-0D01*
G01*
Y-355320D02*
G03*
X462090Y-359320I0J-4000D01*
G01*
X492790Y-238670D02*
G03*
X488790Y-234670I-4000J0D01*
G01*
X488790Y-250470D02*
G03*
X492790Y-246470I-0J4000D01*
G01*
X462090Y-246470D02*
G03*
X466090Y-250470I4000J-0D01*
G01*
Y-234670D02*
G03*
X462090Y-238670I0J-4000D01*
G01*
X492790Y-178980D02*
G03*
X488790Y-174980I-4000J0D01*
G01*
X488790Y-190780D02*
G03*
X492790Y-186780I-0J4000D01*
G01*
X462090Y-186780D02*
G03*
X466090Y-190780I4000J-0D01*
G01*
Y-174980D02*
G03*
X462090Y-178980I0J-4000D01*
G01*
X488000Y-137279D02*
G03*
X488000Y-137279I-750J0D01*
G01*
X492790Y-120560D02*
G03*
X488790Y-116560I-4000J0D01*
G01*
X488790Y-132360D02*
G03*
X492790Y-128360I-0J4000D01*
G01*
X462090Y-128360D02*
G03*
X466090Y-132360I4000J-0D01*
G01*
Y-116560D02*
G03*
X462090Y-120560I0J-4000D01*
G01*
X488000Y-77312D02*
G03*
X488000Y-77312I-750J0D01*
G01*
X713850Y-598080D02*
G03*
X709850Y-594080I-4000J0D01*
G01*
X709850Y-609880D02*
G03*
X713850Y-605880I-0J4000D01*
G01*
X683150Y-605880D02*
G03*
X687150Y-609880I4000J-0D01*
G01*
Y-594080D02*
G03*
X683150Y-598080I0J-4000D01*
G01*
X713850Y-659040D02*
G03*
X709850Y-655040I-4000J0D01*
G01*
X709850Y-670840D02*
G03*
X713850Y-666840I-0J4000D01*
G01*
X683150Y-666840D02*
G03*
X687150Y-670840I4000J-0D01*
G01*
Y-655040D02*
G03*
X683150Y-659040I0J-4000D01*
G01*
X29210Y-716000D02*
G03*
X25210Y-720000I0J-4000D01*
G01*
Y-727800D02*
G03*
X29210Y-731800I4000J-0D01*
G01*
X51910Y-731800D02*
G03*
X55910Y-727800I-0J4000D01*
G01*
X55910Y-720000D02*
G03*
X51910Y-716000I-4000J0D01*
G01*
X51970Y-676983D02*
G03*
X51970Y-676983I-750J0D01*
G01*
X55910Y-659040D02*
G03*
X51910Y-655040I-4000J0D01*
G01*
X51910Y-670840D02*
G03*
X55910Y-666840I-0J4000D01*
G01*
X25210Y-666840D02*
G03*
X29210Y-670840I4000J-0D01*
G01*
Y-655040D02*
G03*
X25210Y-659040I0J-4000D01*
G01*
X51970Y-617016D02*
G03*
X51970Y-617016I-750J0D01*
G01*
X55910Y-598080D02*
G03*
X51910Y-594080I-4000J0D01*
G01*
X51910Y-609880D02*
G03*
X55910Y-605880I-0J4000D01*
G01*
X25210Y-605880D02*
G03*
X29210Y-609880I4000J-0D01*
G01*
Y-594080D02*
G03*
X25210Y-598080I0J-4000D01*
G01*
X55910Y-778420D02*
G03*
X51910Y-774420I-4000J0D01*
G01*
X51910Y-790220D02*
G03*
X55910Y-786220I-0J4000D01*
G01*
X25210Y-786220D02*
G03*
X29210Y-790220I4000J-0D01*
G01*
Y-774420D02*
G03*
X25210Y-778420I0J-4000D01*
G01*
X51970Y-736950D02*
G03*
X51970Y-736950I-750J0D01*
G01*
Y-557049D02*
G03*
X51970Y-557049I-750J0D01*
G01*
X55910Y-537120D02*
G03*
X51910Y-533120I-4000J0D01*
G01*
X51910Y-548920D02*
G03*
X55910Y-544920I-0J4000D01*
G01*
X25210Y-544920D02*
G03*
X29210Y-548920I4000J-0D01*
G01*
Y-533120D02*
G03*
X25210Y-537120I0J-4000D01*
G01*
X51970Y-497082D02*
G03*
X51970Y-497082I-750J0D01*
G01*
X55910Y-478700D02*
G03*
X51910Y-474700I-4000J0D01*
G01*
X51910Y-490500D02*
G03*
X55910Y-486500I-0J4000D01*
G01*
X25210Y-486500D02*
G03*
X29210Y-490500I4000J-0D01*
G01*
Y-474700D02*
G03*
X25210Y-478700I0J-4000D01*
G01*
X51970Y-377147D02*
G03*
X51970Y-377147I-750J0D01*
G01*
X55910Y-359320D02*
G03*
X51910Y-355320I-4000J0D01*
G01*
X51910Y-371120D02*
G03*
X55910Y-367120I-0J4000D01*
G01*
X25210Y-367120D02*
G03*
X29210Y-371120I4000J-0D01*
G01*
Y-355320D02*
G03*
X25210Y-359320I0J-4000D01*
G01*
X51970Y-317180D02*
G03*
X51970Y-317180I-750J0D01*
G01*
X55910Y-298360D02*
G03*
X51910Y-294360I-4000J0D01*
G01*
X51910Y-310160D02*
G03*
X55910Y-306160I-0J4000D01*
G01*
X25210Y-306160D02*
G03*
X29210Y-310160I4000J-0D01*
G01*
Y-294360D02*
G03*
X25210Y-298360I0J-4000D01*
G01*
X55910Y-417740D02*
G03*
X51910Y-413740I-4000J0D01*
G01*
X51910Y-429540D02*
G03*
X55910Y-425540I-0J4000D01*
G01*
X25210Y-425540D02*
G03*
X29210Y-429540I4000J-0D01*
G01*
Y-413740D02*
G03*
X25210Y-417740I0J-4000D01*
G01*
X51970Y-257213D02*
G03*
X51970Y-257213I-750J0D01*
G01*
X55910Y-237400D02*
G03*
X51910Y-233400I-4000J0D01*
G01*
X51910Y-249200D02*
G03*
X55910Y-245200I-0J4000D01*
G01*
X25210Y-245200D02*
G03*
X29210Y-249200I4000J-0D01*
G01*
Y-233400D02*
G03*
X25210Y-237400I0J-4000D01*
G01*
X51970Y-197246D02*
G03*
X51970Y-197246I-750J0D01*
G01*
X55910Y-178980D02*
G03*
X51910Y-174980I-4000J0D01*
G01*
X51910Y-190780D02*
G03*
X55910Y-186780I-0J4000D01*
G01*
X25210Y-186780D02*
G03*
X29210Y-190780I4000J-0D01*
G01*
Y-174980D02*
G03*
X25210Y-178980I0J-4000D01*
G01*
X51970Y-137279D02*
G03*
X51970Y-137279I-750J0D01*
G01*
X55910Y-120560D02*
G03*
X51910Y-116560I-4000J0D01*
G01*
X51910Y-132360D02*
G03*
X55910Y-128360I-0J4000D01*
G01*
X25210Y-128360D02*
G03*
X29210Y-132360I4000J-0D01*
G01*
Y-116560D02*
G03*
X25210Y-120560I0J-4000D01*
G01*
X51970Y-77312D02*
G03*
X51970Y-77312I-750J0D01*
G01*
X269560Y-137279D02*
G03*
X269560Y-137279I-750J0D01*
G01*
Y-77312D02*
G03*
X269560Y-77312I-750J0D01*
G01*
X51970Y-437115D02*
G03*
X51970Y-437115I-750J0D01*
G01*
X614002Y-828465D02*
G03*
X614002Y-828465I-750J0D01*
G01*
X390482D02*
G03*
X390482Y-828465I-750J0D01*
G01*
X169502D02*
G03*
X169502Y-828465I-750J0D01*
G01*
X94312D02*
G03*
X94312Y-828465I-750J0D01*
G01*
X312752D02*
G03*
X312752Y-828465I-750J0D01*
G01*
X533732D02*
G03*
X533732Y-828465I-750J0D01*
G01*
X753702D02*
G03*
X753702Y-828465I-750J0D01*
G01*
X829902D02*
G03*
X829902Y-828465I-750J0D01*
G01*
X15050Y-921940D02*
X35750D01*
X15050Y-886540D02*
X35750D01*
X15050Y-899740D02*
Y-886540D01*
Y-921940D02*
Y-908740D01*
X35750Y-921940D02*
Y-908740D01*
Y-899740D02*
Y-886540D01*
X724090Y-899740D02*
Y-886540D01*
Y-921940D02*
Y-908740D01*
X703390Y-921940D02*
Y-908740D01*
Y-899740D02*
Y-886540D01*
X724090D01*
X703390Y-921940D02*
X724090D01*
X693610Y-899740D02*
Y-886540D01*
Y-921940D02*
Y-908740D01*
X672910Y-921940D02*
Y-908740D01*
Y-899740D02*
Y-886540D01*
X693610D01*
X672910Y-921940D02*
X693610D01*
X376670Y-925970D02*
Y-879970D01*
X438670Y-925970D02*
Y-882970D01*
X397670Y-933970D02*
X417670D01*
X397670Y-871970D02*
X417670D01*
X520180Y-925970D02*
Y-879970D01*
X582180Y-925970D02*
Y-882970D01*
X541180Y-933970D02*
X561180D01*
X541180Y-871970D02*
X561180D01*
X457280Y-818070D02*
Y-797370D01*
X492680Y-818070D02*
Y-797370D01*
X479480D02*
X492680D01*
X457280D02*
X470480D01*
X457280Y-818070D02*
X470480D01*
X479480D02*
X492680D01*
X147040Y-849550D02*
Y-842200D01*
X151040Y-822850D02*
X158840D01*
X151040Y-853550D02*
X158840D01*
X147040Y-834200D02*
Y-826850D01*
X162840Y-834200D02*
Y-826850D01*
X162840Y-849550D02*
Y-842200D01*
X220700Y-849550D02*
Y-842200D01*
X224700Y-822850D02*
X232500D01*
X224700Y-853550D02*
X232500D01*
X220700Y-834200D02*
Y-826850D01*
X236500Y-834200D02*
Y-826850D01*
X236500Y-849550D02*
Y-842200D01*
X368020Y-849550D02*
Y-842200D01*
X372020Y-822850D02*
X379820D01*
X372020Y-853550D02*
X379820D01*
X368020Y-834200D02*
Y-826850D01*
X383820Y-834200D02*
Y-826850D01*
X383820Y-849550D02*
Y-842200D01*
X446760Y-849550D02*
Y-842200D01*
X450760Y-822850D02*
X458560D01*
X450760Y-853550D02*
X458560D01*
X446760Y-834200D02*
Y-826850D01*
X462560Y-834200D02*
Y-826850D01*
X462560Y-849550D02*
Y-842200D01*
X586460Y-849550D02*
Y-842200D01*
X590460Y-822850D02*
X598260D01*
X590460Y-853550D02*
X598260D01*
X586460Y-834200D02*
Y-826850D01*
X602260Y-834200D02*
Y-826850D01*
X602260Y-849550D02*
Y-842200D01*
X284670Y-899740D02*
Y-886540D01*
Y-921940D02*
Y-908740D01*
X263970Y-921940D02*
Y-908740D01*
Y-899740D02*
Y-886540D01*
X284670D01*
X263970Y-921940D02*
X284670D01*
X672820Y-849550D02*
Y-842200D01*
X676820Y-822850D02*
X684620D01*
X676820Y-853550D02*
X684620D01*
X672820Y-834200D02*
Y-826850D01*
X688620Y-834200D02*
Y-826850D01*
X688620Y-849550D02*
Y-842200D01*
X807440Y-849550D02*
Y-842200D01*
X811440Y-822850D02*
X819240D01*
X811440Y-853550D02*
X819240D01*
X807440Y-834200D02*
Y-826850D01*
X823240Y-834200D02*
Y-826850D01*
X823240Y-849550D02*
Y-842200D01*
X883640Y-849550D02*
Y-842200D01*
X887640Y-822850D02*
X895440D01*
X887640Y-853550D02*
X895440D01*
X883640Y-834200D02*
Y-826850D01*
X899440Y-834200D02*
Y-826850D01*
X899440Y-849550D02*
Y-842200D01*
X66230Y-899740D02*
Y-886540D01*
Y-921940D02*
Y-908740D01*
X45530Y-921940D02*
Y-908740D01*
Y-899740D02*
Y-886540D01*
X66230D01*
X45530Y-921940D02*
X66230D01*
X240100Y-818070D02*
Y-797370D01*
X275500Y-818070D02*
Y-797370D01*
X262300D02*
X275500D01*
X240100D02*
X253300D01*
X240100Y-818070D02*
X253300D01*
X262300D02*
X275500D01*
X678260D02*
Y-797370D01*
X713660Y-818070D02*
Y-797370D01*
X700460D02*
X713660D01*
X678260D02*
X691460D01*
X678260Y-818070D02*
X691460D01*
X700460D02*
X713660D01*
X20400D02*
Y-797370D01*
X55800Y-818070D02*
Y-797370D01*
X42600D02*
X55800D01*
X20400D02*
X33600D01*
X20400Y-818070D02*
X33600D01*
X42600D02*
X55800D01*
X815730Y-927240D02*
Y-881240D01*
X877730Y-927240D02*
Y-884240D01*
X836730Y-935240D02*
X856730D01*
X836730Y-873240D02*
X856730D01*
X739530Y-926490D02*
Y-880490D01*
X801530Y-926490D02*
Y-883490D01*
X760530Y-934490D02*
X780530D01*
X760530Y-872490D02*
X780530D01*
X596380Y-925970D02*
Y-879970D01*
X658380Y-925970D02*
Y-882970D01*
X617380Y-933970D02*
X637380D01*
X617380Y-871970D02*
X637380D01*
X158230Y-925970D02*
Y-879970D01*
X220230Y-925970D02*
Y-882970D01*
X179230Y-933970D02*
X199230D01*
X179230Y-871970D02*
X199230D01*
X300470Y-925970D02*
Y-879970D01*
X362470Y-925970D02*
Y-882970D01*
X321470Y-933970D02*
X341470D01*
X321470Y-871970D02*
X341470D01*
X82030Y-925970D02*
Y-879970D01*
X144030Y-925970D02*
Y-882970D01*
X103030Y-933970D02*
X123030D01*
X103030Y-871970D02*
X123030D01*
X475170Y-899740D02*
Y-886540D01*
Y-921940D02*
Y-908740D01*
X454470Y-921940D02*
Y-908740D01*
Y-899740D02*
Y-886540D01*
X475170D01*
X454470Y-921940D02*
X475170D01*
X254190Y-899740D02*
Y-886540D01*
Y-921940D02*
Y-908740D01*
X233490Y-921940D02*
Y-908740D01*
Y-899740D02*
Y-886540D01*
X254190D01*
X233490Y-921940D02*
X254190D01*
X505650Y-899740D02*
Y-886540D01*
Y-921940D02*
Y-908740D01*
X484950Y-921940D02*
Y-908740D01*
Y-899740D02*
Y-886540D01*
X505650D01*
X484950Y-921940D02*
X505650D01*
X247730Y-774420D02*
X255080D01*
X274430Y-786220D02*
Y-778420D01*
X243730Y-786220D02*
Y-778420D01*
X263080Y-774420D02*
X270430D01*
X263080Y-790220D02*
X270430D01*
X247730Y-790220D02*
X255080D01*
X247730Y-716000D02*
X255080D01*
X274430Y-727800D02*
Y-720000D01*
X243730Y-727800D02*
Y-720000D01*
X263080Y-716000D02*
X270430D01*
X263080Y-731800D02*
X270430D01*
X247730Y-731800D02*
X255080D01*
X247730Y-594080D02*
X255080D01*
X274430Y-605880D02*
Y-598080D01*
X243730Y-605880D02*
Y-598080D01*
X263080Y-594080D02*
X270430D01*
X263080Y-609880D02*
X270430D01*
X247730Y-609880D02*
X255080D01*
X247730Y-655040D02*
X255080D01*
X274430Y-666840D02*
Y-659040D01*
X243730Y-666840D02*
Y-659040D01*
X263080Y-655040D02*
X270430D01*
X263080Y-670840D02*
X270430D01*
X247730Y-670840D02*
X255080D01*
X247730Y-535660D02*
X255080D01*
X274430Y-547460D02*
Y-539660D01*
X243730Y-547460D02*
Y-539660D01*
X263080Y-535660D02*
X270430D01*
X263080Y-551460D02*
X270430D01*
X247730Y-551460D02*
X255080D01*
X247730Y-474700D02*
X255080D01*
X274430Y-486500D02*
Y-478700D01*
X243730Y-486500D02*
Y-478700D01*
X263080Y-474700D02*
X270430D01*
X263080Y-490500D02*
X270430D01*
X247730Y-490500D02*
X255080D01*
X247730Y-294360D02*
X255080D01*
X274430Y-306160D02*
Y-298360D01*
X243730Y-306160D02*
Y-298360D01*
X263080Y-294360D02*
X270430D01*
X263080Y-310160D02*
X270430D01*
X247730Y-310160D02*
X255080D01*
X247730Y-355320D02*
X255080D01*
X274430Y-367120D02*
Y-359320D01*
X243730Y-367120D02*
Y-359320D01*
X263080Y-355320D02*
X270430D01*
X263080Y-371120D02*
X270430D01*
X247730Y-371120D02*
X255080D01*
X247730Y-233400D02*
X255080D01*
X274430Y-245200D02*
Y-237400D01*
X243730Y-245200D02*
Y-237400D01*
X263080Y-233400D02*
X270430D01*
X263080Y-249200D02*
X270430D01*
X247730Y-249200D02*
X255080D01*
X247730Y-174980D02*
X255080D01*
X274430Y-186780D02*
Y-178980D01*
X243730Y-186780D02*
Y-178980D01*
X263080Y-174980D02*
X270430D01*
X263080Y-190780D02*
X270430D01*
X247730Y-190780D02*
X255080D01*
X247730Y-116560D02*
X255080D01*
X274430Y-128360D02*
Y-120560D01*
X243730Y-128360D02*
Y-120560D01*
X263080Y-116560D02*
X270430D01*
X263080Y-132360D02*
X270430D01*
X247730Y-132360D02*
X255080D01*
X247730Y-413740D02*
X255080D01*
X274430Y-425540D02*
Y-417740D01*
X243730Y-425540D02*
Y-417740D01*
X263080Y-413740D02*
X270430D01*
X263080Y-429540D02*
X270430D01*
X247730Y-429540D02*
X255080D01*
X687150Y-490500D02*
X694500D01*
X702500Y-490500D02*
X709850D01*
X702500Y-474700D02*
X709850D01*
X683150Y-486500D02*
Y-478700D01*
X713850Y-486500D02*
Y-478700D01*
X687150Y-474700D02*
X694500D01*
X687150Y-550190D02*
X694500D01*
X702500Y-550190D02*
X709850D01*
X702500Y-534390D02*
X709850D01*
X683150Y-546190D02*
Y-538390D01*
X713850Y-546190D02*
Y-538390D01*
X687150Y-534390D02*
X694500D01*
X466090Y-774420D02*
X473440D01*
X492790Y-786220D02*
Y-778420D01*
X462090Y-786220D02*
Y-778420D01*
X481440Y-774420D02*
X488790D01*
X481440Y-790220D02*
X488790D01*
X466090Y-790220D02*
X473440D01*
X466090Y-716000D02*
X473440D01*
X492790Y-727800D02*
Y-720000D01*
X462090Y-727800D02*
Y-720000D01*
X481440Y-716000D02*
X488790D01*
X481440Y-731800D02*
X488790D01*
X466090Y-731800D02*
X473440D01*
X466090Y-655040D02*
X473440D01*
X492790Y-666840D02*
Y-659040D01*
X462090Y-666840D02*
Y-659040D01*
X481440Y-655040D02*
X488790D01*
X481440Y-670840D02*
X488790D01*
X466090Y-670840D02*
X473440D01*
X466090Y-594080D02*
X473440D01*
X492790Y-605880D02*
Y-598080D01*
X462090Y-605880D02*
Y-598080D01*
X481440Y-594080D02*
X488790D01*
X481440Y-609880D02*
X488790D01*
X466090Y-609880D02*
X473440D01*
X466170Y-477240D02*
X473520D01*
X492870Y-489040D02*
Y-481240D01*
X462170Y-489040D02*
Y-481240D01*
X481520Y-477240D02*
X488870D01*
X481520Y-493040D02*
X488870D01*
X466170Y-493040D02*
X473520D01*
X466170Y-535660D02*
X473520D01*
X492870Y-547460D02*
Y-539660D01*
X462170Y-547460D02*
Y-539660D01*
X481520Y-535660D02*
X488870D01*
X481520Y-551460D02*
X488870D01*
X466170Y-551460D02*
X473520D01*
X687150Y-774420D02*
X694500D01*
X713850Y-786220D02*
Y-778420D01*
X683150Y-786220D02*
Y-778420D01*
X702500Y-774420D02*
X709850D01*
X702500Y-790220D02*
X709850D01*
X687150Y-790220D02*
X694500D01*
X687150Y-716000D02*
X694500D01*
X713850Y-727800D02*
Y-720000D01*
X683150Y-727800D02*
Y-720000D01*
X702500Y-716000D02*
X709850D01*
X702500Y-731800D02*
X709850D01*
X687150Y-731800D02*
X694500D01*
X687150Y-371120D02*
X694500D01*
X702500Y-371120D02*
X709850D01*
X702500Y-355320D02*
X709850D01*
X683150Y-367120D02*
Y-359320D01*
X713850Y-367120D02*
Y-359320D01*
X687150Y-355320D02*
X694500D01*
X687150Y-311430D02*
X694500D01*
X702500Y-311430D02*
X709850D01*
X702500Y-295630D02*
X709850D01*
X683150Y-307430D02*
Y-299630D01*
X713850Y-307430D02*
Y-299630D01*
X687150Y-295630D02*
X694500D01*
X687150Y-249200D02*
X694500D01*
X702500Y-249200D02*
X709850D01*
X702500Y-233400D02*
X709850D01*
X683150Y-245200D02*
Y-237400D01*
X713850Y-245200D02*
Y-237400D01*
X687150Y-233400D02*
X694500D01*
X687150Y-190780D02*
X694500D01*
X702500Y-190780D02*
X709850D01*
X702500Y-174980D02*
X709850D01*
X683150Y-186780D02*
Y-178980D01*
X713850Y-186780D02*
Y-178980D01*
X687150Y-174980D02*
X694500D01*
X687150Y-132360D02*
X694500D01*
X702500Y-132360D02*
X709850D01*
X702500Y-116560D02*
X709850D01*
X683150Y-128360D02*
Y-120560D01*
X713850Y-128360D02*
Y-120560D01*
X687150Y-116560D02*
X694500D01*
X687150Y-430810D02*
X694500D01*
X702500Y-430810D02*
X709850D01*
X702500Y-415010D02*
X709850D01*
X683150Y-426810D02*
Y-419010D01*
X713850Y-426810D02*
Y-419010D01*
X687150Y-415010D02*
X694500D01*
X466090Y-295630D02*
X473440D01*
X492790Y-307430D02*
Y-299630D01*
X462090Y-307430D02*
Y-299630D01*
X481440Y-295630D02*
X488790D01*
X481440Y-311430D02*
X488790D01*
X466090Y-311430D02*
X473440D01*
X466170Y-415010D02*
X473520D01*
X492870Y-426810D02*
Y-419010D01*
X462170Y-426810D02*
Y-419010D01*
X481520Y-415010D02*
X488870D01*
X481520Y-430810D02*
X488870D01*
X466170Y-430810D02*
X473520D01*
X466090Y-355320D02*
X473440D01*
X492790Y-367120D02*
Y-359320D01*
X462090Y-367120D02*
Y-359320D01*
X481440Y-355320D02*
X488790D01*
X481440Y-371120D02*
X488790D01*
X466090Y-371120D02*
X473440D01*
X466090Y-234670D02*
X473440D01*
X492790Y-246470D02*
Y-238670D01*
X462090Y-246470D02*
Y-238670D01*
X481440Y-234670D02*
X488790D01*
X481440Y-250470D02*
X488790D01*
X466090Y-250470D02*
X473440D01*
X466090Y-174980D02*
X473440D01*
X492790Y-186780D02*
Y-178980D01*
X462090Y-186780D02*
Y-178980D01*
X481440Y-174980D02*
X488790D01*
X481440Y-190780D02*
X488790D01*
X466090Y-190780D02*
X473440D01*
X466090Y-116560D02*
X473440D01*
X492790Y-128360D02*
Y-120560D01*
X462090Y-128360D02*
Y-120560D01*
X481440Y-116560D02*
X488790D01*
X481440Y-132360D02*
X488790D01*
X466090Y-132360D02*
X473440D01*
X687150Y-594080D02*
X694500D01*
X713850Y-605880D02*
Y-598080D01*
X683150Y-605880D02*
Y-598080D01*
X702500Y-594080D02*
X709850D01*
X702500Y-609880D02*
X709850D01*
X687150Y-609880D02*
X694500D01*
X687150Y-655040D02*
X694500D01*
X713850Y-666840D02*
Y-659040D01*
X683150Y-666840D02*
Y-659040D01*
X702500Y-655040D02*
X709850D01*
X702500Y-670840D02*
X709850D01*
X687150Y-670840D02*
X694500D01*
X29210Y-731800D02*
X36560D01*
X44560Y-731800D02*
X51910D01*
X44560Y-716000D02*
X51910D01*
X25210Y-727800D02*
Y-720000D01*
X55910Y-727800D02*
Y-720000D01*
X29210Y-716000D02*
X36560D01*
X29210Y-655040D02*
X36560D01*
X55910Y-666840D02*
Y-659040D01*
X25210Y-666840D02*
Y-659040D01*
X44560Y-655040D02*
X51910D01*
X44560Y-670840D02*
X51910D01*
X29210Y-670840D02*
X36560D01*
X29210Y-594080D02*
X36560D01*
X55910Y-605880D02*
Y-598080D01*
X25210Y-605880D02*
Y-598080D01*
X44560Y-594080D02*
X51910D01*
X44560Y-609880D02*
X51910D01*
X29210Y-609880D02*
X36560D01*
X29210Y-774420D02*
X36560D01*
X55910Y-786220D02*
Y-778420D01*
X25210Y-786220D02*
Y-778420D01*
X44560Y-774420D02*
X51910D01*
X44560Y-790220D02*
X51910D01*
X29210Y-790220D02*
X36560D01*
X29210Y-533120D02*
X36560D01*
X55910Y-544920D02*
Y-537120D01*
X25210Y-544920D02*
Y-537120D01*
X44560Y-533120D02*
X51910D01*
X44560Y-548920D02*
X51910D01*
X29210Y-548920D02*
X36560D01*
X29210Y-474700D02*
X36560D01*
X55910Y-486500D02*
Y-478700D01*
X25210Y-486500D02*
Y-478700D01*
X44560Y-474700D02*
X51910D01*
X44560Y-490500D02*
X51910D01*
X29210Y-490500D02*
X36560D01*
X29210Y-355320D02*
X36560D01*
X55910Y-367120D02*
Y-359320D01*
X25210Y-367120D02*
Y-359320D01*
X44560Y-355320D02*
X51910D01*
X44560Y-371120D02*
X51910D01*
X29210Y-371120D02*
X36560D01*
X29210Y-294360D02*
X36560D01*
X55910Y-306160D02*
Y-298360D01*
X25210Y-306160D02*
Y-298360D01*
X44560Y-294360D02*
X51910D01*
X44560Y-310160D02*
X51910D01*
X29210Y-310160D02*
X36560D01*
X29210Y-413740D02*
X36560D01*
X55910Y-425540D02*
Y-417740D01*
X25210Y-425540D02*
Y-417740D01*
X44560Y-413740D02*
X51910D01*
X44560Y-429540D02*
X51910D01*
X29210Y-429540D02*
X36560D01*
X29210Y-233400D02*
X36560D01*
X55910Y-245200D02*
Y-237400D01*
X25210Y-245200D02*
Y-237400D01*
X44560Y-233400D02*
X51910D01*
X44560Y-249200D02*
X51910D01*
X29210Y-249200D02*
X36560D01*
X29210Y-174980D02*
X36560D01*
X55910Y-186780D02*
Y-178980D01*
X25210Y-186780D02*
Y-178980D01*
X44560Y-174980D02*
X51910D01*
X44560Y-190780D02*
X51910D01*
X29210Y-190780D02*
X36560D01*
X29210Y-116560D02*
X36560D01*
X55910Y-128360D02*
Y-120560D01*
X25210Y-128360D02*
Y-120560D01*
X44560Y-116560D02*
X51910D01*
X44560Y-132360D02*
X51910D01*
X29210Y-132360D02*
X36560D01*
X947720Y-766580D02*
Y-690880D01*
X921720Y-767180D02*
Y-690880D01*
Y-767080D02*
X947720D01*
X921720Y-690880D02*
X947720D01*
X921720Y-387160D02*
X947720D01*
X921720Y-649160D02*
Y-387160D01*
X947720Y-649160D02*
Y-387160D01*
X921720Y-649160D02*
X947720D01*
D11*
X302327Y-812250D02*
X437327D01*
X302327D02*
Y-32250D01*
X437327Y-812250D02*
Y-32250D01*
X302327D02*
X437327D01*
X740900Y-812250D02*
X875900D01*
X740900D02*
Y-32250D01*
X875900Y-812250D02*
Y-32250D01*
X740900D02*
X875900D01*
X521613D02*
X656613D01*
Y-812250D02*
Y-32250D01*
X521613Y-812250D02*
Y-32250D01*
Y-812250D02*
X656613D01*
X83040Y-32250D02*
X218040D01*
Y-812250D02*
Y-32250D01*
X83040Y-812250D02*
Y-32250D01*
Y-812250D02*
X218040D01*
X929640Y-683260D02*
Y-686646D01*
Y-684953D01*
X939797D01*
X938104Y-683260D01*
X929640Y-378460D02*
Y-381846D01*
Y-380153D01*
X939797D01*
X938104Y-378460D01*
D12*
X249500Y-756068D02*
Y-751168D01*
X269500Y-756068D02*
Y-751168D01*
X467940Y-756068D02*
Y-751168D01*
X487940Y-756068D02*
Y-751168D01*
X269080Y-695870D02*
Y-690970D01*
X249080Y-695870D02*
Y-690970D01*
X249500Y-636134D02*
Y-631234D01*
X269500Y-636134D02*
Y-631234D01*
X487940Y-696101D02*
Y-691201D01*
X467940Y-696101D02*
Y-691201D01*
Y-636134D02*
Y-631234D01*
X487940Y-636134D02*
Y-631234D01*
Y-576167D02*
Y-571267D01*
X467940Y-576167D02*
Y-571267D01*
X269500Y-576167D02*
Y-571267D01*
X249500Y-576167D02*
Y-571267D01*
Y-516200D02*
Y-511300D01*
X269500Y-516200D02*
Y-511300D01*
X467940Y-516200D02*
Y-511300D01*
X487940Y-516200D02*
Y-511300D01*
X467940Y-396265D02*
Y-391366D01*
X487940Y-396265D02*
Y-391366D01*
Y-336298D02*
Y-331398D01*
X467940Y-336298D02*
Y-331398D01*
Y-276331D02*
Y-271431D01*
X487940Y-276331D02*
Y-271431D01*
X249500Y-276331D02*
Y-271431D01*
X269500Y-276331D02*
Y-271431D01*
X249500Y-396265D02*
Y-391366D01*
X269500Y-396265D02*
Y-391366D01*
Y-336298D02*
Y-331398D01*
X249500Y-336298D02*
Y-331398D01*
X269500Y-216364D02*
Y-211464D01*
X249500Y-216364D02*
Y-211464D01*
X487940Y-216364D02*
Y-211464D01*
X467940Y-216364D02*
Y-211464D01*
X269500Y-456233D02*
Y-451333D01*
X249500Y-456233D02*
Y-451333D01*
X708920Y-576167D02*
Y-571267D01*
X688920Y-576167D02*
Y-571267D01*
Y-516200D02*
Y-511300D01*
X708920Y-516200D02*
Y-511300D01*
X688920Y-756068D02*
Y-751168D01*
X708920Y-756068D02*
Y-751168D01*
Y-696101D02*
Y-691201D01*
X688920Y-696101D02*
Y-691201D01*
Y-636134D02*
Y-631234D01*
X708920Y-636134D02*
Y-631234D01*
X688920Y-396265D02*
Y-391366D01*
X708920Y-396265D02*
Y-391366D01*
X688920Y-276331D02*
Y-271431D01*
X708920Y-276331D02*
Y-271431D01*
Y-336298D02*
Y-331398D01*
X688920Y-336298D02*
Y-331398D01*
X708920Y-156397D02*
Y-151497D01*
X688920Y-156397D02*
Y-151497D01*
X708920Y-216364D02*
Y-211464D01*
X688920Y-216364D02*
Y-211464D01*
X708920Y-96430D02*
Y-91530D01*
X688920Y-96430D02*
Y-91530D01*
X708920Y-456233D02*
Y-451333D01*
X688920Y-456233D02*
Y-451333D01*
X487940Y-456233D02*
Y-451333D01*
X467940Y-456233D02*
Y-451333D01*
X487940Y-156397D02*
Y-151497D01*
X467940Y-156397D02*
Y-151497D01*
X487940Y-96430D02*
Y-91530D01*
X467940Y-96430D02*
Y-91530D01*
X51910Y-696101D02*
Y-691201D01*
X31910Y-696101D02*
Y-691201D01*
Y-636134D02*
Y-631234D01*
X51910Y-636134D02*
Y-631234D01*
X31910Y-756068D02*
Y-751168D01*
X51910Y-756068D02*
Y-751168D01*
Y-576167D02*
Y-571267D01*
X31910Y-576167D02*
Y-571267D01*
Y-516200D02*
Y-511300D01*
X51910Y-516200D02*
Y-511300D01*
X31910Y-396265D02*
Y-391366D01*
X51910Y-396265D02*
Y-391366D01*
Y-336298D02*
Y-331398D01*
X31910Y-336298D02*
Y-331398D01*
Y-276331D02*
Y-271431D01*
X51910Y-276331D02*
Y-271431D01*
Y-216364D02*
Y-211464D01*
X31910Y-216364D02*
Y-211464D01*
X51910Y-156397D02*
Y-151497D01*
X31910Y-156397D02*
Y-151497D01*
X51910Y-96430D02*
Y-91530D01*
X31910Y-96430D02*
Y-91530D01*
X269500Y-156397D02*
Y-151497D01*
X249500Y-156397D02*
Y-151497D01*
X269500Y-96430D02*
Y-91530D01*
X249500Y-96430D02*
Y-91530D01*
X51910Y-456233D02*
Y-451333D01*
X31910Y-456233D02*
Y-451333D01*
X627470Y-827775D02*
X632370D01*
X627470Y-847775D02*
X632370D01*
X403950Y-827775D02*
X408850D01*
X403950Y-847775D02*
X408850D01*
X182970Y-827775D02*
X187870D01*
X182970Y-847775D02*
X187870D01*
X107780D02*
X112680D01*
X107780Y-827775D02*
X112680D01*
X326220Y-847775D02*
X331120D01*
X326220Y-827775D02*
X331120D01*
X547200Y-847775D02*
X552100D01*
X547200Y-827775D02*
X552100D01*
X767170Y-847775D02*
X772070D01*
X767170Y-827775D02*
X772070D01*
X843370D02*
X848270D01*
X843370Y-847775D02*
X848270D01*
D13*
X673102Y-930911D02*
X671198Y-929007D01*
X667389D01*
X665485Y-930911D01*
Y-932816D01*
X667389Y-934720D01*
X671198D01*
X673102Y-936624D01*
Y-938529D01*
X671198Y-940433D01*
X667389D01*
X665485Y-938529D01*
X676911Y-929007D02*
Y-940433D01*
X680720Y-936624D01*
X684529Y-940433D01*
Y-929007D01*
X695955D02*
X692146Y-930911D01*
X688338Y-934720D01*
Y-938529D01*
X690242Y-940433D01*
X694051D01*
X695955Y-938529D01*
Y-936624D01*
X694051Y-934720D01*
X688338D01*
X892046Y-751970D02*
X890141Y-750066D01*
X886332D01*
X884428Y-751970D01*
Y-759588D01*
X886332Y-761492D01*
X890141D01*
X892046Y-759588D01*
Y-755779D01*
X888237D01*
X895854Y-761492D02*
Y-750066D01*
X903472Y-761492D01*
Y-750066D01*
X907281D02*
Y-761492D01*
X912994D01*
X914898Y-759588D01*
Y-751970D01*
X912994Y-750066D01*
X907281D01*
X903472Y-601617D02*
X895854D01*
Y-607330D01*
X899663D01*
X895854D01*
Y-613043D01*
X912994D02*
Y-601617D01*
X907281Y-607330D01*
X914898D01*
X903472Y-576358D02*
X895854D01*
Y-582071D01*
X899663D01*
X895854D01*
Y-587784D01*
X907281Y-578262D02*
X909185Y-576358D01*
X912994D01*
X914898Y-578262D01*
Y-580167D01*
X912994Y-582071D01*
X911089D01*
X912994D01*
X914898Y-583975D01*
Y-585880D01*
X912994Y-587784D01*
X909185D01*
X907281Y-585880D01*
X892046Y-628780D02*
X890141Y-626876D01*
X886332D01*
X884428Y-628780D01*
Y-636398D01*
X886332Y-638302D01*
X890141D01*
X892046Y-636398D01*
Y-632589D01*
X888237D01*
X895854Y-638302D02*
Y-626876D01*
X903472Y-638302D01*
Y-626876D01*
X907281D02*
Y-638302D01*
X912994D01*
X914898Y-636398D01*
Y-628780D01*
X912994Y-626876D01*
X907281D01*
X884428Y-696726D02*
Y-704343D01*
X888237Y-708152D01*
X892046Y-704343D01*
Y-696726D01*
X895854D02*
Y-708152D01*
X903472D01*
X907281Y-696726D02*
Y-708152D01*
X912994D01*
X914898Y-706248D01*
Y-698630D01*
X912994Y-696726D01*
X907281D01*
X884428Y-724666D02*
Y-736092D01*
X892046D01*
X895854Y-724666D02*
Y-736092D01*
X901568D01*
X903472Y-734188D01*
Y-726570D01*
X901568Y-724666D01*
X895854D01*
X907281D02*
X911089D01*
X909185D01*
Y-736092D01*
X907281D01*
X911089D01*
X907281Y-525840D02*
X899663D01*
Y-531553D01*
X903472D01*
X899663D01*
Y-537267D01*
X911089D02*
X914898D01*
X912994D01*
Y-525840D01*
X911089Y-527745D01*
X884428Y-474052D02*
Y-485479D01*
X890141D01*
X892046Y-483574D01*
Y-481670D01*
X890141Y-479766D01*
X884428D01*
X890141D01*
X892046Y-477861D01*
Y-475957D01*
X890141Y-474052D01*
X884428D01*
X895854D02*
X903472D01*
X899663D01*
Y-485479D01*
X907281D02*
Y-474052D01*
X914898Y-485479D01*
Y-474052D01*
X903472Y-551099D02*
X895854D01*
Y-556812D01*
X899663D01*
X895854D01*
Y-562525D01*
X914898D02*
X907281D01*
X914898Y-554908D01*
Y-553003D01*
X912994Y-551099D01*
X909185D01*
X907281Y-553003D01*
X892046Y-450698D02*
X890141Y-448793D01*
X886332D01*
X884428Y-450698D01*
Y-458316D01*
X886332Y-460220D01*
X890141D01*
X892046Y-458316D01*
X895854Y-448793D02*
Y-460220D01*
X903472D01*
X907281Y-448793D02*
Y-460220D01*
Y-456411D01*
X914898Y-448793D01*
X909185Y-454507D01*
X914898Y-460220D01*
X884428Y-400180D02*
X886332Y-398276D01*
X890141D01*
X892046Y-400180D01*
Y-402085D01*
X890141Y-403989D01*
X888237D01*
X890141D01*
X892046Y-405893D01*
Y-407798D01*
X890141Y-409702D01*
X886332D01*
X884428Y-407798D01*
X895854Y-398276D02*
Y-405893D01*
X899663Y-409702D01*
X903472Y-405893D01*
Y-398276D01*
X907281Y-400180D02*
X909185Y-398276D01*
X912994D01*
X914898Y-400180D01*
Y-402085D01*
X912994Y-403989D01*
X911089D01*
X912994D01*
X914898Y-405893D01*
Y-407798D01*
X912994Y-409702D01*
X909185D01*
X907281Y-407798D01*
X903472Y-425439D02*
X901568Y-423535D01*
X897759D01*
X895854Y-425439D01*
Y-427343D01*
X897759Y-429248D01*
X901568D01*
X903472Y-431152D01*
Y-433057D01*
X901568Y-434961D01*
X897759D01*
X895854Y-433057D01*
X914898Y-425439D02*
X912994Y-423535D01*
X909185D01*
X907281Y-425439D01*
Y-427343D01*
X909185Y-429248D01*
X912994D01*
X914898Y-431152D01*
Y-433057D01*
X912994Y-434961D01*
X909185D01*
X907281Y-433057D01*
X895854Y-499311D02*
Y-510738D01*
X903472D01*
X907281Y-499311D02*
Y-510738D01*
X912994D01*
X914898Y-508833D01*
Y-501216D01*
X912994Y-499311D01*
X907281D01*
X663577Y-113025D02*
X675003D01*
Y-107312D01*
X673099Y-105407D01*
X665481D01*
X663577Y-107312D01*
Y-113025D01*
Y-93981D02*
Y-101599D01*
X669290D01*
X667386Y-97790D01*
Y-95886D01*
X669290Y-93981D01*
X673099D01*
X675003Y-95886D01*
Y-99694D01*
X673099Y-101599D01*
X663577Y-82555D02*
X665481Y-86364D01*
X669290Y-90172D01*
X673099D01*
X675003Y-88268D01*
Y-84459D01*
X673099Y-82555D01*
X671194D01*
X669290Y-84459D01*
Y-90172D01*
X663577Y-172715D02*
X675003D01*
Y-167002D01*
X673099Y-165098D01*
X665481D01*
X663577Y-167002D01*
Y-172715D01*
Y-153671D02*
Y-161289D01*
X669290D01*
X667386Y-157480D01*
Y-155576D01*
X669290Y-153671D01*
X673099D01*
X675003Y-155576D01*
Y-159384D01*
X673099Y-161289D01*
X663577Y-142245D02*
Y-149862D01*
X669290D01*
X667386Y-146054D01*
Y-144149D01*
X669290Y-142245D01*
X673099D01*
X675003Y-144149D01*
Y-147958D01*
X673099Y-149862D01*
X446407Y-114295D02*
X457833D01*
Y-108582D01*
X455929Y-106678D01*
X448311D01*
X446407Y-108582D01*
Y-114295D01*
X457833Y-97156D02*
X446407D01*
X452120Y-102869D01*
Y-95251D01*
X457833Y-85729D02*
X446407D01*
X452120Y-91442D01*
Y-83825D01*
X446407Y-173985D02*
X457833D01*
Y-168272D01*
X455929Y-166367D01*
X448311D01*
X446407Y-168272D01*
Y-173985D01*
X457833Y-156846D02*
X446407D01*
X452120Y-162559D01*
Y-154941D01*
X448311Y-151132D02*
X446407Y-149228D01*
Y-145419D01*
X448311Y-143515D01*
X450216D01*
X452120Y-145419D01*
Y-147324D01*
Y-145419D01*
X454024Y-143515D01*
X455929D01*
X457833Y-145419D01*
Y-149228D01*
X455929Y-151132D01*
X225427Y-114295D02*
X236853D01*
Y-108582D01*
X234949Y-106678D01*
X227331D01*
X225427Y-108582D01*
Y-114295D01*
X227331Y-102869D02*
X225427Y-100964D01*
Y-97156D01*
X227331Y-95251D01*
X229236D01*
X231140Y-97156D01*
Y-99060D01*
Y-97156D01*
X233044Y-95251D01*
X234949D01*
X236853Y-97156D01*
Y-100964D01*
X234949Y-102869D01*
X236853Y-83825D02*
Y-91442D01*
X229236Y-83825D01*
X227331D01*
X225427Y-85729D01*
Y-89538D01*
X227331Y-91442D01*
X225427Y-172081D02*
X236853D01*
Y-166368D01*
X234949Y-164463D01*
X227331D01*
X225427Y-166368D01*
Y-172081D01*
X227331Y-160654D02*
X225427Y-158750D01*
Y-154941D01*
X227331Y-153037D01*
X229236D01*
X231140Y-154941D01*
Y-156846D01*
Y-154941D01*
X233044Y-153037D01*
X234949D01*
X236853Y-154941D01*
Y-158750D01*
X234949Y-160654D01*
X236853Y-149228D02*
Y-145419D01*
Y-147324D01*
X225427D01*
X227331Y-149228D01*
X10797Y-114295D02*
X22223D01*
Y-108582D01*
X20319Y-106678D01*
X12701D01*
X10797Y-108582D01*
Y-114295D01*
X22223Y-95251D02*
Y-102869D01*
X14606Y-95251D01*
X12701D01*
X10797Y-97156D01*
Y-100964D01*
X12701Y-102869D01*
Y-91442D02*
X10797Y-89538D01*
Y-85729D01*
X12701Y-83825D01*
X20319D01*
X22223Y-85729D01*
Y-89538D01*
X20319Y-91442D01*
X12701D01*
X10797Y-174303D02*
X22223D01*
Y-168590D01*
X20319Y-166685D01*
X12701D01*
X10797Y-168590D01*
Y-174303D01*
X22223Y-162877D02*
Y-159068D01*
Y-160972D01*
X10797D01*
X12701Y-162877D01*
X20319Y-153355D02*
X22223Y-151450D01*
Y-147641D01*
X20319Y-145737D01*
X12701D01*
X10797Y-147641D01*
Y-151450D01*
X12701Y-153355D01*
X14606D01*
X16510Y-151450D01*
Y-145737D01*
X727711Y-132078D02*
X725807Y-133982D01*
Y-137791D01*
X727711Y-139695D01*
X735329D01*
X737233Y-137791D01*
Y-133982D01*
X735329Y-132078D01*
X725807Y-120651D02*
Y-128269D01*
X731520D01*
X729616Y-124460D01*
Y-122556D01*
X731520Y-120651D01*
X735329D01*
X737233Y-122556D01*
Y-126364D01*
X735329Y-128269D01*
X725807Y-116842D02*
Y-109225D01*
X727711D01*
X735329Y-116842D01*
X737233D01*
X727711Y-187957D02*
X725807Y-189862D01*
Y-193671D01*
X727711Y-195575D01*
X735329D01*
X737233Y-193671D01*
Y-189862D01*
X735329Y-187957D01*
X725807Y-176531D02*
Y-184149D01*
X731520D01*
X729616Y-180340D01*
Y-178436D01*
X731520Y-176531D01*
X735329D01*
X737233Y-178436D01*
Y-182244D01*
X735329Y-184149D01*
X725807Y-165105D02*
X727711Y-168914D01*
X731520Y-172722D01*
X735329D01*
X737233Y-170818D01*
Y-167009D01*
X735329Y-165105D01*
X733424D01*
X731520Y-167009D01*
Y-172722D01*
X727711Y-246378D02*
X725807Y-248282D01*
Y-252091D01*
X727711Y-253995D01*
X735329D01*
X737233Y-252091D01*
Y-248282D01*
X735329Y-246378D01*
X725807Y-234951D02*
Y-242569D01*
X731520D01*
X729616Y-238760D01*
Y-236856D01*
X731520Y-234951D01*
X735329D01*
X737233Y-236856D01*
Y-240664D01*
X735329Y-242569D01*
X725807Y-223525D02*
Y-231142D01*
X731520D01*
X729616Y-227334D01*
Y-225429D01*
X731520Y-223525D01*
X735329D01*
X737233Y-225429D01*
Y-229238D01*
X735329Y-231142D01*
X727711Y-311147D02*
X725807Y-313052D01*
Y-316861D01*
X727711Y-318765D01*
X735329D01*
X737233Y-316861D01*
Y-313052D01*
X735329Y-311147D01*
X725807Y-299721D02*
Y-307339D01*
X731520D01*
X729616Y-303530D01*
Y-301626D01*
X731520Y-299721D01*
X735329D01*
X737233Y-301626D01*
Y-305434D01*
X735329Y-307339D01*
X737233Y-290199D02*
X725807D01*
X731520Y-295912D01*
Y-288295D01*
X727711Y-370838D02*
X725807Y-372742D01*
Y-376551D01*
X727711Y-378455D01*
X735329D01*
X737233Y-376551D01*
Y-372742D01*
X735329Y-370838D01*
X725807Y-359411D02*
Y-367029D01*
X731520D01*
X729616Y-363220D01*
Y-361316D01*
X731520Y-359411D01*
X735329D01*
X737233Y-361316D01*
Y-365124D01*
X735329Y-367029D01*
X727711Y-355602D02*
X725807Y-353698D01*
Y-349889D01*
X727711Y-347985D01*
X729616D01*
X731520Y-349889D01*
Y-351794D01*
Y-349889D01*
X733424Y-347985D01*
X735329D01*
X737233Y-349889D01*
Y-353698D01*
X735329Y-355602D01*
X727711Y-430527D02*
X725807Y-432432D01*
Y-436241D01*
X727711Y-438145D01*
X735329D01*
X737233Y-436241D01*
Y-432432D01*
X735329Y-430527D01*
X725807Y-419101D02*
Y-426719D01*
X731520D01*
X729616Y-422910D01*
Y-421006D01*
X731520Y-419101D01*
X735329D01*
X737233Y-421006D01*
Y-424814D01*
X735329Y-426719D01*
X737233Y-407675D02*
Y-415292D01*
X729616Y-407675D01*
X727711D01*
X725807Y-409579D01*
Y-413388D01*
X727711Y-415292D01*
X727711Y-488313D02*
X725807Y-490218D01*
Y-494026D01*
X727711Y-495931D01*
X735329D01*
X737233Y-494026D01*
Y-490218D01*
X735329Y-488313D01*
X725807Y-476887D02*
Y-484504D01*
X731520D01*
X729616Y-480696D01*
Y-478791D01*
X731520Y-476887D01*
X735329D01*
X737233Y-478791D01*
Y-482600D01*
X735329Y-484504D01*
X737233Y-473078D02*
Y-469269D01*
Y-471174D01*
X725807D01*
X727711Y-473078D01*
X727711Y-549907D02*
X725807Y-551812D01*
Y-555621D01*
X727711Y-557525D01*
X735329D01*
X737233Y-555621D01*
Y-551812D01*
X735329Y-549907D01*
X725807Y-538481D02*
Y-546099D01*
X731520D01*
X729616Y-542290D01*
Y-540386D01*
X731520Y-538481D01*
X735329D01*
X737233Y-540386D01*
Y-544194D01*
X735329Y-546099D01*
X727711Y-534672D02*
X725807Y-532768D01*
Y-528959D01*
X727711Y-527055D01*
X735329D01*
X737233Y-528959D01*
Y-532768D01*
X735329Y-534672D01*
X727711D01*
X69343Y-732851D02*
X67439Y-734756D01*
Y-738565D01*
X69343Y-740469D01*
X76961D01*
X78865Y-738565D01*
Y-734756D01*
X76961Y-732851D01*
X78865Y-729043D02*
Y-725234D01*
Y-727138D01*
X67439D01*
X69343Y-729043D01*
Y-719521D02*
X67439Y-717616D01*
Y-713808D01*
X69343Y-711903D01*
X76961D01*
X78865Y-713808D01*
Y-717616D01*
X76961Y-719521D01*
X69343D01*
X791215Y-13337D02*
Y-20954D01*
X795024Y-24763D01*
X798832Y-20954D01*
Y-13337D01*
X802641Y-24763D02*
Y-13337D01*
X808354D01*
X810259Y-15241D01*
Y-19050D01*
X808354Y-20954D01*
X802641D01*
X806450D02*
X810259Y-24763D01*
X819781D02*
Y-13337D01*
X814068Y-19050D01*
X821685D01*
X575315Y-13337D02*
Y-20954D01*
X579124Y-24763D01*
X582933Y-20954D01*
Y-13337D01*
X586741Y-24763D02*
Y-13337D01*
X592454D01*
X594359Y-15241D01*
Y-19050D01*
X592454Y-20954D01*
X586741D01*
X590550D02*
X594359Y-24763D01*
X598168Y-15241D02*
X600072Y-13337D01*
X603881D01*
X605785Y-15241D01*
Y-17146D01*
X603881Y-19050D01*
X601976D01*
X603881D01*
X605785Y-20954D01*
Y-22859D01*
X603881Y-24763D01*
X600072D01*
X598168Y-22859D01*
X359415Y-13337D02*
Y-20954D01*
X363224Y-24763D01*
X367033Y-20954D01*
Y-13337D01*
X370841Y-24763D02*
Y-13337D01*
X376554D01*
X378459Y-15241D01*
Y-19050D01*
X376554Y-20954D01*
X370841D01*
X374650D02*
X378459Y-24763D01*
X389885D02*
X382268D01*
X389885Y-17146D01*
Y-15241D01*
X387981Y-13337D01*
X384172D01*
X382268Y-15241D01*
X139069Y-13337D02*
Y-20954D01*
X142878Y-24763D01*
X146687Y-20954D01*
Y-13337D01*
X150496Y-24763D02*
Y-13337D01*
X156209D01*
X158113Y-15241D01*
Y-19050D01*
X156209Y-20954D01*
X150496D01*
X154304D02*
X158113Y-24763D01*
X161922D02*
X165731D01*
X163826D01*
Y-13337D01*
X161922Y-15241D01*
X894082Y-930911D02*
X892178Y-929007D01*
X888369D01*
X886465Y-930911D01*
Y-932816D01*
X888369Y-934720D01*
X892178D01*
X894082Y-936624D01*
Y-938529D01*
X892178Y-940433D01*
X888369D01*
X886465Y-938529D01*
X897891Y-929007D02*
Y-940433D01*
X901700Y-936624D01*
X905509Y-940433D01*
Y-929007D01*
X909318Y-930911D02*
X911222Y-929007D01*
X915031D01*
X916935Y-930911D01*
Y-932816D01*
X915031Y-934720D01*
X916935Y-936624D01*
Y-938529D01*
X915031Y-940433D01*
X911222D01*
X909318Y-938529D01*
Y-936624D01*
X911222Y-934720D01*
X909318Y-932816D01*
Y-930911D01*
X911222Y-934720D02*
X915031D01*
X708662Y-930911D02*
X706758Y-929007D01*
X702949D01*
X701045Y-930911D01*
Y-932816D01*
X702949Y-934720D01*
X706758D01*
X708662Y-936624D01*
Y-938529D01*
X706758Y-940433D01*
X702949D01*
X701045Y-938529D01*
X712471Y-929007D02*
Y-940433D01*
X716280Y-936624D01*
X720089Y-940433D01*
Y-929007D01*
X723898D02*
X731515D01*
Y-930911D01*
X723898Y-938529D01*
Y-940433D01*
X271782Y-930911D02*
X269878Y-929007D01*
X266069D01*
X264165Y-930911D01*
Y-932816D01*
X266069Y-934720D01*
X269878D01*
X271782Y-936624D01*
Y-938529D01*
X269878Y-940433D01*
X266069D01*
X264165Y-938529D01*
X275591Y-929007D02*
Y-940433D01*
X279400Y-936624D01*
X283209Y-940433D01*
Y-929007D01*
X294635D02*
X287018D01*
Y-934720D01*
X290826Y-932816D01*
X292731D01*
X294635Y-934720D01*
Y-938529D01*
X292731Y-940433D01*
X288922D01*
X287018Y-938529D01*
X233682Y-930911D02*
X231778Y-929007D01*
X227969D01*
X226065Y-930911D01*
Y-932816D01*
X227969Y-934720D01*
X231778D01*
X233682Y-936624D01*
Y-938529D01*
X231778Y-940433D01*
X227969D01*
X226065Y-938529D01*
X237491Y-929007D02*
Y-940433D01*
X241300Y-936624D01*
X245109Y-940433D01*
Y-929007D01*
X254631Y-940433D02*
Y-929007D01*
X248918Y-934720D01*
X256535D01*
X491493Y-930911D02*
X489588Y-929007D01*
X485779D01*
X483875Y-930911D01*
Y-932816D01*
X485779Y-934720D01*
X489588D01*
X491493Y-936624D01*
Y-938529D01*
X489588Y-940433D01*
X485779D01*
X483875Y-938529D01*
X495301Y-929007D02*
Y-940433D01*
X499110Y-936624D01*
X502919Y-940433D01*
Y-929007D01*
X506728Y-930911D02*
X508632Y-929007D01*
X512441D01*
X514345Y-930911D01*
Y-932816D01*
X512441Y-934720D01*
X510536D01*
X512441D01*
X514345Y-936624D01*
Y-938529D01*
X512441Y-940433D01*
X508632D01*
X506728Y-938529D01*
X453392Y-930911D02*
X451488Y-929007D01*
X447679D01*
X445775Y-930911D01*
Y-932816D01*
X447679Y-934720D01*
X451488D01*
X453392Y-936624D01*
Y-938529D01*
X451488Y-940433D01*
X447679D01*
X445775Y-938529D01*
X457201Y-929007D02*
Y-940433D01*
X461010Y-936624D01*
X464819Y-940433D01*
Y-929007D01*
X476245Y-940433D02*
X468628D01*
X476245Y-932816D01*
Y-930911D01*
X474341Y-929007D01*
X470532D01*
X468628Y-930911D01*
X55247D02*
X53342Y-929007D01*
X49534D01*
X47629Y-930911D01*
Y-932816D01*
X49534Y-934720D01*
X53342D01*
X55247Y-936624D01*
Y-938529D01*
X53342Y-940433D01*
X49534D01*
X47629Y-938529D01*
X59056Y-929007D02*
Y-940433D01*
X62864Y-936624D01*
X66673Y-940433D01*
Y-929007D01*
X70482Y-940433D02*
X74291D01*
X72386D01*
Y-929007D01*
X70482Y-930911D01*
X696917Y-879473D02*
Y-868047D01*
X702630D01*
X704535Y-869951D01*
Y-873760D01*
X702630Y-875664D01*
X696917D01*
X700726D02*
X704535Y-879473D01*
X708343D02*
X712152D01*
X710248D01*
Y-868047D01*
X708343Y-869951D01*
X725483Y-879473D02*
X717865D01*
X725483Y-871856D01*
Y-869951D01*
X723578Y-868047D01*
X719770D01*
X717865Y-869951D01*
X480060Y-878586D02*
Y-867160D01*
X485773D01*
X487677Y-869064D01*
Y-872873D01*
X485773Y-874777D01*
X480060D01*
X483869D02*
X487677Y-878586D01*
X491486D02*
X495295D01*
X493391D01*
Y-867160D01*
X491486Y-869064D01*
X501008Y-878586D02*
X504817D01*
X502913D01*
Y-867160D01*
X501008Y-869064D01*
X262577Y-879473D02*
Y-868047D01*
X268290D01*
X270195Y-869951D01*
Y-873760D01*
X268290Y-875664D01*
X262577D01*
X266386D02*
X270195Y-879473D01*
X274003D02*
X277812D01*
X275908D01*
Y-868047D01*
X274003Y-869951D01*
X283525D02*
X285430Y-868047D01*
X289238D01*
X291143Y-869951D01*
Y-877569D01*
X289238Y-879473D01*
X285430D01*
X283525Y-877569D01*
Y-869951D01*
X46482Y-878596D02*
Y-867170D01*
X52195D01*
X54099Y-869074D01*
Y-872883D01*
X52195Y-874787D01*
X46482D01*
X50291D02*
X54099Y-878596D01*
X57908Y-876692D02*
X59813Y-878596D01*
X63622D01*
X65526Y-876692D01*
Y-869074D01*
X63622Y-867170D01*
X59813D01*
X57908Y-869074D01*
Y-870978D01*
X59813Y-872883D01*
X65526D01*
X672468Y-879473D02*
Y-868047D01*
X678181D01*
X680086Y-869951D01*
Y-873760D01*
X678181Y-875664D01*
X672468D01*
X676277D02*
X680086Y-879473D01*
X683894Y-869951D02*
X685799Y-868047D01*
X689607D01*
X691512Y-869951D01*
Y-871856D01*
X689607Y-873760D01*
X691512Y-875664D01*
Y-877569D01*
X689607Y-879473D01*
X685799D01*
X683894Y-877569D01*
Y-875664D01*
X685799Y-873760D01*
X683894Y-871856D01*
Y-869951D01*
X685799Y-873760D02*
X689607D01*
X455422Y-878576D02*
Y-867150D01*
X461135D01*
X463040Y-869054D01*
Y-872863D01*
X461135Y-874767D01*
X455422D01*
X459231D02*
X463040Y-878576D01*
X466848Y-867150D02*
X474466D01*
Y-869054D01*
X466848Y-876672D01*
Y-878576D01*
X234442D02*
Y-867150D01*
X240155D01*
X242059Y-869054D01*
Y-872863D01*
X240155Y-874767D01*
X234442D01*
X238251D02*
X242059Y-878576D01*
X253486Y-867150D02*
X249677Y-869054D01*
X245868Y-872863D01*
Y-876672D01*
X247773Y-878576D01*
X251581D01*
X253486Y-876672D01*
Y-874767D01*
X251581Y-872863D01*
X245868D01*
X15878Y-879473D02*
Y-868047D01*
X21591D01*
X23496Y-869951D01*
Y-873760D01*
X21591Y-875664D01*
X15878D01*
X19687D02*
X23496Y-879473D01*
X34922Y-868047D02*
X27304D01*
Y-873760D01*
X31113Y-871856D01*
X33017D01*
X34922Y-873760D01*
Y-877569D01*
X33017Y-879473D01*
X29209D01*
X27304Y-877569D01*
X737233Y-819782D02*
X725807D01*
Y-814069D01*
X727711Y-812164D01*
X731520D01*
X733424Y-814069D01*
Y-819782D01*
Y-815973D02*
X737233Y-812164D01*
Y-802642D02*
X725807D01*
X731520Y-808356D01*
Y-800738D01*
X517523Y-819782D02*
X506097D01*
Y-814069D01*
X508001Y-812164D01*
X511810D01*
X513714Y-814069D01*
Y-819782D01*
Y-815973D02*
X517523Y-812164D01*
X508001Y-808356D02*
X506097Y-806451D01*
Y-802642D01*
X508001Y-800738D01*
X509906D01*
X511810Y-802642D01*
Y-804547D01*
Y-802642D01*
X513714Y-800738D01*
X515619D01*
X517523Y-802642D01*
Y-806451D01*
X515619Y-808356D01*
X297813Y-822322D02*
X286387D01*
Y-816609D01*
X288291Y-814704D01*
X292100D01*
X294004Y-816609D01*
Y-822322D01*
Y-818513D02*
X297813Y-814704D01*
Y-803278D02*
Y-810896D01*
X290196Y-803278D01*
X288291D01*
X286387Y-805182D01*
Y-808991D01*
X288291Y-810896D01*
X78865Y-817878D02*
X67439D01*
Y-812164D01*
X69343Y-810260D01*
X73152D01*
X75056Y-812164D01*
Y-817878D01*
Y-814069D02*
X78865Y-810260D01*
Y-806451D02*
Y-802642D01*
Y-804547D01*
X67439D01*
X69343Y-806451D01*
X940433Y-782956D02*
Y-779147D01*
Y-781051D01*
X930911D01*
X929007Y-779147D01*
Y-777243D01*
X930911Y-775338D01*
X929007Y-794382D02*
Y-786764D01*
X936624Y-794382D01*
X938529D01*
X940433Y-792478D01*
Y-788669D01*
X938529Y-786764D01*
X940433Y-662940D02*
Y-659131D01*
Y-661036D01*
X930911D01*
X929007Y-659131D01*
Y-657227D01*
X930911Y-655322D01*
X929007Y-666749D02*
Y-670558D01*
Y-668653D01*
X940433D01*
X938529Y-666749D01*
X663577Y-233675D02*
X675003D01*
Y-227962D01*
X673099Y-226057D01*
X665481D01*
X663577Y-227962D01*
Y-233675D01*
Y-214631D02*
Y-222249D01*
X669290D01*
X667386Y-218440D01*
Y-216536D01*
X669290Y-214631D01*
X673099D01*
X675003Y-216536D01*
Y-220344D01*
X673099Y-222249D01*
X675003Y-205109D02*
X663577D01*
X669290Y-210822D01*
Y-203205D01*
X663577Y-294635D02*
X675003D01*
Y-288922D01*
X673099Y-287017D01*
X665481D01*
X663577Y-288922D01*
Y-294635D01*
Y-275591D02*
Y-283209D01*
X669290D01*
X667386Y-279400D01*
Y-277496D01*
X669290Y-275591D01*
X673099D01*
X675003Y-277496D01*
Y-281304D01*
X673099Y-283209D01*
X665481Y-271782D02*
X663577Y-269878D01*
Y-266069D01*
X665481Y-264165D01*
X667386D01*
X669290Y-266069D01*
Y-267974D01*
Y-266069D01*
X671194Y-264165D01*
X673099D01*
X675003Y-266069D01*
Y-269878D01*
X673099Y-271782D01*
X663577Y-354325D02*
X675003D01*
Y-348612D01*
X673099Y-346707D01*
X665481D01*
X663577Y-348612D01*
Y-354325D01*
Y-335281D02*
Y-342899D01*
X669290D01*
X667386Y-339090D01*
Y-337186D01*
X669290Y-335281D01*
X673099D01*
X675003Y-337186D01*
Y-340994D01*
X673099Y-342899D01*
X675003Y-323855D02*
Y-331472D01*
X667386Y-323855D01*
X665481D01*
X663577Y-325759D01*
Y-329568D01*
X665481Y-331472D01*
X663577Y-410841D02*
X675003D01*
Y-405128D01*
X673099Y-403223D01*
X665481D01*
X663577Y-405128D01*
Y-410841D01*
Y-391797D02*
Y-399414D01*
X669290D01*
X667386Y-395606D01*
Y-393701D01*
X669290Y-391797D01*
X673099D01*
X675003Y-393701D01*
Y-397510D01*
X673099Y-399414D01*
X675003Y-387988D02*
Y-384179D01*
Y-386084D01*
X663577D01*
X665481Y-387988D01*
X663577Y-472435D02*
X675003D01*
Y-466722D01*
X673099Y-464818D01*
X665481D01*
X663577Y-466722D01*
Y-472435D01*
Y-453391D02*
Y-461009D01*
X669290D01*
X667386Y-457200D01*
Y-455296D01*
X669290Y-453391D01*
X673099D01*
X675003Y-455296D01*
Y-459104D01*
X673099Y-461009D01*
X665481Y-449582D02*
X663577Y-447678D01*
Y-443869D01*
X665481Y-441965D01*
X673099D01*
X675003Y-443869D01*
Y-447678D01*
X673099Y-449582D01*
X665481D01*
X663577Y-534665D02*
X675003D01*
Y-528952D01*
X673099Y-527048D01*
X665481D01*
X663577Y-528952D01*
Y-534665D01*
X675003Y-517526D02*
X663577D01*
X669290Y-523239D01*
Y-515621D01*
X673099Y-511812D02*
X675003Y-509908D01*
Y-506099D01*
X673099Y-504195D01*
X665481D01*
X663577Y-506099D01*
Y-509908D01*
X665481Y-511812D01*
X667386D01*
X669290Y-509908D01*
Y-504195D01*
X663577Y-594355D02*
X675003D01*
Y-588642D01*
X673099Y-586738D01*
X665481D01*
X663577Y-588642D01*
Y-594355D01*
X675003Y-577216D02*
X663577D01*
X669290Y-582929D01*
Y-575311D01*
X665481Y-571502D02*
X663577Y-569598D01*
Y-565789D01*
X665481Y-563885D01*
X667386D01*
X669290Y-565789D01*
X671194Y-563885D01*
X673099D01*
X675003Y-565789D01*
Y-569598D01*
X673099Y-571502D01*
X671194D01*
X669290Y-569598D01*
X667386Y-571502D01*
X665481D01*
X669290Y-569598D02*
Y-565789D01*
X663577Y-650235D02*
X675003D01*
Y-644522D01*
X673099Y-642617D01*
X665481D01*
X663577Y-644522D01*
Y-650235D01*
X675003Y-633096D02*
X663577D01*
X669290Y-638809D01*
Y-631191D01*
X663577Y-627382D02*
Y-619765D01*
X665481D01*
X673099Y-627382D01*
X675003D01*
X663577Y-715005D02*
X675003D01*
Y-709292D01*
X673099Y-707387D01*
X665481D01*
X663577Y-709292D01*
Y-715005D01*
X675003Y-697866D02*
X663577D01*
X669290Y-703579D01*
Y-695961D01*
X663577Y-684535D02*
X665481Y-688344D01*
X669290Y-692152D01*
X673099D01*
X675003Y-690248D01*
Y-686439D01*
X673099Y-684535D01*
X671194D01*
X669290Y-686439D01*
Y-692152D01*
X663577Y-774695D02*
X675003D01*
Y-768982D01*
X673099Y-767077D01*
X665481D01*
X663577Y-768982D01*
Y-774695D01*
X675003Y-757556D02*
X663577D01*
X669290Y-763269D01*
Y-755651D01*
X663577Y-744225D02*
Y-751842D01*
X669290D01*
X667386Y-748034D01*
Y-746129D01*
X669290Y-744225D01*
X673099D01*
X675003Y-746129D01*
Y-749938D01*
X673099Y-751842D01*
X446407Y-234945D02*
X457833D01*
Y-229232D01*
X455929Y-227327D01*
X448311D01*
X446407Y-229232D01*
Y-234945D01*
X457833Y-217806D02*
X446407D01*
X452120Y-223519D01*
Y-215901D01*
X457833Y-204475D02*
Y-212092D01*
X450216Y-204475D01*
X448311D01*
X446407Y-206379D01*
Y-210188D01*
X448311Y-212092D01*
X446407Y-291461D02*
X457833D01*
Y-285748D01*
X455929Y-283843D01*
X448311D01*
X446407Y-285748D01*
Y-291461D01*
X457833Y-274321D02*
X446407D01*
X452120Y-280034D01*
Y-272417D01*
X457833Y-268608D02*
Y-264799D01*
Y-266704D01*
X446407D01*
X448311Y-268608D01*
X446407Y-354325D02*
X457833D01*
Y-348612D01*
X455929Y-346707D01*
X448311D01*
X446407Y-348612D01*
Y-354325D01*
X457833Y-337186D02*
X446407D01*
X452120Y-342899D01*
Y-335281D01*
X448311Y-331472D02*
X446407Y-329568D01*
Y-325759D01*
X448311Y-323855D01*
X455929D01*
X457833Y-325759D01*
Y-329568D01*
X455929Y-331472D01*
X448311D01*
X446407Y-415285D02*
X457833D01*
Y-409572D01*
X455929Y-407668D01*
X448311D01*
X446407Y-409572D01*
Y-415285D01*
X448311Y-403859D02*
X446407Y-401954D01*
Y-398146D01*
X448311Y-396241D01*
X450216D01*
X452120Y-398146D01*
Y-400050D01*
Y-398146D01*
X454024Y-396241D01*
X455929D01*
X457833Y-398146D01*
Y-401954D01*
X455929Y-403859D01*
Y-392432D02*
X457833Y-390528D01*
Y-386719D01*
X455929Y-384815D01*
X448311D01*
X446407Y-386719D01*
Y-390528D01*
X448311Y-392432D01*
X450216D01*
X452120Y-390528D01*
Y-384815D01*
X446407Y-473705D02*
X457833D01*
Y-467992D01*
X455929Y-466087D01*
X448311D01*
X446407Y-467992D01*
Y-473705D01*
X448311Y-462279D02*
X446407Y-460374D01*
Y-456566D01*
X448311Y-454661D01*
X450216D01*
X452120Y-456566D01*
Y-458470D01*
Y-456566D01*
X454024Y-454661D01*
X455929D01*
X457833Y-456566D01*
Y-460374D01*
X455929Y-462279D01*
X448311Y-450852D02*
X446407Y-448948D01*
Y-445139D01*
X448311Y-443235D01*
X450216D01*
X452120Y-445139D01*
X454024Y-443235D01*
X455929D01*
X457833Y-445139D01*
Y-448948D01*
X455929Y-450852D01*
X454024D01*
X452120Y-448948D01*
X450216Y-450852D01*
X448311D01*
X452120Y-448948D02*
Y-445139D01*
X446407Y-528315D02*
X457833D01*
Y-522602D01*
X455929Y-520698D01*
X448311D01*
X446407Y-522602D01*
Y-528315D01*
X448311Y-516889D02*
X446407Y-514984D01*
Y-511176D01*
X448311Y-509271D01*
X450216D01*
X452120Y-511176D01*
Y-513080D01*
Y-511176D01*
X454024Y-509271D01*
X455929D01*
X457833Y-511176D01*
Y-514984D01*
X455929Y-516889D01*
X446407Y-505462D02*
Y-497845D01*
X448311D01*
X455929Y-505462D01*
X457833D01*
X446407Y-593085D02*
X457833D01*
Y-587372D01*
X455929Y-585467D01*
X448311D01*
X446407Y-587372D01*
Y-593085D01*
X448311Y-581659D02*
X446407Y-579754D01*
Y-575946D01*
X448311Y-574041D01*
X450216D01*
X452120Y-575946D01*
Y-577850D01*
Y-575946D01*
X454024Y-574041D01*
X455929D01*
X457833Y-575946D01*
Y-579754D01*
X455929Y-581659D01*
X446407Y-562615D02*
X448311Y-566424D01*
X452120Y-570232D01*
X455929D01*
X457833Y-568328D01*
Y-564519D01*
X455929Y-562615D01*
X454024D01*
X452120Y-564519D01*
Y-570232D01*
X446407Y-654045D02*
X457833D01*
Y-648332D01*
X455929Y-646428D01*
X448311D01*
X446407Y-648332D01*
Y-654045D01*
X448311Y-642619D02*
X446407Y-640714D01*
Y-636906D01*
X448311Y-635001D01*
X450216D01*
X452120Y-636906D01*
Y-638810D01*
Y-636906D01*
X454024Y-635001D01*
X455929D01*
X457833Y-636906D01*
Y-640714D01*
X455929Y-642619D01*
X446407Y-623575D02*
Y-631192D01*
X452120D01*
X450216Y-627384D01*
Y-625479D01*
X452120Y-623575D01*
X455929D01*
X457833Y-625479D01*
Y-629288D01*
X455929Y-631192D01*
X446407Y-712465D02*
X457833D01*
Y-706752D01*
X455929Y-704847D01*
X448311D01*
X446407Y-706752D01*
Y-712465D01*
X448311Y-701039D02*
X446407Y-699134D01*
Y-695326D01*
X448311Y-693421D01*
X450216D01*
X452120Y-695326D01*
Y-697230D01*
Y-695326D01*
X454024Y-693421D01*
X455929D01*
X457833Y-695326D01*
Y-699134D01*
X455929Y-701039D01*
X457833Y-683899D02*
X446407D01*
X452120Y-689612D01*
Y-681995D01*
X446407Y-773425D02*
X457833D01*
Y-767712D01*
X455929Y-765807D01*
X448311D01*
X446407Y-767712D01*
Y-773425D01*
X448311Y-761999D02*
X446407Y-760094D01*
Y-756286D01*
X448311Y-754381D01*
X450216D01*
X452120Y-756286D01*
Y-758190D01*
Y-756286D01*
X454024Y-754381D01*
X455929D01*
X457833Y-756286D01*
Y-760094D01*
X455929Y-761999D01*
X448311Y-750572D02*
X446407Y-748668D01*
Y-744859D01*
X448311Y-742955D01*
X450216D01*
X452120Y-744859D01*
Y-746764D01*
Y-744859D01*
X454024Y-742955D01*
X455929D01*
X457833Y-744859D01*
Y-748668D01*
X455929Y-750572D01*
X225427Y-233675D02*
X236853D01*
Y-227962D01*
X234949Y-226057D01*
X227331D01*
X225427Y-227962D01*
Y-233675D01*
X227331Y-222249D02*
X225427Y-220344D01*
Y-216536D01*
X227331Y-214631D01*
X229236D01*
X231140Y-216536D01*
Y-218440D01*
Y-216536D01*
X233044Y-214631D01*
X234949D01*
X236853Y-216536D01*
Y-220344D01*
X234949Y-222249D01*
X227331Y-210822D02*
X225427Y-208918D01*
Y-205109D01*
X227331Y-203205D01*
X234949D01*
X236853Y-205109D01*
Y-208918D01*
X234949Y-210822D01*
X227331D01*
X225427Y-292095D02*
X236853D01*
Y-286382D01*
X234949Y-284478D01*
X227331D01*
X225427Y-286382D01*
Y-292095D01*
X236853Y-273051D02*
Y-280669D01*
X229236Y-273051D01*
X227331D01*
X225427Y-274956D01*
Y-278764D01*
X227331Y-280669D01*
X234949Y-269242D02*
X236853Y-267338D01*
Y-263529D01*
X234949Y-261625D01*
X227331D01*
X225427Y-263529D01*
Y-267338D01*
X227331Y-269242D01*
X229236D01*
X231140Y-267338D01*
Y-261625D01*
X225427Y-353055D02*
X236853D01*
Y-347342D01*
X234949Y-345438D01*
X227331D01*
X225427Y-347342D01*
Y-353055D01*
X236853Y-334011D02*
Y-341629D01*
X229236Y-334011D01*
X227331D01*
X225427Y-335916D01*
Y-339724D01*
X227331Y-341629D01*
Y-330202D02*
X225427Y-328298D01*
Y-324489D01*
X227331Y-322585D01*
X229236D01*
X231140Y-324489D01*
X233044Y-322585D01*
X234949D01*
X236853Y-324489D01*
Y-328298D01*
X234949Y-330202D01*
X233044D01*
X231140Y-328298D01*
X229236Y-330202D01*
X227331D01*
X231140Y-328298D02*
Y-324489D01*
X225427Y-410205D02*
X236853D01*
Y-404492D01*
X234949Y-402588D01*
X227331D01*
X225427Y-404492D01*
Y-410205D01*
X236853Y-391161D02*
Y-398779D01*
X229236Y-391161D01*
X227331D01*
X225427Y-393066D01*
Y-396874D01*
X227331Y-398779D01*
X225427Y-387352D02*
Y-379735D01*
X227331D01*
X234949Y-387352D01*
X236853D01*
X225427Y-472435D02*
X236853D01*
Y-466722D01*
X234949Y-464818D01*
X227331D01*
X225427Y-466722D01*
Y-472435D01*
X236853Y-453391D02*
Y-461009D01*
X229236Y-453391D01*
X227331D01*
X225427Y-455296D01*
Y-459104D01*
X227331Y-461009D01*
X225427Y-441965D02*
X227331Y-445774D01*
X231140Y-449582D01*
X234949D01*
X236853Y-447678D01*
Y-443869D01*
X234949Y-441965D01*
X233044D01*
X231140Y-443869D01*
Y-449582D01*
X225427Y-532125D02*
X236853D01*
Y-526412D01*
X234949Y-524507D01*
X227331D01*
X225427Y-526412D01*
Y-532125D01*
X236853Y-513081D02*
Y-520699D01*
X229236Y-513081D01*
X227331D01*
X225427Y-514986D01*
Y-518794D01*
X227331Y-520699D01*
X225427Y-501655D02*
Y-509272D01*
X231140D01*
X229236Y-505464D01*
Y-503559D01*
X231140Y-501655D01*
X234949D01*
X236853Y-503559D01*
Y-507368D01*
X234949Y-509272D01*
X225427Y-593085D02*
X236853D01*
Y-587372D01*
X234949Y-585467D01*
X227331D01*
X225427Y-587372D01*
Y-593085D01*
X236853Y-574041D02*
Y-581659D01*
X229236Y-574041D01*
X227331D01*
X225427Y-575946D01*
Y-579754D01*
X227331Y-581659D01*
X236853Y-564519D02*
X225427D01*
X231140Y-570232D01*
Y-562615D01*
X225427Y-651505D02*
X236853D01*
Y-645792D01*
X234949Y-643887D01*
X227331D01*
X225427Y-645792D01*
Y-651505D01*
X236853Y-632461D02*
Y-640079D01*
X229236Y-632461D01*
X227331D01*
X225427Y-634366D01*
Y-638174D01*
X227331Y-640079D01*
Y-628652D02*
X225427Y-626748D01*
Y-622939D01*
X227331Y-621035D01*
X229236D01*
X231140Y-622939D01*
Y-624844D01*
Y-622939D01*
X233044Y-621035D01*
X234949D01*
X236853Y-622939D01*
Y-626748D01*
X234949Y-628652D01*
X225427Y-715005D02*
X236853D01*
Y-709292D01*
X234949Y-707387D01*
X227331D01*
X225427Y-709292D01*
Y-715005D01*
X236853Y-695961D02*
Y-703579D01*
X229236Y-695961D01*
X227331D01*
X225427Y-697866D01*
Y-701674D01*
X227331Y-703579D01*
X236853Y-684535D02*
Y-692152D01*
X229236Y-684535D01*
X227331D01*
X225427Y-686439D01*
Y-690248D01*
X227331Y-692152D01*
X225427Y-771521D02*
X236853D01*
Y-765807D01*
X234949Y-763903D01*
X227331D01*
X225427Y-765807D01*
Y-771521D01*
X236853Y-752477D02*
Y-760094D01*
X229236Y-752477D01*
X227331D01*
X225427Y-754381D01*
Y-758190D01*
X227331Y-760094D01*
X236853Y-748668D02*
Y-744859D01*
Y-746764D01*
X225427D01*
X227331Y-748668D01*
X10797Y-232723D02*
X22223D01*
Y-227010D01*
X20319Y-225105D01*
X12701D01*
X10797Y-227010D01*
Y-232723D01*
X22223Y-221297D02*
Y-217488D01*
Y-219392D01*
X10797D01*
X12701Y-221297D01*
Y-211775D02*
X10797Y-209870D01*
Y-206061D01*
X12701Y-204157D01*
X14606D01*
X16510Y-206061D01*
X18414Y-204157D01*
X20319D01*
X22223Y-206061D01*
Y-209870D01*
X20319Y-211775D01*
X18414D01*
X16510Y-209870D01*
X14606Y-211775D01*
X12701D01*
X16510Y-209870D02*
Y-206061D01*
X10797Y-289873D02*
X22223D01*
Y-284160D01*
X20319Y-282255D01*
X12701D01*
X10797Y-284160D01*
Y-289873D01*
X22223Y-278447D02*
Y-274638D01*
Y-276542D01*
X10797D01*
X12701Y-278447D01*
X10797Y-268925D02*
Y-261307D01*
X12701D01*
X20319Y-268925D01*
X22223D01*
X10797Y-352865D02*
X22223D01*
Y-347152D01*
X20319Y-345247D01*
X12701D01*
X10797Y-347152D01*
Y-352865D01*
X22223Y-341439D02*
Y-337630D01*
Y-339534D01*
X10797D01*
X12701Y-341439D01*
X10797Y-324299D02*
X12701Y-328108D01*
X16510Y-331917D01*
X20319D01*
X22223Y-330012D01*
Y-326203D01*
X20319Y-324299D01*
X18414D01*
X16510Y-326203D01*
Y-331917D01*
X10797Y-413063D02*
X22223D01*
Y-407350D01*
X20319Y-405445D01*
X12701D01*
X10797Y-407350D01*
Y-413063D01*
X22223Y-401637D02*
Y-397828D01*
Y-399732D01*
X10797D01*
X12701Y-401637D01*
X10797Y-384497D02*
Y-392115D01*
X16510D01*
X14606Y-388306D01*
Y-386401D01*
X16510Y-384497D01*
X20319D01*
X22223Y-386401D01*
Y-390210D01*
X20319Y-392115D01*
X10797Y-471483D02*
X22223D01*
Y-465770D01*
X20319Y-463865D01*
X12701D01*
X10797Y-465770D01*
Y-471483D01*
X22223Y-460057D02*
Y-456248D01*
Y-458152D01*
X10797D01*
X12701Y-460057D01*
X22223Y-444822D02*
X10797D01*
X16510Y-450535D01*
Y-442917D01*
X10797Y-532443D02*
X22223D01*
Y-526730D01*
X20319Y-524825D01*
X12701D01*
X10797Y-526730D01*
Y-532443D01*
X22223Y-521017D02*
Y-517208D01*
Y-519112D01*
X10797D01*
X12701Y-521017D01*
Y-511495D02*
X10797Y-509590D01*
Y-505782D01*
X12701Y-503877D01*
X14606D01*
X16510Y-505782D01*
Y-507686D01*
Y-505782D01*
X18414Y-503877D01*
X20319D01*
X22223Y-505782D01*
Y-509590D01*
X20319Y-511495D01*
X10797Y-593403D02*
X22223D01*
Y-587690D01*
X20319Y-585785D01*
X12701D01*
X10797Y-587690D01*
Y-593403D01*
X22223Y-581977D02*
Y-578168D01*
Y-580072D01*
X10797D01*
X12701Y-581977D01*
X22223Y-564837D02*
Y-572455D01*
X14606Y-564837D01*
X12701D01*
X10797Y-566741D01*
Y-570550D01*
X12701Y-572455D01*
X10797Y-649919D02*
X22223D01*
Y-644205D01*
X20319Y-642301D01*
X12701D01*
X10797Y-644205D01*
Y-649919D01*
X22223Y-638492D02*
Y-634683D01*
Y-636588D01*
X10797D01*
X12701Y-638492D01*
X22223Y-628970D02*
Y-625162D01*
Y-627066D01*
X10797D01*
X12701Y-628970D01*
X10797Y-712783D02*
X22223D01*
Y-707070D01*
X20319Y-705165D01*
X12701D01*
X10797Y-707070D01*
Y-712783D01*
X22223Y-701357D02*
Y-697548D01*
Y-699452D01*
X10797D01*
X12701Y-701357D01*
Y-691835D02*
X10797Y-689930D01*
Y-686122D01*
X12701Y-684217D01*
X20319D01*
X22223Y-686122D01*
Y-689930D01*
X20319Y-691835D01*
X12701D01*
X10797Y-763902D02*
X22223D01*
Y-758189D01*
X20319Y-756284D01*
X12701D01*
X10797Y-758189D01*
Y-763902D01*
X20319Y-752476D02*
X22223Y-750571D01*
Y-746762D01*
X20319Y-744858D01*
X12701D01*
X10797Y-746762D01*
Y-750571D01*
X12701Y-752476D01*
X14606D01*
X16510Y-750571D01*
Y-744858D01*
X141343Y-828253D02*
X129917D01*
Y-833966D01*
X131821Y-835871D01*
X139439D01*
X141343Y-833966D01*
Y-828253D01*
X139439Y-839679D02*
X141343Y-841584D01*
Y-845393D01*
X139439Y-847297D01*
X137534D01*
X135630Y-845393D01*
X133726Y-847297D01*
X131821D01*
X129917Y-845393D01*
Y-841584D01*
X131821Y-839679D01*
X133726D01*
X135630Y-841584D01*
X137534Y-839679D01*
X139439D01*
X135630Y-841584D02*
Y-845393D01*
X213993Y-828124D02*
X202567D01*
Y-833837D01*
X204471Y-835742D01*
X212089D01*
X213993Y-833837D01*
Y-828124D01*
Y-839550D02*
Y-847168D01*
X212089D01*
X204471Y-839550D01*
X202567D01*
X360793Y-828544D02*
X349367D01*
Y-834257D01*
X351271Y-836162D01*
X358889D01*
X360793Y-834257D01*
Y-828544D01*
Y-847588D02*
X358889Y-843779D01*
X355080Y-839970D01*
X351271D01*
X349367Y-841875D01*
Y-845684D01*
X351271Y-847588D01*
X353176D01*
X355080Y-845684D01*
Y-839970D01*
X440053Y-828253D02*
X428627D01*
Y-833966D01*
X430531Y-835871D01*
X438149D01*
X440053Y-833966D01*
Y-828253D01*
Y-847297D02*
Y-839679D01*
X434340D01*
X436244Y-843488D01*
Y-845393D01*
X434340Y-847297D01*
X430531D01*
X428627Y-845393D01*
Y-841584D01*
X430531Y-839679D01*
X580763Y-828253D02*
X569337D01*
Y-833966D01*
X571241Y-835871D01*
X578859D01*
X580763Y-833966D01*
Y-828253D01*
X569337Y-845393D02*
X580763D01*
X575050Y-839679D01*
Y-847297D01*
X663573Y-828678D02*
X652147D01*
Y-834391D01*
X654051Y-836296D01*
X661669D01*
X663573Y-834391D01*
Y-828678D01*
X661669Y-840104D02*
X663573Y-842009D01*
Y-845817D01*
X661669Y-847722D01*
X659764D01*
X657860Y-845817D01*
Y-843913D01*
Y-845817D01*
X655956Y-847722D01*
X654051D01*
X652147Y-845817D01*
Y-842009D01*
X654051Y-840104D01*
X800733Y-828253D02*
X789307D01*
Y-833966D01*
X791211Y-835871D01*
X798829D01*
X800733Y-833966D01*
Y-828253D01*
X789307Y-847297D02*
Y-839679D01*
X796924Y-847297D01*
X798829D01*
X800733Y-845393D01*
Y-841584D01*
X798829Y-839679D01*
X876933Y-830157D02*
X865507D01*
Y-835871D01*
X867411Y-837775D01*
X875029D01*
X876933Y-835871D01*
Y-830157D01*
X865507Y-841584D02*
Y-845393D01*
Y-843488D01*
X876933D01*
X875029Y-841584D01*
X727711Y-609598D02*
X725807Y-611502D01*
Y-615311D01*
X727711Y-617215D01*
X735329D01*
X737233Y-615311D01*
Y-611502D01*
X735329Y-609598D01*
X737233Y-600076D02*
X725807D01*
X731520Y-605789D01*
Y-598171D01*
X735329Y-594362D02*
X737233Y-592458D01*
Y-588649D01*
X735329Y-586745D01*
X727711D01*
X725807Y-588649D01*
Y-592458D01*
X727711Y-594362D01*
X729616D01*
X731520Y-592458D01*
Y-586745D01*
X727711Y-673098D02*
X725807Y-675002D01*
Y-678811D01*
X727711Y-680715D01*
X735329D01*
X737233Y-678811D01*
Y-675002D01*
X735329Y-673098D01*
X737233Y-663576D02*
X725807D01*
X731520Y-669289D01*
Y-661671D01*
X727711Y-657862D02*
X725807Y-655958D01*
Y-652149D01*
X727711Y-650245D01*
X729616D01*
X731520Y-652149D01*
X733424Y-650245D01*
X735329D01*
X737233Y-652149D01*
Y-655958D01*
X735329Y-657862D01*
X733424D01*
X731520Y-655958D01*
X729616Y-657862D01*
X727711D01*
X731520Y-655958D02*
Y-652149D01*
X727711Y-728978D02*
X725807Y-730882D01*
Y-734691D01*
X727711Y-736595D01*
X735329D01*
X737233Y-734691D01*
Y-730882D01*
X735329Y-728978D01*
X737233Y-719456D02*
X725807D01*
X731520Y-725169D01*
Y-717551D01*
X725807Y-713742D02*
Y-706125D01*
X727711D01*
X735329Y-713742D01*
X737233D01*
X727711Y-789938D02*
X725807Y-791842D01*
Y-795651D01*
X727711Y-797555D01*
X735329D01*
X737233Y-795651D01*
Y-791842D01*
X735329Y-789938D01*
X737233Y-780416D02*
X725807D01*
X731520Y-786129D01*
Y-778511D01*
X725807Y-767085D02*
X727711Y-770894D01*
X731520Y-774702D01*
X735329D01*
X737233Y-772798D01*
Y-768989D01*
X735329Y-767085D01*
X733424D01*
X731520Y-768989D01*
Y-774702D01*
X508001Y-134618D02*
X506097Y-136522D01*
Y-140331D01*
X508001Y-142235D01*
X515619D01*
X517523Y-140331D01*
Y-136522D01*
X515619Y-134618D01*
X517523Y-125096D02*
X506097D01*
X511810Y-130809D01*
Y-123191D01*
X506097Y-111765D02*
Y-119382D01*
X511810D01*
X509906Y-115574D01*
Y-113669D01*
X511810Y-111765D01*
X515619D01*
X517523Y-113669D01*
Y-117478D01*
X515619Y-119382D01*
X508001Y-190497D02*
X506097Y-192402D01*
Y-196211D01*
X508001Y-198115D01*
X515619D01*
X517523Y-196211D01*
Y-192402D01*
X515619Y-190497D01*
X517523Y-180976D02*
X506097D01*
X511810Y-186689D01*
Y-179071D01*
X517523Y-169549D02*
X506097D01*
X511810Y-175262D01*
Y-167645D01*
X508001Y-250187D02*
X506097Y-252092D01*
Y-255901D01*
X508001Y-257805D01*
X515619D01*
X517523Y-255901D01*
Y-252092D01*
X515619Y-250187D01*
X517523Y-240666D02*
X506097D01*
X511810Y-246379D01*
Y-238761D01*
X508001Y-234952D02*
X506097Y-233048D01*
Y-229239D01*
X508001Y-227335D01*
X509906D01*
X511810Y-229239D01*
Y-231144D01*
Y-229239D01*
X513714Y-227335D01*
X515619D01*
X517523Y-229239D01*
Y-233048D01*
X515619Y-234952D01*
X508001Y-311147D02*
X506097Y-313052D01*
Y-316861D01*
X508001Y-318765D01*
X515619D01*
X517523Y-316861D01*
Y-313052D01*
X515619Y-311147D01*
X517523Y-301626D02*
X506097D01*
X511810Y-307339D01*
Y-299721D01*
X517523Y-288295D02*
Y-295912D01*
X509906Y-288295D01*
X508001D01*
X506097Y-290199D01*
Y-294008D01*
X508001Y-295912D01*
Y-368933D02*
X506097Y-370838D01*
Y-374646D01*
X508001Y-376551D01*
X515619D01*
X517523Y-374646D01*
Y-370838D01*
X515619Y-368933D01*
X517523Y-359411D02*
X506097D01*
X511810Y-365124D01*
Y-357507D01*
X517523Y-353698D02*
Y-349889D01*
Y-351794D01*
X506097D01*
X508001Y-353698D01*
Y-430527D02*
X506097Y-432432D01*
Y-436241D01*
X508001Y-438145D01*
X515619D01*
X517523Y-436241D01*
Y-432432D01*
X515619Y-430527D01*
X517523Y-421006D02*
X506097D01*
X511810Y-426719D01*
Y-419101D01*
X508001Y-415292D02*
X506097Y-413388D01*
Y-409579D01*
X508001Y-407675D01*
X515619D01*
X517523Y-409579D01*
Y-413388D01*
X515619Y-415292D01*
X508001D01*
Y-492757D02*
X506097Y-494662D01*
Y-498471D01*
X508001Y-500375D01*
X515619D01*
X517523Y-498471D01*
Y-494662D01*
X515619Y-492757D01*
X508001Y-488949D02*
X506097Y-487044D01*
Y-483236D01*
X508001Y-481331D01*
X509906D01*
X511810Y-483236D01*
Y-485140D01*
Y-483236D01*
X513714Y-481331D01*
X515619D01*
X517523Y-483236D01*
Y-487044D01*
X515619Y-488949D01*
Y-477522D02*
X517523Y-475618D01*
Y-471809D01*
X515619Y-469905D01*
X508001D01*
X506097Y-471809D01*
Y-475618D01*
X508001Y-477522D01*
X509906D01*
X511810Y-475618D01*
Y-469905D01*
X508001Y-553717D02*
X506097Y-555622D01*
Y-559431D01*
X508001Y-561335D01*
X515619D01*
X517523Y-559431D01*
Y-555622D01*
X515619Y-553717D01*
X508001Y-549909D02*
X506097Y-548004D01*
Y-544196D01*
X508001Y-542291D01*
X509906D01*
X511810Y-544196D01*
Y-546100D01*
Y-544196D01*
X513714Y-542291D01*
X515619D01*
X517523Y-544196D01*
Y-548004D01*
X515619Y-549909D01*
X508001Y-538482D02*
X506097Y-536578D01*
Y-532769D01*
X508001Y-530865D01*
X509906D01*
X511810Y-532769D01*
X513714Y-530865D01*
X515619D01*
X517523Y-532769D01*
Y-536578D01*
X515619Y-538482D01*
X513714D01*
X511810Y-536578D01*
X509906Y-538482D01*
X508001D01*
X511810Y-536578D02*
Y-532769D01*
X508001Y-609598D02*
X506097Y-611502D01*
Y-615311D01*
X508001Y-617215D01*
X515619D01*
X517523Y-615311D01*
Y-611502D01*
X515619Y-609598D01*
X508001Y-605789D02*
X506097Y-603884D01*
Y-600076D01*
X508001Y-598171D01*
X509906D01*
X511810Y-600076D01*
Y-601980D01*
Y-600076D01*
X513714Y-598171D01*
X515619D01*
X517523Y-600076D01*
Y-603884D01*
X515619Y-605789D01*
X506097Y-594362D02*
Y-586745D01*
X508001D01*
X515619Y-594362D01*
X517523D01*
X508001Y-670557D02*
X506097Y-672462D01*
Y-676271D01*
X508001Y-678175D01*
X515619D01*
X517523Y-676271D01*
Y-672462D01*
X515619Y-670557D01*
X508001Y-666749D02*
X506097Y-664844D01*
Y-661036D01*
X508001Y-659131D01*
X509906D01*
X511810Y-661036D01*
Y-662940D01*
Y-661036D01*
X513714Y-659131D01*
X515619D01*
X517523Y-661036D01*
Y-664844D01*
X515619Y-666749D01*
X506097Y-647705D02*
X508001Y-651514D01*
X511810Y-655322D01*
X515619D01*
X517523Y-653418D01*
Y-649609D01*
X515619Y-647705D01*
X513714D01*
X511810Y-649609D01*
Y-655322D01*
X508001Y-731517D02*
X506097Y-733422D01*
Y-737231D01*
X508001Y-739135D01*
X515619D01*
X517523Y-737231D01*
Y-733422D01*
X515619Y-731517D01*
X508001Y-727709D02*
X506097Y-725804D01*
Y-721996D01*
X508001Y-720091D01*
X509906D01*
X511810Y-721996D01*
Y-723900D01*
Y-721996D01*
X513714Y-720091D01*
X515619D01*
X517523Y-721996D01*
Y-725804D01*
X515619Y-727709D01*
X506097Y-708665D02*
Y-716282D01*
X511810D01*
X509906Y-712474D01*
Y-710569D01*
X511810Y-708665D01*
X515619D01*
X517523Y-710569D01*
Y-714378D01*
X515619Y-716282D01*
X508001Y-787398D02*
X506097Y-789302D01*
Y-793111D01*
X508001Y-795015D01*
X515619D01*
X517523Y-793111D01*
Y-789302D01*
X515619Y-787398D01*
X508001Y-783589D02*
X506097Y-781684D01*
Y-777876D01*
X508001Y-775971D01*
X509906D01*
X511810Y-777876D01*
Y-779780D01*
Y-777876D01*
X513714Y-775971D01*
X515619D01*
X517523Y-777876D01*
Y-781684D01*
X515619Y-783589D01*
X517523Y-766449D02*
X506097D01*
X511810Y-772162D01*
Y-764545D01*
X288291Y-132078D02*
X286387Y-133982D01*
Y-137791D01*
X288291Y-139695D01*
X295909D01*
X297813Y-137791D01*
Y-133982D01*
X295909Y-132078D01*
X288291Y-128269D02*
X286387Y-126364D01*
Y-122556D01*
X288291Y-120651D01*
X290196D01*
X292100Y-122556D01*
Y-124460D01*
Y-122556D01*
X294004Y-120651D01*
X295909D01*
X297813Y-122556D01*
Y-126364D01*
X295909Y-128269D01*
X288291Y-116842D02*
X286387Y-114938D01*
Y-111129D01*
X288291Y-109225D01*
X290196D01*
X292100Y-111129D01*
Y-113034D01*
Y-111129D01*
X294004Y-109225D01*
X295909D01*
X297813Y-111129D01*
Y-114938D01*
X295909Y-116842D01*
X288291Y-190497D02*
X286387Y-192402D01*
Y-196211D01*
X288291Y-198115D01*
X295909D01*
X297813Y-196211D01*
Y-192402D01*
X295909Y-190497D01*
X288291Y-186689D02*
X286387Y-184784D01*
Y-180976D01*
X288291Y-179071D01*
X290196D01*
X292100Y-180976D01*
Y-182880D01*
Y-180976D01*
X294004Y-179071D01*
X295909D01*
X297813Y-180976D01*
Y-184784D01*
X295909Y-186689D01*
X297813Y-167645D02*
Y-175262D01*
X290196Y-167645D01*
X288291D01*
X286387Y-169549D01*
Y-173358D01*
X288291Y-175262D01*
Y-247013D02*
X286387Y-248918D01*
Y-252726D01*
X288291Y-254631D01*
X295909D01*
X297813Y-252726D01*
Y-248918D01*
X295909Y-247013D01*
X288291Y-243204D02*
X286387Y-241300D01*
Y-237491D01*
X288291Y-235587D01*
X290196D01*
X292100Y-237491D01*
Y-239396D01*
Y-237491D01*
X294004Y-235587D01*
X295909D01*
X297813Y-237491D01*
Y-241300D01*
X295909Y-243204D01*
X297813Y-231778D02*
Y-227969D01*
Y-229874D01*
X286387D01*
X288291Y-231778D01*
Y-307337D02*
X286387Y-309242D01*
Y-313051D01*
X288291Y-314955D01*
X295909D01*
X297813Y-313051D01*
Y-309242D01*
X295909Y-307337D01*
X288291Y-303529D02*
X286387Y-301624D01*
Y-297816D01*
X288291Y-295911D01*
X290196D01*
X292100Y-297816D01*
Y-299720D01*
Y-297816D01*
X294004Y-295911D01*
X295909D01*
X297813Y-297816D01*
Y-301624D01*
X295909Y-303529D01*
X288291Y-292102D02*
X286387Y-290198D01*
Y-286389D01*
X288291Y-284485D01*
X295909D01*
X297813Y-286389D01*
Y-290198D01*
X295909Y-292102D01*
X288291D01*
Y-370838D02*
X286387Y-372742D01*
Y-376551D01*
X288291Y-378455D01*
X295909D01*
X297813Y-376551D01*
Y-372742D01*
X295909Y-370838D01*
X297813Y-359411D02*
Y-367029D01*
X290196Y-359411D01*
X288291D01*
X286387Y-361316D01*
Y-365124D01*
X288291Y-367029D01*
X295909Y-355602D02*
X297813Y-353698D01*
Y-349889D01*
X295909Y-347985D01*
X288291D01*
X286387Y-349889D01*
Y-353698D01*
X288291Y-355602D01*
X290196D01*
X292100Y-353698D01*
Y-347985D01*
X288291Y-429258D02*
X286387Y-431162D01*
Y-434971D01*
X288291Y-436875D01*
X295909D01*
X297813Y-434971D01*
Y-431162D01*
X295909Y-429258D01*
X297813Y-417831D02*
Y-425449D01*
X290196Y-417831D01*
X288291D01*
X286387Y-419736D01*
Y-423544D01*
X288291Y-425449D01*
Y-414022D02*
X286387Y-412118D01*
Y-408309D01*
X288291Y-406405D01*
X290196D01*
X292100Y-408309D01*
X294004Y-406405D01*
X295909D01*
X297813Y-408309D01*
Y-412118D01*
X295909Y-414022D01*
X294004D01*
X292100Y-412118D01*
X290196Y-414022D01*
X288291D01*
X292100Y-412118D02*
Y-408309D01*
X288291Y-490218D02*
X286387Y-492122D01*
Y-495931D01*
X288291Y-497835D01*
X295909D01*
X297813Y-495931D01*
Y-492122D01*
X295909Y-490218D01*
X297813Y-478791D02*
Y-486409D01*
X290196Y-478791D01*
X288291D01*
X286387Y-480696D01*
Y-484504D01*
X288291Y-486409D01*
X286387Y-474982D02*
Y-467365D01*
X288291D01*
X295909Y-474982D01*
X297813D01*
X288291Y-551177D02*
X286387Y-553082D01*
Y-556891D01*
X288291Y-558795D01*
X295909D01*
X297813Y-556891D01*
Y-553082D01*
X295909Y-551177D01*
X297813Y-539751D02*
Y-547369D01*
X290196Y-539751D01*
X288291D01*
X286387Y-541656D01*
Y-545464D01*
X288291Y-547369D01*
X286387Y-528325D02*
X288291Y-532134D01*
X292100Y-535942D01*
X295909D01*
X297813Y-534038D01*
Y-530229D01*
X295909Y-528325D01*
X294004D01*
X292100Y-530229D01*
Y-535942D01*
X288291Y-609598D02*
X286387Y-611502D01*
Y-615311D01*
X288291Y-617215D01*
X295909D01*
X297813Y-615311D01*
Y-611502D01*
X295909Y-609598D01*
X297813Y-598171D02*
Y-605789D01*
X290196Y-598171D01*
X288291D01*
X286387Y-600076D01*
Y-603884D01*
X288291Y-605789D01*
X286387Y-586745D02*
Y-594362D01*
X292100D01*
X290196Y-590554D01*
Y-588649D01*
X292100Y-586745D01*
X295909D01*
X297813Y-588649D01*
Y-592458D01*
X295909Y-594362D01*
X288291Y-670557D02*
X286387Y-672462D01*
Y-676271D01*
X288291Y-678175D01*
X295909D01*
X297813Y-676271D01*
Y-672462D01*
X295909Y-670557D01*
X297813Y-659131D02*
Y-666749D01*
X290196Y-659131D01*
X288291D01*
X286387Y-661036D01*
Y-664844D01*
X288291Y-666749D01*
X297813Y-649609D02*
X286387D01*
X292100Y-655322D01*
Y-647705D01*
X288291Y-731517D02*
X286387Y-733422D01*
Y-737231D01*
X288291Y-739135D01*
X295909D01*
X297813Y-737231D01*
Y-733422D01*
X295909Y-731517D01*
X297813Y-720091D02*
Y-727709D01*
X290196Y-720091D01*
X288291D01*
X286387Y-721996D01*
Y-725804D01*
X288291Y-727709D01*
Y-716282D02*
X286387Y-714378D01*
Y-710569D01*
X288291Y-708665D01*
X290196D01*
X292100Y-710569D01*
Y-712474D01*
Y-710569D01*
X294004Y-708665D01*
X295909D01*
X297813Y-710569D01*
Y-714378D01*
X295909Y-716282D01*
X288291Y-789938D02*
X286387Y-791842D01*
Y-795651D01*
X288291Y-797555D01*
X295909D01*
X297813Y-795651D01*
Y-791842D01*
X295909Y-789938D01*
X297813Y-778511D02*
Y-786129D01*
X290196Y-778511D01*
X288291D01*
X286387Y-780416D01*
Y-784224D01*
X288291Y-786129D01*
X297813Y-767085D02*
Y-774702D01*
X290196Y-767085D01*
X288291D01*
X286387Y-768989D01*
Y-772798D01*
X288291Y-774702D01*
X69343Y-130173D02*
X67439Y-132078D01*
Y-135886D01*
X69343Y-137791D01*
X76961D01*
X78865Y-135886D01*
Y-132078D01*
X76961Y-130173D01*
X78865Y-118747D02*
Y-126364D01*
X71248Y-118747D01*
X69343D01*
X67439Y-120651D01*
Y-124460D01*
X69343Y-126364D01*
X78865Y-114938D02*
Y-111129D01*
Y-113034D01*
X67439D01*
X69343Y-114938D01*
X69343Y-190497D02*
X67439Y-192402D01*
Y-196211D01*
X69343Y-198115D01*
X76961D01*
X78865Y-196211D01*
Y-192402D01*
X76961Y-190497D01*
X78865Y-179071D02*
Y-186689D01*
X71248Y-179071D01*
X69343D01*
X67439Y-180976D01*
Y-184784D01*
X69343Y-186689D01*
Y-175262D02*
X67439Y-173358D01*
Y-169549D01*
X69343Y-167645D01*
X76961D01*
X78865Y-169549D01*
Y-173358D01*
X76961Y-175262D01*
X69343D01*
Y-247965D02*
X67439Y-249870D01*
Y-253678D01*
X69343Y-255583D01*
X76961D01*
X78865Y-253678D01*
Y-249870D01*
X76961Y-247965D01*
X78865Y-244157D02*
Y-240348D01*
Y-242252D01*
X67439D01*
X69343Y-244157D01*
X76961Y-234635D02*
X78865Y-232730D01*
Y-228922D01*
X76961Y-227017D01*
X69343D01*
X67439Y-228922D01*
Y-232730D01*
X69343Y-234635D01*
X71248D01*
X73152Y-232730D01*
Y-227017D01*
X69343Y-308925D02*
X67439Y-310830D01*
Y-314639D01*
X69343Y-316543D01*
X76961D01*
X78865Y-314639D01*
Y-310830D01*
X76961Y-308925D01*
X78865Y-305117D02*
Y-301308D01*
Y-303212D01*
X67439D01*
X69343Y-305117D01*
Y-295595D02*
X67439Y-293690D01*
Y-289881D01*
X69343Y-287977D01*
X71248D01*
X73152Y-289881D01*
X75056Y-287977D01*
X76961D01*
X78865Y-289881D01*
Y-293690D01*
X76961Y-295595D01*
X75056D01*
X73152Y-293690D01*
X71248Y-295595D01*
X69343D01*
X73152Y-293690D02*
Y-289881D01*
X69343Y-369885D02*
X67439Y-371790D01*
Y-375598D01*
X69343Y-377503D01*
X76961D01*
X78865Y-375598D01*
Y-371790D01*
X76961Y-369885D01*
X78865Y-366077D02*
Y-362268D01*
Y-364172D01*
X67439D01*
X69343Y-366077D01*
X67439Y-356555D02*
Y-348937D01*
X69343D01*
X76961Y-356555D01*
X78865D01*
X69343Y-428305D02*
X67439Y-430210D01*
Y-434019D01*
X69343Y-435923D01*
X76961D01*
X78865Y-434019D01*
Y-430210D01*
X76961Y-428305D01*
X78865Y-424497D02*
Y-420688D01*
Y-422592D01*
X67439D01*
X69343Y-424497D01*
X67439Y-407357D02*
X69343Y-411166D01*
X73152Y-414975D01*
X76961D01*
X78865Y-413070D01*
Y-409262D01*
X76961Y-407357D01*
X75056D01*
X73152Y-409262D01*
Y-414975D01*
X69343Y-489265D02*
X67439Y-491170D01*
Y-494978D01*
X69343Y-496883D01*
X76961D01*
X78865Y-494978D01*
Y-491170D01*
X76961Y-489265D01*
X78865Y-485457D02*
Y-481648D01*
Y-483552D01*
X67439D01*
X69343Y-485457D01*
X67439Y-468317D02*
Y-475935D01*
X73152D01*
X71248Y-472126D01*
Y-470221D01*
X73152Y-468317D01*
X76961D01*
X78865Y-470221D01*
Y-474030D01*
X76961Y-475935D01*
X69343Y-547685D02*
X67439Y-549590D01*
Y-553399D01*
X69343Y-555303D01*
X76961D01*
X78865Y-553399D01*
Y-549590D01*
X76961Y-547685D01*
X78865Y-543877D02*
Y-540068D01*
Y-541972D01*
X67439D01*
X69343Y-543877D01*
X78865Y-528642D02*
X67439D01*
X73152Y-534355D01*
Y-526737D01*
X69343Y-608645D02*
X67439Y-610550D01*
Y-614358D01*
X69343Y-616263D01*
X76961D01*
X78865Y-614358D01*
Y-610550D01*
X76961Y-608645D01*
X78865Y-604837D02*
Y-601028D01*
Y-602932D01*
X67439D01*
X69343Y-604837D01*
Y-595315D02*
X67439Y-593410D01*
Y-589602D01*
X69343Y-587697D01*
X71248D01*
X73152Y-589602D01*
Y-591506D01*
Y-589602D01*
X75056Y-587697D01*
X76961D01*
X78865Y-589602D01*
Y-593410D01*
X76961Y-595315D01*
X69343Y-669605D02*
X67439Y-671510D01*
Y-675319D01*
X69343Y-677223D01*
X76961D01*
X78865Y-675319D01*
Y-671510D01*
X76961Y-669605D01*
X78865Y-665797D02*
Y-661988D01*
Y-663892D01*
X67439D01*
X69343Y-665797D01*
X78865Y-648657D02*
Y-656275D01*
X71248Y-648657D01*
X69343D01*
X67439Y-650562D01*
Y-654370D01*
X69343Y-656275D01*
Y-787081D02*
X67439Y-788985D01*
Y-792794D01*
X69343Y-794698D01*
X76961D01*
X78865Y-792794D01*
Y-788985D01*
X76961Y-787081D01*
X78865Y-783272D02*
Y-779463D01*
Y-781368D01*
X67439D01*
X69343Y-783272D01*
X78865Y-773750D02*
Y-769941D01*
Y-771846D01*
X67439D01*
X69343Y-773750D01*
X270509Y-838916D02*
X272413Y-837011D01*
Y-833202D01*
X270509Y-831298D01*
X262891D01*
X260987Y-833202D01*
Y-837011D01*
X262891Y-838916D01*
Y-842724D02*
X260987Y-844629D01*
Y-848438D01*
X262891Y-850342D01*
X270509D01*
X272413Y-848438D01*
Y-844629D01*
X270509Y-842724D01*
X268604D01*
X266700Y-844629D01*
Y-850342D01*
X252729Y-836376D02*
X254633Y-834471D01*
Y-830662D01*
X252729Y-828758D01*
X245111D01*
X243207Y-830662D01*
Y-834471D01*
X245111Y-836376D01*
X252729Y-840184D02*
X254633Y-842089D01*
Y-845898D01*
X252729Y-847802D01*
X250824D01*
X248920Y-845898D01*
X247016Y-847802D01*
X245111D01*
X243207Y-845898D01*
Y-842089D01*
X245111Y-840184D01*
X247016D01*
X248920Y-842089D01*
X250824Y-840184D01*
X252729D01*
X248920Y-842089D02*
Y-845898D01*
X496569Y-836296D02*
X498473Y-834391D01*
Y-830582D01*
X496569Y-828678D01*
X488951D01*
X487047Y-830582D01*
Y-834391D01*
X488951Y-836296D01*
X498473Y-840104D02*
Y-847722D01*
X496569D01*
X488951Y-840104D01*
X487047D01*
X478789Y-836296D02*
X480693Y-834391D01*
Y-830582D01*
X478789Y-828678D01*
X471171D01*
X469267Y-830582D01*
Y-834391D01*
X471171Y-836296D01*
X480693Y-847722D02*
X478789Y-843913D01*
X474980Y-840104D01*
X471171D01*
X469267Y-842009D01*
Y-845817D01*
X471171Y-847722D01*
X473076D01*
X474980Y-845817D01*
Y-840104D01*
X722629Y-833756D02*
X724533Y-831851D01*
Y-828042D01*
X722629Y-826138D01*
X715011D01*
X713107Y-828042D01*
Y-831851D01*
X715011Y-833756D01*
X724533Y-845182D02*
Y-837564D01*
X718820D01*
X720724Y-841373D01*
Y-843278D01*
X718820Y-845182D01*
X715011D01*
X713107Y-843278D01*
Y-839469D01*
X715011Y-837564D01*
X704849Y-836296D02*
X706753Y-834391D01*
Y-830583D01*
X704849Y-828678D01*
X697231D01*
X695327Y-830583D01*
Y-834391D01*
X697231Y-836296D01*
X695327Y-845818D02*
X706753D01*
X701040Y-840104D01*
Y-847722D01*
X915669Y-836296D02*
X917573Y-834391D01*
Y-830582D01*
X915669Y-828678D01*
X908051D01*
X906147Y-830582D01*
Y-834391D01*
X908051Y-836296D01*
X915669Y-840104D02*
X917573Y-842009D01*
Y-845817D01*
X915669Y-847722D01*
X913764D01*
X911860Y-845817D01*
Y-843913D01*
Y-845817D01*
X909956Y-847722D01*
X908051D01*
X906147Y-845817D01*
Y-842009D01*
X908051Y-840104D01*
X933449Y-836296D02*
X935353Y-834391D01*
Y-830582D01*
X933449Y-828678D01*
X925831D01*
X923927Y-830582D01*
Y-834391D01*
X925831Y-836296D01*
X923927Y-847722D02*
Y-840104D01*
X931544Y-847722D01*
X933449D01*
X935353Y-845817D01*
Y-842009D01*
X933449Y-840104D01*
M02*
