G04*
G04 #@! TF.GenerationSoftware,Altium Limited,Altium Designer,24.7.2 (38)*
G04*
G04 Layer_Color=8421504*
%FSLAX44Y44*%
%MOMM*%
G71*
G04*
G04 #@! TF.SameCoordinates,4798D7E4-1403-4A70-8607-6B62460FE5A0*
G04*
G04*
G04 #@! TF.FilePolarity,Positive*
G04*
G01*
G75*
%ADD14R,1.4700X1.1600*%
%ADD15R,1.1600X1.4700*%
%ADD16R,0.9800X0.9300*%
%ADD17R,0.9300X0.9800*%
%ADD18R,0.7000X0.7000*%
%ADD19R,0.7000X0.7000*%
D14*
X25400Y-895340D02*
D03*
Y-913140D02*
D03*
X713740D02*
D03*
Y-895340D02*
D03*
X683260Y-913140D02*
D03*
Y-895340D02*
D03*
X274320Y-913140D02*
D03*
Y-895340D02*
D03*
X55880Y-913140D02*
D03*
Y-895340D02*
D03*
X464820Y-913140D02*
D03*
Y-895340D02*
D03*
X243840Y-913140D02*
D03*
Y-895340D02*
D03*
X495300Y-913140D02*
D03*
Y-895340D02*
D03*
D15*
X483880Y-807720D02*
D03*
X466080D02*
D03*
X266700D02*
D03*
X248900D02*
D03*
X704860D02*
D03*
X687060D02*
D03*
X47000D02*
D03*
X29200D02*
D03*
D16*
X154940Y-845900D02*
D03*
Y-830500D02*
D03*
X228600Y-845900D02*
D03*
Y-830500D02*
D03*
X375920Y-845900D02*
D03*
Y-830500D02*
D03*
X454660Y-845900D02*
D03*
Y-830500D02*
D03*
X594360Y-845900D02*
D03*
Y-830500D02*
D03*
X680720Y-845900D02*
D03*
Y-830500D02*
D03*
X815340Y-845900D02*
D03*
Y-830500D02*
D03*
X891540Y-845900D02*
D03*
Y-830500D02*
D03*
D17*
X251380Y-782320D02*
D03*
X266780D02*
D03*
X251380Y-723900D02*
D03*
X266780D02*
D03*
X251380Y-601980D02*
D03*
X266780D02*
D03*
X251380Y-662940D02*
D03*
X266780D02*
D03*
X251380Y-543560D02*
D03*
X266780D02*
D03*
X251380Y-482600D02*
D03*
X266780D02*
D03*
X251380Y-302260D02*
D03*
X266780D02*
D03*
X251380Y-363220D02*
D03*
X266780D02*
D03*
X251380Y-241300D02*
D03*
X266780D02*
D03*
X251380Y-182880D02*
D03*
X266780D02*
D03*
X251380Y-124460D02*
D03*
X266780D02*
D03*
X251380Y-421640D02*
D03*
X266780D02*
D03*
X706200Y-482600D02*
D03*
X690800D02*
D03*
X706200Y-542290D02*
D03*
X690800D02*
D03*
X469740Y-782320D02*
D03*
X485140D02*
D03*
X469740Y-723900D02*
D03*
X485140D02*
D03*
X469740Y-662940D02*
D03*
X485140D02*
D03*
X469740Y-601980D02*
D03*
X485140D02*
D03*
X469820Y-485140D02*
D03*
X485220D02*
D03*
X469820Y-543560D02*
D03*
X485220D02*
D03*
X690800Y-782320D02*
D03*
X706200D02*
D03*
X690800Y-723900D02*
D03*
X706200D02*
D03*
Y-363220D02*
D03*
X690800D02*
D03*
X706200Y-303530D02*
D03*
X690800D02*
D03*
X706200Y-241300D02*
D03*
X690800D02*
D03*
X706200Y-182880D02*
D03*
X690800D02*
D03*
X706200Y-124460D02*
D03*
X690800D02*
D03*
X706200Y-422910D02*
D03*
X690800D02*
D03*
X469740Y-303530D02*
D03*
X485140D02*
D03*
X469820Y-422910D02*
D03*
X485220D02*
D03*
X469740Y-363220D02*
D03*
X485140D02*
D03*
X469740Y-242570D02*
D03*
X485140D02*
D03*
X469740Y-182880D02*
D03*
X485140D02*
D03*
X469740Y-124460D02*
D03*
X485140D02*
D03*
X690800Y-601980D02*
D03*
X706200D02*
D03*
X690800Y-662940D02*
D03*
X706200D02*
D03*
X48260Y-723900D02*
D03*
X32860D02*
D03*
Y-662940D02*
D03*
X48260D02*
D03*
X32860Y-601980D02*
D03*
X48260D02*
D03*
X32860Y-782320D02*
D03*
X48260D02*
D03*
X32860Y-541020D02*
D03*
X48260D02*
D03*
X32860Y-482600D02*
D03*
X48260D02*
D03*
X32860Y-363220D02*
D03*
X48260D02*
D03*
X32860Y-302260D02*
D03*
X48260D02*
D03*
X32860Y-421640D02*
D03*
X48260D02*
D03*
X32860Y-241300D02*
D03*
X48260D02*
D03*
X32860Y-182880D02*
D03*
X48260D02*
D03*
X32860Y-124460D02*
D03*
X48260D02*
D03*
D18*
X254000Y-744468D02*
D03*
X265000D02*
D03*
Y-762768D02*
D03*
X254000D02*
D03*
X472440Y-744468D02*
D03*
X483440D02*
D03*
Y-762768D02*
D03*
X472440D02*
D03*
X253580Y-702570D02*
D03*
X264580D02*
D03*
Y-684270D02*
D03*
X253580D02*
D03*
X254000Y-624534D02*
D03*
X265000D02*
D03*
Y-642834D02*
D03*
X254000D02*
D03*
X472440Y-702801D02*
D03*
X483440D02*
D03*
Y-684501D02*
D03*
X472440D02*
D03*
Y-624534D02*
D03*
X483440D02*
D03*
Y-642834D02*
D03*
X472440D02*
D03*
Y-582867D02*
D03*
X483440D02*
D03*
Y-564567D02*
D03*
X472440D02*
D03*
X254000Y-582867D02*
D03*
X265000D02*
D03*
Y-564567D02*
D03*
X254000D02*
D03*
Y-504600D02*
D03*
X265000D02*
D03*
Y-522900D02*
D03*
X254000D02*
D03*
X472440Y-504600D02*
D03*
X483440D02*
D03*
Y-522900D02*
D03*
X472440D02*
D03*
Y-384665D02*
D03*
X483440D02*
D03*
Y-402966D02*
D03*
X472440D02*
D03*
Y-342998D02*
D03*
X483440D02*
D03*
Y-324698D02*
D03*
X472440D02*
D03*
Y-264731D02*
D03*
X483440D02*
D03*
Y-283031D02*
D03*
X472440D02*
D03*
X254000Y-264731D02*
D03*
X265000D02*
D03*
Y-283031D02*
D03*
X254000D02*
D03*
Y-384665D02*
D03*
X265000D02*
D03*
Y-402966D02*
D03*
X254000D02*
D03*
Y-342998D02*
D03*
X265000D02*
D03*
Y-324698D02*
D03*
X254000D02*
D03*
Y-223064D02*
D03*
X265000D02*
D03*
Y-204764D02*
D03*
X254000D02*
D03*
X472440Y-223064D02*
D03*
X483440D02*
D03*
Y-204764D02*
D03*
X472440D02*
D03*
X254000Y-462933D02*
D03*
X265000D02*
D03*
Y-444633D02*
D03*
X254000D02*
D03*
X693420Y-582867D02*
D03*
X704420D02*
D03*
Y-564567D02*
D03*
X693420D02*
D03*
Y-504600D02*
D03*
X704420D02*
D03*
Y-522900D02*
D03*
X693420D02*
D03*
Y-744468D02*
D03*
X704420D02*
D03*
Y-762768D02*
D03*
X693420D02*
D03*
Y-702801D02*
D03*
X704420D02*
D03*
Y-684501D02*
D03*
X693420D02*
D03*
Y-624534D02*
D03*
X704420D02*
D03*
Y-642834D02*
D03*
X693420D02*
D03*
Y-384665D02*
D03*
X704420D02*
D03*
Y-402966D02*
D03*
X693420D02*
D03*
Y-264731D02*
D03*
X704420D02*
D03*
Y-283031D02*
D03*
X693420D02*
D03*
Y-342998D02*
D03*
X704420D02*
D03*
Y-324698D02*
D03*
X693420D02*
D03*
Y-163097D02*
D03*
X704420D02*
D03*
Y-144797D02*
D03*
X693420D02*
D03*
Y-223064D02*
D03*
X704420D02*
D03*
Y-204764D02*
D03*
X693420D02*
D03*
Y-103130D02*
D03*
X704420D02*
D03*
Y-84830D02*
D03*
X693420D02*
D03*
Y-462933D02*
D03*
X704420D02*
D03*
Y-444633D02*
D03*
X693420D02*
D03*
X472440Y-462933D02*
D03*
X483440D02*
D03*
Y-444633D02*
D03*
X472440D02*
D03*
Y-163097D02*
D03*
X483440D02*
D03*
Y-144797D02*
D03*
X472440D02*
D03*
Y-103130D02*
D03*
X483440D02*
D03*
Y-84830D02*
D03*
X472440D02*
D03*
X36410Y-702801D02*
D03*
X47410D02*
D03*
Y-684501D02*
D03*
X36410D02*
D03*
Y-624534D02*
D03*
X47410D02*
D03*
Y-642834D02*
D03*
X36410D02*
D03*
Y-744468D02*
D03*
X47410D02*
D03*
Y-762768D02*
D03*
X36410D02*
D03*
Y-582867D02*
D03*
X47410D02*
D03*
Y-564567D02*
D03*
X36410D02*
D03*
Y-504600D02*
D03*
X47410D02*
D03*
Y-522900D02*
D03*
X36410D02*
D03*
Y-384665D02*
D03*
X47410D02*
D03*
Y-402966D02*
D03*
X36410D02*
D03*
Y-342998D02*
D03*
X47410D02*
D03*
Y-324698D02*
D03*
X36410D02*
D03*
Y-264731D02*
D03*
X47410D02*
D03*
Y-283031D02*
D03*
X36410D02*
D03*
Y-223064D02*
D03*
X47410D02*
D03*
Y-204764D02*
D03*
X36410D02*
D03*
Y-163097D02*
D03*
X47410D02*
D03*
Y-144797D02*
D03*
X36410D02*
D03*
Y-103130D02*
D03*
X47410D02*
D03*
Y-84830D02*
D03*
X36410D02*
D03*
X254000Y-163097D02*
D03*
X265000D02*
D03*
Y-144797D02*
D03*
X254000D02*
D03*
Y-103130D02*
D03*
X265000D02*
D03*
Y-84830D02*
D03*
X254000D02*
D03*
X36410Y-462933D02*
D03*
X47410D02*
D03*
Y-444633D02*
D03*
X36410D02*
D03*
D19*
X639070Y-843275D02*
D03*
Y-832275D02*
D03*
X620770D02*
D03*
Y-843275D02*
D03*
X415550D02*
D03*
Y-832275D02*
D03*
X397250D02*
D03*
Y-843275D02*
D03*
X194570D02*
D03*
Y-832275D02*
D03*
X176270D02*
D03*
Y-843275D02*
D03*
X101080D02*
D03*
Y-832275D02*
D03*
X119380D02*
D03*
Y-843275D02*
D03*
X319520D02*
D03*
Y-832275D02*
D03*
X337820D02*
D03*
Y-843275D02*
D03*
X540500D02*
D03*
Y-832275D02*
D03*
X558800D02*
D03*
Y-843275D02*
D03*
X760470D02*
D03*
Y-832275D02*
D03*
X778770D02*
D03*
Y-843275D02*
D03*
X854970D02*
D03*
Y-832275D02*
D03*
X836670D02*
D03*
Y-843275D02*
D03*
M02*
