M48
;Layer_Color=9474304
;FILE_FORMAT=4:4
METRIC,LZ
;TYPE=PLATED
T01F00S00C0.4064
T02F00S00C1.0000
T03F00S00C1.1000
T04F00S00C1.3500
T06F00S00C2.5400
%
T01
X0010287Y-0085598
X001524Y-0086106
X0017145Y-0085471
X0023114Y-0085979
X0032004Y-0085598
X0037084Y-0086106
X0039116Y-0085344
X0042418Y-0082296
X0045212Y-0086106
X0054102Y-0085725
X006096Y-0084963
X0062103Y-0085598
X0068326Y-0086106
X0076073Y-0085598
X0082677
X0083693
X0090424Y-0085725
Y-0080518
X0092202Y-0080645
X0089154Y-0081661
X0085598Y-0082042
X0082677Y-0081915
X0077978Y-0082042
X0072009Y-0078232
X0071628Y-00762
X0072009Y-007239
X0071628Y-0070231
X0072009Y-0066294
X0071628Y-0064389
X0072009Y-0060071
X0071755Y-0057912
X0072009Y-0054229
X0071628Y-0052324
X0072009Y-004826
X0071628Y-0046355
X0067572Y-004826
X0068114Y-00498002
X0067572Y-0054229
X0068114Y-00557969
X0067572Y-0060198
X0068114Y-00617936
X0063881Y-0061976
X0064264Y-00608249
X0063669Y-00634065
X00635Y-0064643
Y-0066548
X0067572Y-0066294
X0068114Y-00677903
X0067572Y-007239
X0068114Y-0073787
X0067572Y-0078232
X0066802Y-0082169
X0064008Y-0082042
X0060706
X0056134
X0057277Y-0070993
X0058801Y-0071247
X00600397Y-00713307
X0061595Y-0070739
X0055946Y-00693127
X005461Y-0069215
X0053467Y-0067691
X0052324Y-0067183
X0054737Y-0064516
X005461Y-0063373
X0054356Y-0061976
X00546521Y-00607395
X0054737Y-0059563
X0054102Y-0057785
X0057658Y-0056515
X0068114Y-00438035
X00785795Y-00452541
X00776905Y-00470321
X0085344Y-004699
X0086995Y-0046355
X00827705Y-005262
X00807385Y-0055287
X0049911Y-0054356
X004953Y-0052324
X0049911Y-0048514
X004953Y-0046355
X0046016Y-00438035
X0045474Y-0048514
X0046016Y-00498002
X0045474Y-0054356
X0046016Y-00557969
X0045466Y-0060198
X0046016Y-00617936
X0045466Y-0066294
X0046016Y-00677903
X0045466Y-007239
X0046016Y-0073787
X0049911Y-0072136
X004953Y-0070231
X0049911Y-0066294
X004953Y-0064262
X0049911Y-0060198
X004953Y-0058293
Y-0076454
X0049911Y-0078232
X0045593Y-0079248
X0045085Y-0081661
X0036195Y-0082042
X003429Y-0082169
X0028067Y-0078232
X0027686Y-0076327
X0028067Y-007239
X0027686Y-0070231
X0028067Y-0066294
X0027686Y-0064262
X0028067Y-0060198
X0027686Y-0058293
X0028067Y-0054356
X0027686Y-0052324
X0028067Y-0048387
X0027686Y-0046355
X002363Y-004826
X0024172Y-00498002
X002363Y-0054356
X0024172Y-00557969
X002363Y-0060198
X0024172Y-00617936
X002363Y-0066294
X002413Y-00677672
X002363Y-007239
X0024172Y-0073787
X002363Y-0078232
X002286Y-0081661
X0019558Y-0082042
X0014351Y-0081915
X0011938Y-0082042
X0024172Y-00438035
X0005969Y-0046355
X0006223Y-004826
X0005969Y-0052324
X0006223Y-0054102
X0001905
X0002413Y-00557969
X0001905Y-0060198
X0002413Y-00617936
X0001778Y-0066294
X0002413Y-00677903
X0001778Y-007239
X0002413Y-0073787
X0001905Y-0078232
X0006223
X0006096Y-0076327
X00062509Y-00722979
X00059969Y-00702659
X0006223Y-0066294
X0005969Y-0064262
X0006223Y-0060198
X0005969Y-0058293
X0002413Y-00498002
X0001905Y-004826
X0002413Y-00438035
X0001905Y-0042164
X0006223
X0005969Y-0040259
X0006223Y-0036322
X0005969Y-0034417
X0006223Y-0030226
X0005969Y-0028321
X0006223Y-0024257
X0005969Y-0022352
X0006223Y-0018415
X0005969Y-0016383
X0006223Y-0012446
X0005969Y-0010795
X0001905Y-0012446
X0002413Y-00138199
X0001905Y-0018288
X0002413Y-00198166
X0001905Y-002413
X0002413Y-00258133
X0001905Y-0030226
X0002413Y-003181
X0001905Y-0036322
X0002413Y-00378068
Y-00078232
X0024172
X002363Y-0012446
X0024172Y-00138199
X002363Y-0018288
X0024172Y-00198166
X002363Y-002413
X0024172Y-00258133
X002363Y-0030226
X0024172Y-003181
X002363Y-0036322
X0024172Y-00378068
X002363Y-0042164
X0028067
X0027686Y-0040259
X0028067Y-0036322
X0027686Y-0034417
X0028067Y-0030226
X0027686Y-0028448
X0028067Y-002413
X0027686Y-0022352
X0028067Y-0018288
X0027686Y-0016383
X0028067Y-0012446
X0027686Y-0010668
X0045466Y-0012446
X0046016Y-00138199
X0045466Y-0018288
X0046016Y-00198166
X0045466Y-0024257
X0046016Y-00258133
X0045466Y-0030353
X0046016Y-003181
X0045466Y-0036322
X0046016Y-00378068
X0045474Y-0042291
X0049911Y-0042418
X004953Y-0040386
X0049911Y-0036322
X004953Y-003429
X0049911Y-0030353
X004953Y-0028321
X0049911Y-0024257
X004953Y-0022352
X0049911Y-0018288
X004953Y-0016256
X0049911Y-0012573
X004953Y-0010795
X0046016Y-00078232
X0068114
X0067572Y-0012446
X0068114Y-00138199
X0067572Y-0018288
X0068114Y-00198166
X0067572Y-002413
X00680746Y-00258736
X0067572Y-0030353
X0068114Y-003181
X0067572Y-0036322
X0068114Y-00378068
X0067572Y-0042291
X0072009
X0071628Y-0040259
X0072009Y-0036322
X0071628Y-003429
X0072009Y-0030353
X0071628Y-0028321
X0072009Y-0024257
X0071628Y-0022352
X0072009Y-0018288
X0071628Y-0016256
X0072009Y-0012446
X0071628Y-0010795
T02
X0009053Y-0093547
Y-0087047
X0013553
X0016673
X0021173
Y-0093547
X0016673
X0013553
X0030897
X0035397
X0038517
X0043017
Y-0087047
X0038517
X0035397
X0030897
X0052868
X0057368
X0060488
X0064988
Y-0093547
X0060488
X0057368
X0052868
X0074803Y-0093599
X0079303
X0082423Y-0093674
X0086923
Y-0087174
X0082423
X0079303Y-0087099
X0074803
T03
X0093472Y-0075438
Y-0072898
Y-0070358
Y-0063246
Y-0060706
Y-0058166
Y-0055626
Y-0053086
Y-0050546
Y-0048006
Y-0045466
Y-0042926
Y-0040386
T04
X00570613Y-0078875
X00607613
X007899
X008269
X00388327
X00351327
X0016904
X0013204
Y-0005375
X00351327
X00570613
X007899
T06
X0004445Y-0004445
X0092075
M30
