M48
;Layer_Color=9474304
;FILE_FORMAT=4:4
METRIC,LZ
;TYPE=PLATED
T05F00S00C1.8000
%
G90
G05
T05
G00X00546613Y-0073725
M15
G01Y-0073325
M16
G00X00631613Y-0074925
M15
G01Y-0074525
M16
G00X007659Y-0073725
M15
G01Y-0073325
M16
G00X008509Y-0074925
M15
G01Y-0074525
M16
G00X00412327Y-0074925
M15
G01Y-0074525
M16
G00X00327327Y-0073725
M15
G01Y-0073325
M16
G00X0019304Y-0074925
M15
G01Y-0074525
M16
G00X0010804Y-0073725
M15
G01Y-0073325
M16
G00X0010804Y-0010925
M15
G01Y-0010525
M16
G00X0019304Y-0009725
M15
G01Y-0009325
M16
G00X00327327Y-0010925
M15
G01Y-0010525
M16
G00X00412327Y-0009725
M15
G01Y-0009325
M16
G00X00546613Y-0010925
M15
G01Y-0010525
M16
G00X00631613Y-0009725
M15
G01Y-0009325
M16
G00X007659Y-0010925
M15
G01Y-0010525
M16
G00X008509Y-0009725
M15
G01Y-0009325
M16
M17
M30
